<svg width="105" height="111" viewBox="0 0 105 111" fill="none" xmlns="http://www.w3.org/2000/svg">
<g id="acreche">
<path id="Ellipse 18" d="M100.176 62.8846C100.176 88.2389 78.8738 108.882 52.4851 108.882C26.0964 108.882 4.79462 88.2389 4.79462 62.8846C4.79462 37.5303 26.0964 16.8877 52.4851 16.8877C78.8738 16.8877 100.176 37.5303 100.176 62.8846Z" fill="#158E41" stroke="#F1F8F3" stroke-width="3"/>
<g id="creche 1" clip-path="url(#clip0)">
<path id="Vector" d="M99.7101 33.6032L7.01165 29.5259C6.49733 29.5026 6.02283 29.2529 5.72516 28.848C5.42673 28.4431 5.33824 27.9289 5.4842 27.4525L10.4258 11.491C10.6379 10.816 11.2743 10.3478 12.0053 10.3311L96.4442 14.045C97.2126 14.0796 97.8577 14.6153 98.0082 15.3432L101.426 31.6725C101.527 32.1598 101.39 32.664 101.055 33.041C100.72 33.4181 100.224 33.6251 99.7101 33.6032Z" fill="#C52828"/>
<path id="Vector_2" d="M94.2259 33.362L7.01165 29.5259C6.49733 29.5026 6.02283 29.2529 5.72516 28.848C5.42673 28.4431 5.33824 27.9289 5.4842 27.4525L10.4258 11.491C10.6379 10.816 11.2743 10.3478 12.0053 10.3311L90.9601 13.8038C91.7285 13.8384 92.3736 14.374 92.5241 15.102L95.9423 31.4313C96.0428 31.9185 95.9062 32.4228 95.5709 32.7998C95.2356 33.1768 94.7396 33.3839 94.2259 33.362Z" fill="#F44335"/>
<path id="Vector_3" d="M97.4696 33.5045L94.88 88.3972L7.9328 84.5728L10.5225 29.6802L23.5145 30.2517C24.405 30.2842 25.273 29.9795 25.9337 29.4035L32.5952 23.5162L47.6123 10.2796L52.3683 6.07193L54.0648 4.56095C54.7581 3.96047 55.822 4.00726 56.456 4.66612L62.3433 10.9276L63.9396 12.6152L64.8973 13.612L76.0687 25.4284L82.1314 31.8753C82.7359 32.5069 83.5717 32.8866 84.4608 32.9324L97.4696 33.5045Z" fill="#FFB301"/>
<path id="Vector_4" d="M91.8179 33.2561L89.2282 88.1486L7.9328 84.5729L10.5225 29.6803L23.5145 30.2518C24.405 30.2843 25.273 29.9796 25.9337 29.4036L32.5952 23.5164L47.6123 10.2797L52.3683 6.07205L56.7084 10.6798L58.3047 12.3675L59.2463 13.3635L70.417 25.1799L76.4965 31.6275C77.0969 32.2642 77.935 32.6447 78.8259 32.6846L91.8179 33.2561Z" fill="#FDD834"/>
<path id="Vector_5" d="M51.9133 62.2395C48.2194 62.077 45.0888 64.8365 44.9205 68.4032L44.0993 85.8109L57.4755 86.3992L58.2968 68.9915C58.465 65.4248 55.6071 62.402 51.9133 62.2395Z" fill="#C52828"/>
<path id="Vector_6" d="M44.9205 68.4082L58.2968 68.9966L57.4758 86.3998L44.0995 85.8115L44.9205 68.4082Z" fill="#C52828"/>
<path id="Vector_7" d="M44.9205 68.4082L53.2811 68.7759L52.46 86.1792L44.0995 85.8115L44.9205 68.4082Z" fill="#F44335"/>
<g id="Group">
<path id="Vector_8" d="M22.8823 38.3127L17.8666 38.0921C16.9428 38.0515 16.1601 38.7414 16.118 39.6334L15.5087 52.5491C15.4666 53.4411 16.1811 54.1969 17.1049 54.2375L22.1206 54.4581C23.0445 54.4988 23.8272 53.8089 23.8692 52.9168L24.4786 40.0011C24.5207 39.1091 23.8062 38.3534 22.8823 38.3127Z" fill="#0377BC"/>
<path id="Vector_9" d="M37.9305 38.9748L32.9148 38.7542C31.9909 38.7136 31.2083 39.4035 31.1662 40.2955L30.5569 53.2112C30.5148 54.1033 31.2292 54.859 32.1531 54.8996L37.1688 55.1202C38.0926 55.1609 38.8753 54.471 38.9174 53.579L39.5267 40.6632C39.5688 39.7712 38.8543 39.0155 37.9305 38.9748Z" fill="#0377BC"/>
<path id="Vector_10" d="M21.816 60.9162L16.8003 60.6956C15.8764 60.655 15.0938 61.3449 15.0517 62.2362L14.4424 75.1526C14.4003 76.0439 15.1148 76.7997 16.0386 76.8403L21.0543 77.0609C21.9782 77.1015 22.7608 76.4117 22.8029 75.5204L23.4123 62.6039C23.4543 61.7126 22.7398 60.9569 21.816 60.9162Z" fill="#0377BC"/>
<path id="Vector_11" d="M36.8646 61.5784L31.8489 61.3577C30.9251 61.3171 30.1424 62.007 30.1004 62.8983L29.491 75.8148C29.449 76.7061 30.1634 77.4618 31.0873 77.5024L36.103 77.723C37.0268 77.7637 37.8095 77.0738 37.8515 76.1825L38.4609 63.266C38.5029 62.3747 37.7885 61.619 36.8646 61.5784Z" fill="#0377BC"/>
<path id="Vector_12" d="M73.0442 40.5188L68.0284 40.2982C67.1046 40.2575 66.3219 40.9474 66.2798 41.8394L65.6705 54.7552C65.6284 55.6472 66.3429 56.4029 67.2667 56.4436L72.2825 56.6642C73.2063 56.7048 73.989 56.0149 74.0311 55.1229L74.6404 42.2072C74.6825 41.3151 73.968 40.5594 73.0442 40.5188Z" fill="#0377BC"/>
<path id="Vector_13" d="M88.0925 41.1809L83.0768 40.9603C82.153 40.9196 81.3703 41.6095 81.3282 42.5016L80.7189 55.4173C80.6768 56.3093 81.3913 57.065 82.3151 57.1057L87.3309 57.3263C88.2547 57.3669 89.0374 56.677 89.0795 55.785L89.6888 42.8693C89.7309 41.9772 89.0164 41.2215 88.0925 41.1809Z" fill="#0377BC"/>
<path id="Vector_14" d="M71.9779 63.1223L66.9621 62.9017C66.0383 62.8611 65.2556 63.5509 65.2136 64.4422L64.6042 77.3587C64.5622 78.25 65.2766 79.0057 66.2005 79.0463L71.2162 79.267C72.14 79.3076 72.9227 78.6177 72.9648 77.7264L73.5741 64.81C73.6162 63.9187 72.9017 63.1629 71.9779 63.1223Z" fill="#0377BC"/>
<path id="Vector_15" d="M87.0265 63.7844L82.0108 63.5638C81.0869 63.5232 80.3043 64.213 80.2622 65.1043L79.6529 78.0208C79.6108 78.9121 80.3253 79.6678 81.2491 79.7085L86.2648 79.9291C87.1887 79.9697 87.9714 79.2798 88.0134 78.3885L88.6228 65.4721C88.6648 64.5808 87.9503 63.825 87.0265 63.7844Z" fill="#0377BC"/>
<path id="Vector_16" d="M57.8439 43.0861L47.8109 42.6448C46.8879 42.6042 46.1052 43.2941 46.0631 44.1861L45.6061 53.8729C45.564 54.765 46.2785 55.5207 47.2016 55.5613L57.2345 56.0026C58.1576 56.0432 58.9403 55.3533 58.9824 54.4613L59.4394 44.7745C59.4814 43.8824 58.767 43.1267 57.8439 43.0861Z" fill="#0377BC"/>
</g>
<path id="Vector_17" d="M5.70208 82.8568L95.9926 86.8281C96.9164 86.8688 97.6309 87.6245 97.5888 88.5165L97.3222 94.1673L3.68689 90.0488L3.95348 84.398C3.99556 83.506 4.77823 82.8161 5.70208 82.8568Z" fill="#37474F"/>
<path id="Vector_18" d="M5.70208 82.8568L89.3044 86.534C90.2283 86.5746 90.9427 87.3303 90.9006 88.2224L90.6341 93.8732L3.68689 90.0488L3.95348 84.398C3.99556 83.506 4.77823 82.8161 5.70208 82.8568Z" fill="#607D8B"/>
<path id="Vector_19" d="M63.6209 27.1667C63.3685 32.516 58.6725 36.656 53.1317 36.4123C47.5909 36.1686 43.3042 31.6335 43.5565 26.2842C43.8089 20.9342 48.505 16.7942 54.0457 17.0379C59.5865 17.2816 63.8733 21.8167 63.6209 27.1667Z" fill="#607D8B"/>
<path id="Vector_20" d="M58.6052 26.9461C58.8576 21.5961 55.6929 17.1104 51.5375 16.9276C47.3821 16.7448 43.8089 20.9342 43.5565 26.2842C43.3042 31.6335 46.4681 36.1192 50.6235 36.3019C54.7789 36.4847 58.3528 32.2954 58.6052 26.9461Z" fill="#CFD8DC"/>
<path id="Vector_21" d="M15.7372 47.7051L24.0977 48.0728L23.8692 52.9166C23.8271 53.8086 23.0445 54.4985 22.1206 54.4579L17.1049 54.2372C16.1811 54.1966 15.4666 53.4409 15.5087 52.5489L15.7372 47.7051Z" fill="#2296F3"/>
<path id="Vector_22" d="M30.7858 48.3672L39.1464 48.7349L38.9179 53.5787C38.8758 54.4707 38.0931 55.1606 37.1693 55.12L32.1535 54.8994C31.2297 54.8587 30.5152 54.103 30.5573 53.211L30.7858 48.3672Z" fill="#2296F3"/>
<path id="Vector_23" d="M14.671 70.3086L23.0316 70.6763L22.803 75.5201C22.761 76.4114 21.9783 77.1013 21.0545 77.0606L16.0388 76.84C15.1149 76.7994 14.4005 76.0437 14.4425 75.1524L14.671 70.3086Z" fill="#2296F3"/>
<path id="Vector_24" d="M29.7195 70.9707L38.08 71.3384L37.8515 76.1822C37.8095 77.0735 37.0268 77.7634 36.1029 77.7228L31.0872 77.5021C30.1634 77.4615 29.4489 76.7058 29.491 75.8145L29.7195 70.9707Z" fill="#2296F3"/>
<path id="Vector_25" d="M65.8989 49.9111L74.2595 50.2789L74.031 55.1226C73.9889 56.0147 73.2062 56.7045 72.2824 56.6639L67.2666 56.4433C66.3428 56.4026 65.6283 55.6469 65.6704 54.7549L65.8989 49.9111Z" fill="#2296F3"/>
<path id="Vector_26" d="M80.9476 50.5732L89.3081 50.941L89.0796 55.7847C89.0375 56.6768 88.2549 57.3667 87.331 57.326L82.3153 57.1054C81.3915 57.0648 80.677 56.3091 80.7191 55.417L80.9476 50.5732Z" fill="#2296F3"/>
<path id="Vector_27" d="M64.8326 72.5146L73.1931 72.8824L72.9646 77.7261C72.9226 78.6174 72.1399 79.3073 71.216 79.2667L66.2003 79.0461C65.2765 79.0054 64.562 78.2497 64.6041 77.3584L64.8326 72.5146Z" fill="#2296F3"/>
<path id="Vector_28" d="M79.8812 73.1768L88.2418 73.5445L88.0133 78.3883C87.9712 79.2796 87.1886 79.9695 86.2647 79.9288L81.249 79.7082C80.3251 79.6676 79.6107 78.9119 79.6527 78.0206L79.8812 73.1768Z" fill="#2296F3"/>
<path id="Vector_29" d="M54.5717 76.9213C54.5296 77.8134 53.7469 78.5032 52.8239 78.4626C51.9 78.422 51.1855 77.6663 51.2276 76.7742C51.2697 75.8829 52.0523 75.1931 52.9762 75.2337C53.8993 75.2743 54.6137 76.03 54.5717 76.9213Z" fill="#2C2F38"/>
<path id="Vector_30" d="M3.72493 89.2405L97.3602 93.359C98.2833 93.3996 98.9978 94.1553 98.9557 95.0474L98.8034 98.2763C98.7613 99.1676 97.9786 99.8575 97.0556 99.8169L3.42027 95.6984C2.49719 95.6578 1.78272 94.9021 1.82477 94.0108L1.9771 90.7818C2.01918 89.8898 2.80185 89.1999 3.72493 89.2405Z" fill="#37474F"/>
<path id="Vector_31" d="M2.0534 89.1673L92.3439 93.1387C93.2677 93.1793 93.9822 93.935 93.9401 94.8271L93.7878 98.056C93.7457 98.9473 92.963 99.6372 92.0392 99.5965L1.74873 95.6252C0.824888 95.5845 0.110419 94.8288 0.152468 93.9375L0.304799 90.7086C0.346882 89.8165 1.12955 89.1267 2.0534 89.1673Z" fill="#607D8B"/>
<path id="Vector_32" d="M45.8347 49.0293L59.211 49.6176L58.9825 54.4614C58.9404 55.3534 58.1577 56.0433 57.2346 56.0027L47.2017 55.5614C46.2786 55.5208 45.5641 54.7651 45.6062 53.8731L45.8347 49.0293Z" fill="#2296F3"/>
<path id="Vector_33" d="M21.2139 2.64709L22.8863 2.72065C24.7332 2.80188 26.1622 4.31333 26.078 6.09667L25.5449 17.3976C25.5028 18.2896 24.7201 18.9795 23.7963 18.9388L18.7806 18.7182C17.8567 18.6776 17.1423 17.9219 17.1843 17.0298L17.7175 5.72893C17.8016 3.94559 19.3669 2.56585 21.2139 2.64709Z" fill="#CFD8DC"/>
<path id="Vector_34" d="M53.056 38.0224C59.5198 38.3067 64.9993 33.4769 65.2938 27.2356C65.5882 20.9943 60.5862 15.7034 54.1223 15.4191C47.6585 15.1348 42.179 19.9646 41.8845 26.2059C41.5979 32.4446 46.5955 37.7308 53.056 38.0224ZM53.97 18.6481C58.5869 18.8511 62.16 22.6305 61.9497 27.0885C61.7394 31.5465 57.8252 34.9965 53.2083 34.7935C48.5914 34.5904 45.0183 30.811 45.2286 26.353C45.4449 21.8975 49.3551 18.451 53.97 18.6481Z" fill="#5E2458"/>
<path id="Vector_35" d="M53.5128 28.3359L56.8569 28.483C57.7807 28.5236 58.5634 27.833 58.6055 26.9417C58.6475 26.0504 57.9331 25.2939 57.0092 25.2533L55.3376 25.1798L55.4137 23.5657C55.4558 22.6736 54.7406 21.9179 53.8175 21.8773C52.8944 21.8367 52.111 22.5265 52.0689 23.4185L51.9166 26.6475C51.8745 27.5388 52.5897 28.2953 53.5128 28.3359Z" fill="#5E2458"/>
<path id="Vector_36" d="M22.9584 36.6988L17.9427 36.4781C16.0958 36.3969 14.5304 37.7766 14.4463 39.56L13.837 52.4757C13.7528 54.2591 15.1818 55.7705 17.0287 55.8517L22.0444 56.0724C23.8913 56.1536 25.4567 54.7739 25.5408 52.9905L26.1501 40.0748C26.2343 38.2914 24.8053 36.78 22.9584 36.6988ZM17.7904 39.7071L22.8061 39.9277L22.5014 46.3856L17.4857 46.1649L17.7904 39.7071ZM17.181 52.6228L17.3334 49.3939L22.3491 49.6145L22.1968 52.8434L17.181 52.6228Z" fill="#5E2458"/>
<path id="Vector_37" d="M38.0071 37.3599L32.9914 37.1393C31.1445 37.058 29.5791 38.4378 29.495 40.2211L28.8857 53.1368C28.8016 54.9202 30.2305 56.4316 32.0774 56.5129L37.0931 56.7335C38.94 56.8147 40.5054 55.435 40.5895 53.6516L41.1988 40.7359C41.283 38.9526 39.854 37.4411 38.0071 37.3599ZM32.8391 40.3682L37.8548 40.5888L37.5501 47.0467L32.5344 46.8261L32.8391 40.3682ZM32.2297 53.2839L32.3821 50.055L37.3978 50.2756L37.2455 53.5045L32.2297 53.2839Z" fill="#5E2458"/>
<path id="Vector_38" d="M21.8921 59.3013L16.8764 59.0807C15.0295 58.9994 13.4641 60.3792 13.38 62.1625L12.7707 75.079C12.6865 76.8623 14.1155 78.3738 15.9624 78.455L20.9781 78.6756C22.825 78.7569 24.3904 77.3771 24.4745 75.5938L25.0839 62.6773C25.168 60.894 23.7391 59.3825 21.8921 59.3013ZM16.7241 62.3096L21.7398 62.5302L21.4351 68.9881L16.4194 68.7675L16.7241 62.3096ZM16.1147 75.2261L16.2671 71.9964L21.2828 72.217L21.1304 75.4467L16.1147 75.2261Z" fill="#5E2458"/>
<path id="Vector_39" d="M36.9408 59.9624L31.9251 59.7418C30.0781 59.6606 28.5128 61.0403 28.4287 62.8237L27.8193 75.7401C27.7352 77.5235 29.1641 79.0349 31.011 79.1162L36.0267 79.3368C37.8737 79.418 39.439 78.0383 39.5231 76.2549L40.1325 63.3384C40.2166 61.5551 38.7877 60.0437 36.9408 59.9624ZM31.7727 62.9707L36.7884 63.1914L36.4838 69.6492L31.4681 69.4286L31.7727 62.9707ZM31.1634 75.8872L31.3157 72.6575L36.3314 72.8782L36.1791 76.1078L31.1634 75.8872Z" fill="#5E2458"/>
<path id="Vector_40" d="M64.2274 49.838L63.9989 54.6818C63.9148 56.4651 65.3437 57.9766 67.1906 58.0578L72.2063 58.2784C74.0533 58.3596 75.6186 56.9799 75.7027 55.1966L76.312 42.2808C76.3962 40.4975 74.9672 38.986 73.1203 38.9048L68.1046 38.6842C66.2577 38.603 64.6924 39.9827 64.6082 41.766L64.2274 49.838ZM67.343 54.8289L67.4953 51.5999L72.511 51.8205L72.3587 55.0495L67.343 54.8289ZM67.9523 41.9131L72.968 42.1337L72.6633 48.5916L67.6476 48.371L67.9523 41.9131Z" fill="#5E2458"/>
<path id="Vector_41" d="M82.2392 58.7199L87.2549 58.9405C89.1018 59.0217 90.6671 57.642 90.7512 55.8587L91.3606 42.9429C91.4447 41.1596 90.0158 39.6482 88.1688 39.5669L83.1531 39.3463C81.3062 39.2651 79.7409 40.6448 79.6568 42.4282L79.0474 55.3439C78.9633 57.1272 80.3922 58.6387 82.2392 58.7199ZM82.3915 55.491L82.5438 52.262L87.5595 52.4826L87.4072 55.7116L82.3915 55.491ZM83.0008 42.5752L88.0165 42.7958L87.7118 49.2537L82.6961 49.0331L83.0008 42.5752Z" fill="#5E2458"/>
<path id="Vector_42" d="M72.0539 61.5073L67.0382 61.2867C65.1913 61.2055 63.626 62.5852 63.5418 64.3686L62.9325 77.285C62.8483 79.0684 64.2773 80.5798 66.1242 80.6611L71.1399 80.8817C72.9868 80.9629 74.5522 79.5832 74.6363 77.7998L75.2456 64.8834C75.3298 63.1 73.9008 61.5886 72.0539 61.5073ZM66.8859 64.5157L71.9016 64.7363L71.5969 71.1941L66.5812 70.9735L66.8859 64.5157ZM66.2765 77.4321L66.4289 74.2025L71.4446 74.4231L71.2922 77.6527L66.2765 77.4321Z" fill="#5E2458"/>
<path id="Vector_43" d="M81.1728 81.3232L86.1886 81.5438C88.0355 81.625 89.6008 80.2453 89.685 78.4619L90.2943 65.5455C90.3784 63.7621 88.9495 62.2507 87.1026 62.1695L82.0869 61.9488C80.2399 61.8676 78.6746 63.2473 78.5905 65.0307L77.9811 77.9472C77.897 79.7305 79.3259 81.2419 81.1728 81.3232ZM81.3252 78.0942L81.4775 74.8646L86.4933 75.0852L86.3409 78.3149L81.3252 78.0942ZM81.9345 65.1778L86.9502 65.3984L86.6456 71.8563L81.6299 71.6356L81.9345 65.1778Z" fill="#5E2458"/>
<path id="Vector_44" d="M54.5717 76.9213C54.5296 77.8134 53.7469 78.5032 52.8239 78.4626C51.9 78.422 51.1855 77.6663 51.2276 76.7742C51.2697 75.8829 52.0523 75.1931 52.9762 75.2337C53.8993 75.2743 54.6137 76.03 54.5717 76.9213Z" fill="#5E2458"/>
<path id="Vector_45" d="M99.0868 92.2672L99.2603 88.5897C99.3445 86.8064 97.9155 85.2949 96.0686 85.2137L98.4298 35.1641L99.6338 35.2171C100.663 35.2624 101.656 34.8469 102.326 34.0921C102.997 33.3373 103.27 32.3258 103.067 31.3511L99.6485 15.0226C99.349 13.5653 98.0573 12.4946 96.5202 12.4307L64.0823 11.0039L57.0585 3.54906C55.7881 2.26973 53.7016 2.17796 52.3161 3.34047L44.6065 10.1473L27.5976 9.39918L27.7499 6.17025C27.8762 3.49487 25.7327 1.22771 22.9627 1.10587L21.2903 1.03231C18.5203 0.910471 16.1723 2.98008 16.0461 5.65546L15.8938 8.8844L12.1815 8.72112C10.6448 8.64834 9.25609 9.60186 8.8222 11.0277L3.88066 26.9885C3.58643 27.9413 3.76328 28.9725 4.36011 29.7831C4.95618 30.5936 5.90586 31.0945 6.93534 31.1398L8.13932 31.1927L5.77814 81.2423C3.93121 81.1611 2.36587 82.5408 2.28174 84.3242L2.10825 88.0017C1.04949 88.5283 0.362674 89.5601 0.304665 90.7085L0.152333 93.9374C0.0682009 95.7207 1.49714 97.2322 3.34407 97.3134L96.9794 101.432C98.8263 101.513 100.392 100.133 100.476 98.3501L100.628 95.1211C100.678 93.9725 100.092 92.8846 99.0868 92.2672ZM96.3694 15.6597L99.7876 31.9882L83.9185 31.2902C83.4707 31.2698 83.0496 31.0765 82.7511 30.7538L67.2809 14.3803L96.3694 15.6597ZM19.3902 5.80255C19.4322 4.91051 20.2149 4.22064 21.138 4.26124L22.8104 4.3348C23.7335 4.3754 24.448 5.13112 24.4059 6.02316L23.8727 17.3241L18.857 17.1034L19.3902 5.80255ZM7.08614 27.9108L12.0292 11.95L15.7414 12.1133L15.513 16.9564C15.4288 18.7397 16.8578 20.2511 18.7047 20.3324L23.7204 20.553C25.5673 20.6342 27.1327 19.2545 27.2168 17.4711L27.4453 12.6281L41.1131 13.2293L24.1722 28.1772C23.843 28.4731 23.4046 28.6286 22.9553 28.6088L7.08614 27.9108ZM11.4834 31.3398L22.803 31.8377C24.1385 31.8987 25.4441 31.4407 26.4287 30.5671L46.35 12.9901L46.363 12.9744L54.5794 5.73214L80.2719 32.9383C81.1709 33.8955 82.4295 34.4641 83.7661 34.5192L95.0857 35.017L92.7245 85.0666L59.2839 83.5957L59.9694 69.0652C60.1798 64.6064 56.6067 60.8278 51.9897 60.6247C47.3728 60.4217 43.4587 63.871 43.2483 68.3297L42.5628 82.8603L9.1222 81.3894L11.4834 31.3398ZM46.5163 70.0909L56.5492 70.5322L55.9398 83.4486L45.9069 83.0073L46.5163 70.0909ZM46.9548 66.8745C47.7542 64.9694 49.7104 63.7579 51.8375 63.8514C53.9646 63.945 55.7986 65.3232 56.4153 67.2907L46.9548 66.8745ZM5.6258 84.4712L95.9163 88.4426L95.7639 91.6715L5.47347 87.7002L5.6258 84.4712ZM3.4964 94.0845L3.64873 90.8555L97.284 94.974L97.1317 98.203L3.4964 94.0845Z" fill="#5E2458"/>
<path id="Vector_46" d="M57.92 41.4722L47.8871 41.0309C46.0402 40.9496 44.4748 42.3294 44.3907 44.1127L43.9337 53.7995C43.8496 55.5829 45.2785 57.0943 47.1254 57.1755L57.1584 57.6168C59.0053 57.6981 60.5706 56.3183 60.6548 54.535L61.1118 44.8482C61.1959 43.0648 59.767 41.5534 57.92 41.4722ZM47.7348 44.2598L57.7677 44.7011L57.6154 47.93L47.5824 47.4887L47.7348 44.2598ZM47.2778 53.9466L47.4301 50.7177L57.463 51.159L57.3107 54.3879L47.2778 53.9466Z" fill="#5E2458"/>
</g>
</g>
<defs>
<clipPath id="clip0">
<rect width="100.42" height="96.9772" fill="white" transform="matrix(0.999034 0.0439419 -0.0471245 0.998889 4.57001 0.296875)"/>
</clipPath>
</defs>
</svg>
