<svg xmlns="http://www.w3.org/2000/svg" fill="none" viewBox="0 0 107 116">
  <defs/>
  <g id="creche">
    <circle id="Ellipse 18" cx="49.3" cy="70.1" r="43.5" fill="#65BBFE" stroke="#F1F8F3" stroke-width ="3"/>
    <g id="creche_2" clip-path="url(#clip0)">
      <path id="Vector" fill="#C52828" d="M101 35.2L8 31c-.5 0-1-.3-1.3-.7-.3-.4-.4-1-.2-1.4l5-16.5c.2-.7.8-1.2 1.5-1.2L97.8 15c.8 0 1.4.6 1.6 1.4l3.4 16.8c.1.5 0 1-.4 1.4-.3.4-.8.6-1.3.6z"/>
      <path id="Vector_2" fill="#F44335" d="M95.6 35L8 31c-.5 0-1-.3-1.3-.7-.3-.4-.4-1-.2-1.4l5-16.5c.2-.7.8-1.2 1.5-1.2l79.3 3.6c.8 0 1.4.6 1.6 1.3L97.3 33c.1.5 0 1-.4 1.4-.3.4-.8.6-1.3.6z"/>
      <path id="Vector_3" fill="#FFB301" d="M98.8 35.1l-2.6 56.6-87.3-4 2.6-56.5 13 .5c1 0 1.9-.2 2.5-.8l6.7-6.1 15-13.7 4.9-4.3 1.7-1.5c.7-.7 1.7-.6 2.4 0l5.9 6.5 1.6 1.8 1 1 11.1 12.2 6.1 6.6c.6.7 1.5 1 2.4 1.1l13 .6z"/>
      <path id="Vector_4" fill="#FDD834" d="M93.2 34.8l-2.6 56.6-81.7-3.6 2.6-56.6 13 .5c1 0 1.9-.2 2.5-.8l6.7-6.1 15-13.7 4.9-4.3 4.3 4.8 1.6 1.7 1 1 11.2 12.2 6 6.7c.7.6 1.5 1 2.4 1l13 .6z"/>
      <path id="Vector_5" fill="#C52828" d="M53.1 64.7a6.7 6.7 0 00-7 6.4l-.8 18 13.4.5.8-18a6.7 6.7 0 00-6.4-6.9z"/>
      <path id="Vector_6" fill="#C52828" d="M46 71l13.5.7-.8 18-13.4-.7.8-18z"/>
      <path id="Vector_7" fill="#F44335" d="M46 71l8.5.5-.9 18-8.3-.5.8-18z"/>
      <g id="Group" fill="#0377BC">
        <path id="Vector_8" d="M24 40l-5-.2c-1 0-1.8.7-1.8 1.6l-.6 13.3c0 1 .6 1.7 1.6 1.8l5 .2c1 0 1.7-.7 1.7-1.6l.7-13.3c0-1-.7-1.7-1.6-1.7z"/>
        <path id="Vector_9" d="M39 40.7l-5-.2c-.9 0-1.7.7-1.7 1.6l-.6 13.3c0 1 .6 1.7 1.6 1.8l5 .2c1 0 1.7-.7 1.8-1.6l.6-13.3c0-1-.7-1.7-1.6-1.8z"/>
        <path id="Vector_10" d="M22.9 63.4l-5-.3c-1 0-1.8.7-1.8 1.6L15.5 78c0 1 .7 1.7 1.6 1.8l5 .2c1 0 1.7-.7 1.8-1.6l.6-13.3c0-1-.7-1.7-1.6-1.7z"/>
        <path id="Vector_11" d="M38 64l-5-.2c-1 0-1.8.7-1.8 1.6l-.6 13.3c0 1 .7 1.7 1.6 1.8l5 .2c1 0 1.7-.7 1.8-1.6l.6-13.3c0-1-.7-1.7-1.6-1.8z"/>
        <path id="Vector_12" d="M74.3 42.3l-5-.2c-1 0-1.7.7-1.8 1.6L67 57c0 1 .7 1.7 1.6 1.8l5 .2c1 0 1.8-.7 1.8-1.6l.6-13.3c0-1-.7-1.7-1.6-1.8z"/>
        <path id="Vector_13" d="M89.4 43l-5-.2c-1 0-1.7.7-1.8 1.6L82 57.7c0 1 .7 1.7 1.6 1.7l5 .3c1 0 1.8-.7 1.8-1.6l.6-13.3c0-1-.7-1.7-1.6-1.8z"/>
        <path id="Vector_14" d="M73.2 65.6l-5-.2c-1 0-1.7.7-1.8 1.6l-.6 13.3c0 1 .7 1.7 1.6 1.8l5 .2c1 0 1.8-.7 1.8-1.6l.6-13.3c0-1-.6-1.7-1.6-1.8z"/>
        <path id="Vector_15" d="M88.3 66.3l-5-.2c-1 0-1.7.7-1.7 1.6L80.9 81c0 1 .7 1.7 1.6 1.7l5 .3c1 0 1.8-.7 1.8-1.6L90 68c0-1-.6-1.7-1.6-1.8z"/>
        <path id="Vector_16" d="M59 45l-10-.5c-1 0-1.7.7-1.8 1.6l-.4 10c0 1 .6 1.7 1.6 1.7l10 .5c1 0 1.8-.7 1.8-1.6l.5-10c0-.9-.7-1.7-1.6-1.7z"/>
      </g>
      <path id="Vector_17" fill="#37474F" d="M6.7 86l90.6 4c1 .1 1.7 1 1.6 1.8l-.2 5.9-94-4.3.3-5.8c0-1 .8-1.6 1.7-1.6z"/>
      <path id="Vector_18" fill="#607D8B" d="M6.7 86l84 3.8c.9 0 1.6.8 1.5 1.7l-.2 5.9-87.3-4 .3-5.8c0-1 .8-1.6 1.7-1.6z"/>
      <path id="Vector_19" fill="#607D8B" d="M64.8 28.6A10 10 0 0154.3 38a10 10 0 01-9.6-10.4A10 10 0 0155.2 18c5.6.3 9.9 5 9.6 10.5z"/>
      <path id="Vector_20" fill="#CFD8DC" d="M59.8 28.3c.3-5.5-3-10.1-7-10.3-4.3-.2-7.8 4.1-8 9.7-.3 5.5 2.8 10.1 7 10.3 4.2.2 7.8-4.1 8-9.7z"/>
      <path id="Vector_21" fill="#2296F3" d="M16.8 49.7l8.4.4-.3 5c0 1-.8 1.6-1.7 1.6l-5-.2c-1 0-1.7-.8-1.6-1.8l.2-5z"/>
      <path id="Vector_22" fill="#2296F3" d="M31.9 50.4l8.4.4-.2 5c0 1-.9 1.6-1.8 1.6l-5-.2c-1 0-1.7-.9-1.6-1.8l.2-5z"/>
      <path id="Vector_23" fill="#2296F3" d="M15.7 73l8.4.4-.2 5c0 1-.9 1.7-1.8 1.6l-5-.2c-1 0-1.7-.8-1.6-1.8l.2-5z"/>
      <path id="Vector_24" fill="#2296F3" d="M30.8 73.7l8.4.4-.2 5c0 1-.8 1.6-1.8 1.6l-5-.2c-1 0-1.7-.9-1.6-1.8l.2-5z"/>
      <path id="Vector_25" fill="#2296F3" d="M67.1 52l8.4.4-.2 5c0 1-.8 1.6-1.8 1.6l-5-.2c-1 0-1.6-.9-1.6-1.8l.2-5z"/>
      <path id="Vector_26" fill="#2296F3" d="M82.2 52.7l8.4.4-.2 5c0 .9-.8 1.6-1.7 1.6l-5-.3c-1 0-1.7-.8-1.7-1.7l.2-5z"/>
      <path id="Vector_27" fill="#2296F3" d="M66 75.3l8.5.4-.3 5c0 1-.8 1.6-1.7 1.6l-5-.2c-1 0-1.7-.9-1.7-1.8l.3-5z"/>
      <path id="Vector_28" fill="#2296F3" d="M81.2 76l8.4.4-.3 5c0 .9-.8 1.6-1.7 1.6l-5-.3c-1 0-1.7-.8-1.7-1.7l.3-5z"/>
      <path id="Vector_29" fill="#2C2F38" d="M55.8 79.9c0 .9-.9 1.6-1.8 1.6-1 0-1.6-.9-1.6-1.8s.8-1.6 1.8-1.6c.9 0 1.6.9 1.6 1.8z"/>
      <path id="Vector_30" fill="#37474F" d="M4.7 92.6l94 4.2c1 0 1.7.8 1.6 1.8l-.1 3.3c0 1-.9 1.6-1.8 1.6l-94-4.3c-1 0-1.6-.8-1.6-1.7l.2-3.3c0-1 .8-1.7 1.7-1.6z"/>
      <path id="Vector_31" fill="#607D8B" d="M3 92.5l90.7 4.1c1 0 1.6.8 1.6 1.7l-.2 3.4c0 .9-.8 1.6-1.7 1.6L2.7 99.2c-.9 0-1.6-.9-1.6-1.8l.2-3.3c0-1 .8-1.6 1.7-1.6z"/>
      <path id="Vector_32" fill="#2296F3" d="M47 51.1l13.4.6-.2 5c0 1-.8 1.6-1.8 1.6l-10-.5c-1 0-1.7-.8-1.6-1.7l.2-5z"/>
      <path id="Vector_33" fill="#CFD8DC" d="M22.3 3.3H24c1.8.1 3.2 1.7 3.2 3.5l-.6 11.7c0 1-.8 1.6-1.7 1.6l-5-.2c-1 0-1.7-.9-1.7-1.8l.6-11.6c0-1.9 1.6-3.3 3.5-3.2z"/>
      <path id="Vector_34" fill="#5E2458" d="M54.2 39.8a11.7 11.7 0 101-23.3c-6.4-.3-11.9 4.6-12.2 11a11.7 11.7 0 0011.2 12.3zm1-20c4.6.2 8.2 4 8 8.7a8.4 8.4 0 01-8.8 8 8.4 8.4 0 01-8-8.8 8.4 8.4 0 018.8-8z"/>
      <path id="Vector_35" fill="#5E2458" d="M54.7 29.8l3.4.1c.9 0 1.7-.7 1.7-1.6 0-.9-.7-1.7-1.6-1.7h-1.7l.1-1.8c0-.9-.7-1.7-1.6-1.7-1 0-1.7.7-1.7 1.6L53 28c0 1 .7 1.7 1.6 1.8z"/>
      <path id="Vector_36" fill="#5E2458" d="M24 38.4l-5-.2a3.3 3.3 0 00-3.5 3.1l-.6 13.4c-.1 1.8 1.3 3.4 3.2 3.4l5 .3c1.9 0 3.4-1.4 3.5-3.2l.6-13.3c.1-1.9-1.3-3.4-3.2-3.5zm-5.2 3l5 .3-.2 6.7-5-.2.2-6.7zm-.6 13.4l.2-3.3 5 .2-.1 3.3-5-.2z"/>
      <path id="Vector_37" fill="#5E2458" d="M39.1 39l-5-.2a3.3 3.3 0 00-3.5 3.2L30 55.3c-.1 1.9 1.3 3.4 3.2 3.5l5 .3c1.9 0 3.4-1.4 3.5-3.2l.6-13.3c.1-1.9-1.3-3.4-3.2-3.5zM34 42.3l5 .2-.2 6.7-5-.3.2-6.6zm-.6 13.3l.2-3.3 5 .2-.1 3.3-5-.2z"/>
      <path id="Vector_38" fill="#5E2458" d="M23 61.7l-5-.2a3.3 3.3 0 00-3.6 3.2L13.8 78c0 1.8 1.4 3.4 3.2 3.5l5 .2c1.9 0 3.5-1.4 3.6-3.2l.6-13.3c0-1.9-1.4-3.4-3.2-3.5zm-5.2 3.1l5 .2-.3 6.7-5-.2.3-6.7zm-.6 13.3l.1-3.3 5 .2-.1 3.4-5-.3z"/>
      <path id="Vector_39" fill="#5E2458" d="M38 62.4l-5-.2a3.3 3.3 0 00-3.5 3.1L29 78.7c0 1.8 1.4 3.4 3.2 3.4l5 .3c1.9 0 3.5-1.4 3.6-3.2l.6-13.3c0-1.9-1.4-3.4-3.2-3.5zm-5.1 3l5 .3-.3 6.7-5-.3.3-6.6zm-.6 13.4l.1-3.3 5 .2-.1 3.3-5-.2z"/>
      <path id="Vector_40" fill="#5E2458" d="M65.5 52l-.3 5c0 1.8 1.4 3.3 3.2 3.4l5 .2c2 .1 3.5-1.3 3.6-3.1l.6-13.4c0-1.8-1.4-3.3-3.2-3.4l-5-.3a3.3 3.3 0 00-3.6 3.2l-.3 8.3zm3 5l.2-3.2 5 .2v3.3l-5.1-.2zm.7-13.2l5 .2-.3 6.7-5-.3.3-6.6z"/>
      <path id="Vector_41" fill="#5E2458" d="M83.5 61.1l5 .2c2 .1 3.5-1.3 3.6-3.1l.6-13.4c0-1.8-1.4-3.4-3.2-3.5l-5-.2a3.3 3.3 0 00-3.6 3.2l-.6 13.3c0 1.9 1.4 3.4 3.2 3.5zm.2-3.3l.1-3.4 5 .3V58l-5.1-.2zm.6-13.3l5 .2-.3 6.6-5-.2.3-6.6z"/>
      <path id="Vector_42" fill="#5E2458" d="M73.3 64l-5-.3a3.3 3.3 0 00-3.5 3.2l-.6 13.3c-.1 1.9 1.3 3.4 3.2 3.5l5 .3c1.9 0 3.4-1.4 3.5-3.2l.6-13.3c.1-1.9-1.3-3.4-3.2-3.5zm-5.2 3l5 .3L73 74l-5-.3.2-6.6zm-.6 13.4l.2-3.3 5 .2-.1 3.3-5-.2z"/>
      <path id="Vector_43" fill="#5E2458" d="M82.5 84.4l5 .2c1.9.1 3.4-1.3 3.5-3.1l.6-13.4c.1-1.8-1.3-3.4-3.2-3.4l-5-.3a3.3 3.3 0 00-3.5 3.2L79.3 81c-.1 1.9 1.3 3.4 3.2 3.5zm.1-3.3l.2-3.3 5 .2-.1 3.3-5-.2zm.6-13.3l5 .2-.2 6.6-5-.2.2-6.6z"/>
      <path id="Vector_44" fill="#5E2458" d="M55.8 79.9c0 .9-.9 1.6-1.8 1.6-1 0-1.6-.9-1.6-1.8s.8-1.6 1.8-1.6c.9 0 1.6.9 1.6 1.8z"/>
      <path id="Vector_45" fill="#5E2458" d="M100.5 95.7l.1-3.8c.1-1.8-1.3-3.4-3.2-3.5l2.4-51.6h1.2c1 .1 2-.3 2.7-1.1.7-.8 1-1.8.7-2.8L101 16a3.3 3.3 0 00-3.1-2.6l-32.6-1.5-7-7.7a3.5 3.5 0 00-4.8-.2l-7.7 7-17.1-.8.1-3.3A5 5 0 0024 1.7h-1.6A5 5 0 0017 6.3l-.2 3.3-3.7-.2c-1.5 0-3 1-3.4 2.4l-5 16.5c-.2 1 0 2 .6 2.9.6.8 1.5 1.3 2.5 1.4h1.3L6.8 84.3a3.3 3.3 0 00-3.5 3.2L3 91.3c-1 .5-1.8 1.6-1.8 2.8L1 97.4c0 1.9 1.4 3.4 3.2 3.5l94 4.2c1.9.1 3.5-1.3 3.5-3.1l.2-3.4c0-1.1-.5-2.3-1.5-2.9zm-2.8-79l3.5 16.8-16-.7c-.4 0-.8-.2-1.1-.5l-15.6-17 29.2 1.4zM20.4 6.5c0-.9.9-1.6 1.8-1.6l1.7.1c1 0 1.6.8 1.6 1.8l-.6 11.6-5-.2.5-11.7zM8.1 29.3l5-16.4 3.7.1-.2 5c-.1 1.9 1.3 3.4 3.2 3.5l5 .2c1.8.1 3.4-1.3 3.5-3.1l.2-5 13.8.6-17 15.4c-.4.3-.8.5-1.3.4l-15.9-.7zm4.4 3.6l11.4.5a5 5 0 003.6-1.3l20-18.2 8.3-7.4 25.8 28a5 5 0 003.5 1.6l11.3.6-2.3 51.6-33.6-1.5.7-15a8.4 8.4 0 00-8-8.7 8.4 8.4 0 00-8.8 8L43.7 86l-33.6-1.5 2.4-51.6zm35.2 40l10 .4-.6 13.3-10-.5.6-13.3zm.4-3.4a5 5 0 019.5.4l-9.5-.4zM6.6 87.7l90.7 4-.2 3.4L6.5 91l.1-3.3zm-2.1 9.9l.1-3.4 94 4.3-.1 3.3-94-4.2z"/>
      <path id="Vector_46" fill="#5E2458" d="M59.1 43.3l-10-.4a3.3 3.3 0 00-3.6 3.1l-.4 10c-.1 1.9 1.3 3.4 3.2 3.5l10 .5c2 0 3.5-1.4 3.6-3.2l.4-10c.1-1.8-1.3-3.4-3.2-3.5zM49 46.2l10 .4V50l-10.2-.5.2-3.3zm-.5 10l.2-3.4 10 .5v3.3l-10.2-.4z"/>
    </g>
  </g>
  <defs>
    <clipPath id="clip0">
      <path fill="#fff" d="M0 0h100.8v100H0z" transform="rotate(2.6 -16.1 123.8)"/>
    </clipPath>
  </defs>
</svg>