<svg xmlns="http://www.w3.org/2000/svg" fill="none" viewBox="0 0 114 115">
  <defs/>
  <g id="contato">
    <g id="Group 13">
      <circle id="Ellipse 18" cx="55" cy="69.09" r="43.5" fill="#593E8A" stroke="#F1F8F3" stroke-width ="3"/>
    </g>
    <g id="contato_2" clip-path="url(#clip0)">
      <g id="Group">
        <path id="Vector" fill="#FFE7B5" d="M35.37 4.6l-.47 64.72a32.36 32.36 0 00.47-64.71z"/>
        <path id="Vector_2" fill="#FFF7E6" d="M61.63 37.15C61.76 19.28 50 4.71 35.37 4.61a32.36 32.36 0 00-23.96 54.35 15.67 15.67 0 01-8.85 8.99 15.58 15.58 0 0016.5-2.9 32.2 32.2 0 0015.84 4.27c14.64.1 26.6-14.3 26.73-32.17z"/>
        <path id="Vector_3" fill="#FFF7E6" d="M90.67 91.89a32.36 32.36 0 00-23.17-54.7l.23 64.71a32.2 32.2 0 0015.2-4.04A15.57 15.57 0 0099.4 101a15.67 15.67 0 01-8.72-9.11z"/>
        <path id="Vector_4" fill="#fff" d="M93.76 69.74c.13-17.87-11.63-32.44-26.27-32.54a32.36 32.36 0 10-.46 64.7h.7c14.31-.35 25.9-14.58 26.03-32.16z"/>
        <path id="Vector_5" fill="#CC3245" d="M74.68 56.55l-7.56 32.17s17.64-8.06 17.74-21.85a10.25 10.25 0 00-10.18-10.32z"/>
        <path id="Vector_6" fill="#FF3E3A" d="M79 66.83c.04-5.66-1.9-10.27-4.32-10.28a10.22 10.22 0 00-7.35 3.02 10.25 10.25 0 00-17.63 7.05c-.1 13.79 17.42 22.1 17.42 22.1S78.9 80.62 79 66.83z"/>
        <path id="Vector_7" fill="#5E2458" d="M46.9 29.72l-23.43-.17a1.46 1.46 0 10-.02 2.93l23.44.17a1.46 1.46 0 10.02-2.93z"/>
        <path id="Vector_8" fill="#5E2458" d="M29.33 67.3a30.62 30.62 0 01-9.55-3.53 1.46 1.46 0 00-1.71.2 14.11 14.11 0 01-11.6 3.54 17.14 17.14 0 006.31-8.03c.2-.52.08-1.1-.3-1.51a30.77 30.77 0 01-8.23-21.23A30.93 30.93 0 0135.36 6.07a30.86 30.86 0 0130.2 25.52 1.47 1.47 0 002.89-.5A33.8 33.8 0 0035.38 3.14 33.86 33.86 0 001.32 36.72 33.68 33.68 0 009.7 59.25a14.2 14.2 0 01-7.68 7.34A1.47 1.47 0 002 69.3a17.03 17.03 0 0017.24-2.49c2.99 1.6 6.2 2.74 9.54 3.37a1.47 1.47 0 00.55-2.88z"/>
        <path id="Vector_9" fill="#5E2458" d="M23.39 41.27a1.46 1.46 0 10-.02 2.93l16.56.12a1.46 1.46 0 10.02-2.93l-16.56-.12z"/>
        <path id="Vector_10" fill="#5E2458" d="M48.32 37.06c0-.81-.64-1.47-1.45-1.48l-23.44-.17a1.46 1.46 0 10-.02 2.93l23.44.17c.8 0 1.46-.64 1.47-1.45z"/>
        <path id="Vector_11" fill="#5E2458" d="M74.69 55.08c-2.7-.02-5.26.87-7.34 2.52a11.73 11.73 0 00-19.1 9.01c-.06 6.08 3.12 12.07 9.16 17.33a44.28 44.28 0 009.08 6.1 1.47 1.47 0 001.24.01c.19-.08 4.65-2.14 9.17-5.97 6.12-5.17 9.38-11.12 9.42-17.2a11.73 11.73 0 00-11.63-11.8zm-7.56 32c-3.01-1.6-16.04-9.18-15.96-20.45a8.8 8.8 0 0115.1-6.04 1.46 1.46 0 002.1.02 8.8 8.8 0 0115.02 6.26c-.08 11.26-13.22 18.65-16.26 20.21z"/>
        <path id="Vector_12" fill="#5E2458" d="M99.95 99.65a14.2 14.2 0 01-7.58-7.44 33.68 33.68 0 008.71-22.42A33.86 33.86 0 0067.5 35.73a33.86 33.86 0 00-34.06 33.58 33.86 33.86 0 0049.3 30.32 17.03 17.03 0 0017.2 2.73 1.47 1.47 0 00.01-2.71zm-6.42.98a14.12 14.12 0 01-9.59-3.84 1.46 1.46 0 00-1.71-.21 30.9 30.9 0 01-45.86-27.25 30.93 30.93 0 0131.11-30.67 30.93 30.93 0 0130.67 31.11c-.06 7.9-3.09 15.4-8.54 21.1-.39.41-.51 1-.32 1.52 1.2 3.3 3.38 6.13 6.2 8.12-.64.09-1.3.13-1.96.12z"/>
      </g>
    </g>
  </g>
  <defs>
    <clipPath id="clip0">
      <path fill="#fff" d="M0 0h100v100H0z" transform="rotate(.41 -401.44 218.06)"/>
    </clipPath>
  </defs>
</svg>