<svg xmlns="http://www.w3.org/2000/svg" fill="none" viewBox="0 0 132 75">
  <g clip-path="url(#a)">
    <path fill="hsl(44deg 100% 56%)" d="M24 0a15 15 0 1 0 0 30 15 15 0 0 0 0-30Zm42 0a18 18 0 1 0 0 36 18 18 0 0 0 0-36ZM43.4 40.2A9 9 0 0 0 39 39H9c-5 0-9 4-9 9v1.8C0 58.8 10.5 66 24 66c3.8 0 7.4-.6 10.5-1.6-1-2.3-1.5-4.8-1.5-7.4v-1.5c0-7 4.4-13 10.4-15.3ZM108 0a15 15 0 1 0 0 30 15 15 0 0 0 0-30Zm15 39H93a9 9 0 0 0-4.4 1.2c6 2.4 10.4 8.3 10.4 15.3V57c0 2.6-.5 5.1-1.5 7.4 3.2 1 6.7 1.6 10.5 1.6 13.5 0 24-7.1 24-16.2V48c0-5-4-9-9-9ZM66 75c-15.1 0-27-8-27-18v-1.5C39 49.7 43.7 45 49.5 45h33C88.3 45 93 49.7 93 55.5V57c0 10-11.9 18-27 18Z"/>
  </g>
  <defs>
    <clipPath id="a">
      <path fill="#fff" d="M0 0h132v75H0z"/>
    </clipPath>
  </defs>
</svg>