<svg xmlns="http://www.w3.org/2000/svg" fill="none" viewBox="0 0 104 115">
  <g id="sonho">
    <g id="Group 13">
      <circle id="Ellipse 18" cx="45" cy="69.1" r="43.5" fill="#FED774" stroke="#F1F8F3" stroke-width ="3"/>
    </g>
    <g id="globo" clip-path="url(#clip0)">
      <g id="Group">
        <path id="Vector" fill="#65BBFE" d="M85 59.5A41.4 41.4 0 0148.3 105a41 41 0 01-31.3-10.7 40.6 40.6 0 0122.8-71.5c7.8-.8 15.3.2 21.9 3.3 12.6 6 22 18.4 23.5 33.4z"/>
        <path id="Vector (Stroke)" fill="#5E2458" fill-rule="evenodd" d="M17 94.3l1.6-1.9c7.9 7 18.2 11.2 29.3 10.1a39.1 39.1 0 0012.6-74.1l1-2.1-1 2c-6.1-2.8-13-3.8-20.5-3a38.2 38.2 0 00-21.4 67.1l-1.7 1.9zM48.1 105A41.6 41.6 0 0061.6 26c-6.6-3.1-14-4-21.9-3.3A40.6 40.6 0 0017 94.3 41 41 0 0048.2 105z" clip-rule="evenodd"/>
        <path id="Vector_2" fill="#90DA32" d="M63.5 35a5.8 5.8 0 00-2-8.9 41 41 0 00-48.2 9.6c-.4.4-.6 1-.6 1.7.2 2 .8 1.7 2 .1 2.5-3 8.7-2.3 11.6 0 4 3.3 9 4.8 14 4.3l4.3-.4c3.7-.4 7 2.3 7.3 6v.4c.2 1.8-.3 3.5-1.4 5a6.7 6.7 0 001 9.4c4 3.3 10 2.7 13.3-1.4l4.8-6c2-2.4 1.7-6-.8-8L64.4 43a5.8 5.8 0 01-.9-8.1z"/>
        <path id="Vector (Stroke)_2" fill="#5E2458" fill-rule="evenodd" d="M64.8 60.8l4.8-6c2-2.4 1.7-6-.8-8L64.4 43a5.8 5.8 0 01-.9-8.1 5.8 5.8 0 00-2-8.9A41 41 0 0013 36.3l-.2 1c.2 2 .8 1.8 2 .2.2 0 .2-.2.3-.2a4 4 0 01.8-.7c2.8-1.8 8-1.1 10.5 1 4 3.2 9 4.7 14 4.2l4.3-.4c3.7-.4 7 2.3 7.3 6v.4c.2 1.8-.3 3.5-1.4 5a6.7 6.7 0 001 9.4c4 3.3 10 2.7 13.3-1.4zM19.7 33.1h.7c2.7 0 5.5 1 7.5 2.5 3.4 2.8 7.8 4.2 12.2 3.7l4.2-.4c5-.5 9.6 3.2 10 8.2l.1.4c.3 2.5-.4 4.9-2 6.8a4.2 4.2 0 00.6 6 7 7 0 009.9-1l4.8-6c1.1-1.4 1-3.5-.5-4.6L62.8 45a8.3 8.3 0 01-1.2-11.7c1.4-1.7.8-4.1-1.1-5A38.6 38.6 0 0019.7 33z" clip-rule="evenodd"/>
        <path id="Vector_3" fill="#90DA32" d="M35.3 78.7c-3.7.4-6-4-3.7-6.8 1.7-2 1.4-5-.7-6.7-2-1.7-5-1.4-6.6.7l-1.4 1.6a3.8 3.8 0 01-5.3.6 10.8 10.8 0 01-4-7.3c-.2-3-3-5.3-6-5a5.5 5.5 0 00-5 5.2 41.5 41.5 0 0050 43.3c2-.4 2.7-3 1.2-4.2-1-.8-1.2-2.3-.4-3.3a7.8 7.8 0 00-1.1-10.9l-4-3.3c-3.7-3-8.3-4.4-13-4z"/>
        <path id="Vector (Stroke)_3" fill="#5E2458" fill-rule="evenodd" d="M52 101.9a4.9 4.9 0 01-.5-6.7 5.3 5.3 0 00-.8-7.4l-4-3.3a15.2 15.2 0 00-11.2-3.3 6.7 6.7 0 01-5.8-10.9c.8-1 .6-2.4-.3-3.2-1-.8-2.4-.6-3.2.3L25 69.1a6.3 6.3 0 01-8.9.9 13.3 13.3 0 01-4.8-9A3 3 0 008 58.3 3 3 0 005 61.1m43.2 21.5l4 3.3a7.8 7.8 0 011.1 10.9c-.8 1-.7 2.5.4 3.3 1.5 1.3.9 3.8-1 4.2l-4.7.7A41.5 41.5 0 012.7 61a5.5 5.5 0 0111-.2c.3 2.8 1.7 5.5 3.9 7.3 1.6 1.3 4 1 5.3-.6l1.4-1.6c1.6-2 4.6-2.4 6.6-.7s2.4 4.6.7 6.7a4.2 4.2 0 003.7 6.8c4.7-.5 9.3 1 13 4zM52 102A39 39 0 015 61" clip-rule="evenodd"/>
        <path id="Vector_4" fill="#90DA32" d="M67 65.1a5.4 5.4 0 00.9 7.6l1.6 1.4c1.1.9 1.3 2.6.4 3.7a2.7 2.7 0 002.3 4.4 7.7 7.7 0 006.9-8.4c-.4-3.1-1.6-6-3.5-8.5l-.1-.2a5.4 5.4 0 00-8.4 0z"/>
        <path id="Vector (Stroke)_4" fill="#5E2458" fill-rule="evenodd" d="M75.6 65.3l-.1-.2a5.4 5.4 0 00-8.4 0 5.4 5.4 0 00.8 7.6l1.6 1.4c1.1.9 1.3 2.6.4 3.7a2.7 2.7 0 002.3 4.4 7.7 7.7 0 006.9-8.4c-.4-3.1-1.6-6-3.5-8.5zM69 66.7a2.9 2.9 0 014.5 0l.2.2c1.6 2 2.6 4.5 2.9 7.1a5.2 5.2 0 01-4.7 5.7h-.1v-.2a5.2 5.2 0 00-.7-7.4l-1.7-1.3a3 3 0 01-.4-4.1z" clip-rule="evenodd"/>
      </g>
      <g id="Group_2">
        <g id="Group_3">
          <g id="Group_4">
            <path id="Vector_5" fill="#F43954" d="M11.2 30.5A6.8 6.8 0 0010 17a6.8 6.8 0 001.3 13.5z"/>
            <path id="Vector (Stroke)_5" fill="#5E2458" fill-rule="evenodd" d="M10 18.2a5.6 5.6 0 001.1 11.2 5.6 5.6 0 00-1-11.2zm-7.3 6.4A7.9 7.9 0 1118.4 23a7.9 7.9 0 11-15.7 1.6z" clip-rule="evenodd"/>
          </g>
          <g id="Group_5">
            <path id="Vector_6" fill="#F43954" d="M26.4 29.7c1.6-1 2-3.2 1-4.8-1-1.6-3-2-4.7-1l-17 11c-1.6 1.1-2 3.2-1 4.8 1 1.6 3 2 4.7 1l3.3-2.1.4.7a15 15 0 012.3 7l.5 6.2a3.5 3.5 0 003.5 3.2c2 0 3.4-1.7 3.3-3.7l-.8-10.5 9.3 5c1.7 1 3.8.3 4.7-1.4.8-1.7.1-3.7-1.5-4.6l-5.4-3a15 15 0 01-5.4-5l-.5-.7 3.3-2.1z"/>
            <path id="Vector (Stroke)_6" fill="#5E2458" fill-rule="evenodd" d="M22.1 23c2.1-1.4 5-.8 6.3 1.3 1.4 2.1.8 5-1.4 6.3l-2.3 1.5c1.2 1.9 2.9 3.4 4.8 4.4l5.4 3c2.2 1.1 3.1 3.8 2 6a4.5 4.5 0 01-6.3 2l-7.4-4 .6 8.5a4.6 4.6 0 01-4.3 4.9 4.6 4.6 0 01-4.7-4.3l-.5-6.2c-.2-2.2-.8-4.4-2-6.2L10 41.7c-2.1 1.4-5 .8-6.3-1.4-1.4-2-.8-5 1.3-6.3l17.1-11zm4.4 2.5c-.7-1-2-1.3-3.2-.7L6.3 36c-1 .7-1.4 2.1-.7 3.2m21-13.6c.6 1.1.3 2.5-.8 3.2l-4.2 2.8 1 1.6a16 16 0 005.8 5.4l5.5 3c1 .6 1.5 2 1 3-.6 1.2-2 1.7-3.2 1l-11-6 .9 12.6c0 1.3-1 2.4-2.2 2.5-1.2 0-2.3-1-2.4-2.2l-.4-6.2c-.2-2.7-1.1-5.3-2.6-7.6L13 37l-4.2 2.8c-1.1.7-2.5.4-3.2-.7" clip-rule="evenodd"/>
          </g>
        </g>
        <g id="Group_6">
          <g id="Group_7">
            <path id="Vector_7" fill="#269EF8" d="M70.3 24.5A6.8 6.8 0 0069 11a6.8 6.8 0 001.3 13.5z"/>
            <path id="Vector (Stroke)_7" fill="#5E2458" fill-rule="evenodd" d="M69.1 12.2a5.6 5.6 0 001.1 11.2 5.6 5.6 0 00-1-11.2zm-7.3 6.4A7.9 7.9 0 1177.5 17a7.9 7.9 0 11-15.7 1.6z" clip-rule="evenodd"/>
          </g>
          <g id="Group_8">
            <path id="Vector_8" fill="#269EF8" d="M55.3 26.8a3.4 3.4 0 012.5-6.4l19 7.3a3.4 3.4 0 01-2.6 6.4l-3.6-1.4-.3.8a15 15 0 00-1 7.3l.9 6.2c.2 1.8-1 3.6-2.9 3.9-2 .3-3.7-1-4-3l-1.2-10.5-8.1 6.8a3.4 3.4 0 01-4.9-.4 3.5 3.5 0 01.5-4.9l4.8-4a15 15 0 004.3-6l.3-.7-3.7-1.4z"/>
            <path id="Vector (Stroke)_8" fill="#5E2458" fill-rule="evenodd" d="M57.4 21.4c-1.2-.5-2.5.1-3 1.3-.4 1.2.1 2.5 1.3 3l4.7 1.8-.7 1.8c-1 2.5-2.5 4.8-4.6 6.5l-4.7 4c-1 .8-1.2 2.3-.4 3.3.8 1 2.3 1.1 3.3.3l9.6-8.2 1.6 12.6a2.3 2.3 0 002.6 2c1.2-.2 2.1-1.4 2-2.7l-.8-6.1c-.4-2.7 0-5.4 1-8l.6-1.8 4.7 1.9c1.2.4 2.5-.1 3-1.3s-.1-2.5-1.3-3l-19-7.4zm.1 7.4l.1-.3.3-.7 1 .4-.2.7-.1.3-1.1-.4zm3.7 10.8l-6.5 5.5a4.5 4.5 0 01-6.5-.6c-1.5-2-1.2-4.8.7-6.4l4.7-4a14 14 0 003.9-5.3l-2.6-1a4.6 4.6 0 013.3-8.5l19 7.4a4.6 4.6 0 01-3.4 8.5l-2.6-1c-.7 2-1 4.3-.7 6.5l.8 6.1a4.5 4.5 0 11-9 1.2l-1.1-8.4z" clip-rule="evenodd"/>
          </g>
        </g>
        <g id="Group_9">
          <g id="Group_10">
            <path id="Vector_9" fill="#FED774" d="M40 20.4A6.8 6.8 0 0038.8 7a6.8 6.8 0 001.4 13.4z"/>
            <path id="Vector (Stroke)_9" fill="#5E2458" fill-rule="evenodd" d="M38.9 8.1a5.6 5.6 0 001 11.2 5.6 5.6 0 00-1-11.2zm-7.3 6.4a7.9 7.9 0 1115.7-1.6 7.9 7.9 0 11-15.7 1.6z" clip-rule="evenodd"/>
          </g>
          <g id="Group_11">
            <path id="Vector_10" fill="#FED774" d="M50.1 26.3a3.4 3.4 0 00-.6-6.8l-18.8 1.9a3.4 3.4 0 00.7 6.8l3.2-.3v.8c.3 2.5 0 5-1 7.3L31 41.7c-.7 1.7 0 3.8 1.7 4.5 1.8.8 3.9 0 4.6-1.8l4.1-9.7 6 8.7c1 1.6 3.2 2 4.8.9a3.5 3.5 0 00.8-4.8l-3.5-5.1a15 15 0 01-2.5-7l-.1-.8 3.1-.3z"/>
            <path id="Vector (Stroke)_10" fill="#5E2458" fill-rule="evenodd" d="M26.5 25.3a4.6 4.6 0 014.1-5l18.8-2a4.6 4.6 0 01.9 9l-2 .3c.2 2.2 1 4.3 2.2 6.1l3.5 5.1c1.4 2 1 4.9-1 6.4-2.1 1.5-5 1-6.5-1.1l-4.7-7-3.3 7.8a4.5 4.5 0 01-6.1 2.4 4.6 4.6 0 01-2.3-6l2.4-5.7a14 14 0 001-6.5l-2 .2a4.5 4.5 0 01-5-4zm4.3-2.8a2.3 2.3 0 00.5 4.6l4.3-.5.2 2c.2 2.6-.2 5.4-1.2 7.8l-2.4 5.8c-.5 1.1 0 2.5 1.1 3 1.2.5 2.6 0 3-1.2l5-11.6 7 10.4c.8 1 2.3 1.3 3.3.5 1-.7 1.3-2.1.5-3.2l-3.4-5a16.2 16.2 0 01-2.8-7.6l-.2-1.9 4.3-.4a2.3 2.3 0 00-.4-4.6l-18.8 1.9z" clip-rule="evenodd"/>
          </g>
        </g>
      </g>
    </g>
  </g>
  <defs>
    <clipPath id="clip0">
      <path fill="#fff" d="M0 0h84v101H0z" transform="translate(2 4.6)"/>
    </clipPath>
  </defs>
</svg>