<svg xmlns="http://www.w3.org/2000/svg" fill="none" viewBox="0 0 114 138">
  <path fill="#FFC420" d="M78 18c-5.4 0-8.3-2-10.7-3.5-2-1.4-3.7-2.5-7.3-2.5a3 3 0 0 1-3-3V3a3 3 0 0 1 3-3c5.4 0 8.3 2 10.7 3.5C72.7 4.9 74.4 6 78 6a3 3 0 0 1 3 3v6a3 3 0 0 1-3 3Zm19.5 51H93V57c0-1.2-.5-2.3-1.3-3.2L60.2 22.3a4.5 4.5 0 0 0-6.4 0L22.3 53.8c-.8.9-1.3 2-1.3 3.2v12h-4.5C7.4 69 0 76.4 0 85.5v48c0 2.5 2 4.5 4.5 4.5h33c2.5 0 4.5-2 4.5-4.5v-15.9c0-7.8 5.7-14.8 13.5-15.5A15 15 0 0 1 72 117v16.5c0 2.5 2 4.5 4.5 4.5h33c2.5 0 4.5-2 4.5-4.5v-48c0-9.1-7.4-16.5-16.5-16.5ZM30 117a3 3 0 0 1-3 3h-6a3 3 0 0 1-3-3v-6a3 3 0 0 1 3-3h6a3 3 0 0 1 3 3v6Zm0-21a3 3 0 0 1-3 3h-6a3 3 0 0 1-3-3v-6a3 3 0 0 1 3-3h6a3 3 0 0 1 3 3v6Zm27-18a12 12 0 1 1 0-24 12 12 0 0 1 0 24Zm42 39a3 3 0 0 1-3 3h-6a3 3 0 0 1-3-3v-6a3 3 0 0 1 3-3h6a3 3 0 0 1 3 3v6Zm0-21a3 3 0 0 1-3 3h-6a3 3 0 0 1-3-3v-6a3 3 0 0 1 3-3h6a3 3 0 0 1 3 3v6Z"/>
</svg>