<?xml version="1.0" encoding="utf-8"?>
<svg xmlns="http://www.w3.org/2000/svg" viewBox="0 0 48 48" width="144" height="144">
  <path d="M31 6c-1.803 0-2.774-.647-3.555-1.168C26.748 4.367 26.197 4 25 4c-.553 0-1-.448-1-1V1c0-.552.447-1 1-1 1.803 0 2.774.647 3.555 1.168C29.252 1.633 29.803 2 31 2c.553 0 1 .448 1 1v2C32 5.552 31.553 6 31 6zM37.5 23H36v-4c0-.398-.158-.779-.439-1.06l-10.5-10.5c-.586-.586-1.535-.586-2.121 0l-10.5 10.5C12.158 18.221 12 18.602 12 19v4h-1.5C7.462 23 5 25.462 5 28.5v16C5 45.328 5.672 46 6.5 46h11c.828 0 1.5-.672 1.5-1.5v-5.285c0-2.611 1.909-4.943 4.509-5.191C26.491 33.739 29 36.077 29 39v5.5c0 .828.672 1.5 1.5 1.5h11c.828 0 1.5-.672 1.5-1.5v-16C43 25.462 40.538 23 37.5 23zM15 39c0 .553-.447 1-1 1h-2c-.553 0-1-.447-1-1v-2c0-.553.447-1 1-1h2c.553 0 1 .447 1 1V39zM15 32c0 .553-.447 1-1 1h-2c-.553 0-1-.447-1-1v-2c0-.553.447-1 1-1h2c.553 0 1 .447 1 1V32zM24 26c-2.209 0-4-1.791-4-4s1.791-4 4-4 4 1.791 4 4S26.209 26 24 26zM38 39c0 .553-.447 1-1 1h-2c-.553 0-1-.447-1-1v-2c0-.553.447-1 1-1h2c.553 0 1 .447 1 1V39zM38 32c0 .553-.447 1-1 1h-2c-.553 0-1-.447-1-1v-2c0-.553.447-1 1-1h2c.553 0 1 .447 1 1V32z" fill="#FFFFFF" />
</svg>