<svg xmlns="http://www.w3.org/2000/svg" fill="none" viewBox="0 0 243 272">
  <path fill="hsl(44deg 100% 56%)" d="M158.25 31.7c-9.5 0-14.61-3.53-18.84-6.17-3.52-2.46-6.51-4.4-12.85-4.4a5.28 5.28 0 0 1-5.28-5.28V5.28A5.28 5.28 0 0 1 126.56 0c9.5 0 14.62 3.52 18.84 6.16 3.52 2.47 6.52 4.4 12.85 4.4a5.28 5.28 0 0 1 5.29 5.29V26.4a5.28 5.28 0 0 1-5.28 5.29Zm34.34 89.8h-7.92v-21.13c0-2.11-.88-4.05-2.3-5.64l-55.46-55.46a7.93 7.93 0 0 0-11.27 0L60.17 94.73a8.48 8.48 0 0 0-2.28 5.64v21.13h-7.93a29.08 29.08 0 0 0-29.05 29.05v84.53a7.9 7.9 0 0 0 7.92 7.92h58.11a7.9 7.9 0 0 0 7.92-7.92v-28c0-13.74 10.04-26.06 23.78-27.3a26.4 26.4 0 0 1 29.05 26.24v29.06a7.9 7.9 0 0 0 7.92 7.92h58.11a7.9 7.9 0 0 0 7.93-7.92v-84.53a29.08 29.08 0 0 0-29.06-29.05ZM73.73 206.02a5.28 5.28 0 0 1-5.28 5.28H57.9a5.28 5.28 0 0 1-5.29-5.28v-10.56a5.28 5.28 0 0 1 5.29-5.29h10.56a5.28 5.28 0 0 1 5.28 5.29v10.56Zm0-36.98a5.28 5.28 0 0 1-5.28 5.29H57.9a5.29 5.29 0 0 1-5.29-5.29v-10.56a5.28 5.28 0 0 1 5.29-5.28h10.56a5.28 5.28 0 0 1 5.28 5.28v10.56Zm47.55-31.7a21.14 21.14 0 1 1 0-42.26 21.14 21.14 0 0 1 0 42.27Zm73.95 68.68a5.28 5.28 0 0 1-5.28 5.28H179.4a5.28 5.28 0 0 1-5.29-5.28v-10.56a5.28 5.28 0 0 1 5.29-5.29h10.56a5.28 5.28 0 0 1 5.28 5.29v10.56Zm0-36.98a5.28 5.28 0 0 1-5.28 5.29H179.4a5.29 5.29 0 0 1-5.29-5.29v-10.56a5.28 5.28 0 0 1 5.29-5.28h10.56a5.28 5.28 0 0 1 5.28 5.28v10.56Z"/>
</svg>