<svg xmlns="http://www.w3.org/2000/svg" fill="none" viewBox="0 0 1920 289">
  <defs/>
  <g id="hills">
    <g id="hill-left" filter="url(#filter0_dd)">
      <g id="tree 2" stroke="#fff" stroke-opacity=".2" stroke-width="2" clip-path="url(#clip0)">
        <path id="Vector" fill="url(#paint0_linear)" d="M254.8 142.8c2.3-1.8 5-6.5 8.2-16.2v-.1c.2-.8 2.9-13-.3-24.9-.3-1.2 1.2-2 2-1l1 4c.7.9 2 .5 2-.6l.6-7c0-.7.6-1.2 1.3-1.1L276 97c.6.1 1 .6 1 1.2l-.4 5c-.1 1 1.1 1.6 1.9 1l4.6-4.3c.6-.6 1.7-.2 1.9.7l.3 2.5c0 .4-.1.9-.5 1-2.7 1.7-11.5 9.2-9.2 28.6v.2c.2.7.6 6.5 5.1 11.5.6.7.3 1.8-.6 2a48 48 0 00-4 .8c-3.5 1-7.9-2.3-9.3-3.5-.3-.2-.8-.3-1.1-.1-1.8.7-7 2.5-9 1.8l-1.6-.7c-.8-.3-1-1.3-.3-1.9z"/>
        <path id="Vector_2" fill="url(#paint1_linear)" d="M306.5 71.1a21.2 21.2 0 10-32.1-27.4 14.7 14.7 0 00-24.5 7.8l-.8-.2a14.8 14.8 0 00-15 20 21.1 21.1 0 0012.3 37.1c8.4.7 16-3.7 20-10.6a16.9 16.9 0 0014 1 21.1 21.1 0 1026.1-27.7z"/>
      </g>
      <g id="tree 1" stroke="#fff" stroke-opacity=".2" stroke-width="2" clip-path="url(#clip1)">
        <path id="Union" fill="url(#paint2_linear)" d="M144.6 98.3l-2.9 32 21.6 1.9 2.9-32a27 27 0 013.8-11.5 18 18 0 013-3.5c1-.9 2-1.6 3.2-2.2a4 4 0 00-3.4-7.3c-4 2-7.6 5.3-10.2 9.6a31 31 0 00-2.3 4.8l1.4-16.4a4 4 0 00-8.1-.7L152 89.3a31 31 0 00-1.4-5 24.3 24.3 0 00-8.4-11.3 4 4 0 10-4.7 6.6c2.4 1.7 4.3 4.3 5.5 7.5a25 25 0 011.5 11.2z"/>
        <path id="Union_2" fill="url(#paint3_linear)" d="M126 118.9a10.7 10.7 0 00-15.3 6.8c-.2 1-.2 1.8 1 2l81.6 7.1c.7 0 1-.1 1.2-.5v-.2c.2-.3.2-.6.1-1a9.6 9.6 0 00-12-8 18 18 0 00-23.7-9.3 18.4 18.4 0 00-32.8 3z"/>
        <path id="Union_3" fill="url(#paint4_linear)" d="M148.2 70.4a20.8 20.8 0 0019.2 1.7c1.8 6.4 8 11.6 16 13.1h0a24.4 24.4 0 0016.2-2.6c4.5-2.7 7.5-6.9 8-11.8.6-7-4.2-13.4-11.5-16.5.5-3.9-1-7.5-3.5-10.4a19.7 19.7 0 00-15.8-6.4c-2.5-5-8.3-8.7-15.2-9.3-7-.7-13.2 2-16.6 6.5a19.8 19.8 0 00-16 3c-3.4 2.4-5.7 6-5.9 10.2-7.7 1.7-13.6 7.2-14.2 14.2-.8 9.2 7.6 17.4 18.8 18.4 9.2.8 17.4-3.5 20.5-10.1z"/>
      </g>
      <g id="Subtract">
        <mask id="path-6-inside-1" fill="#fff">
          <path d="M-.4 328h751.8v-49.8C660 201.6 314.3 132.8-.4 120.5V328z"/>
        </mask>
        <path fill="url(#paint5_radial)" stroke="#fff" stroke-opacity=".2" stroke-width="6" d="M-.4 328h751.8v-49.8C660 201.6 314.3 132.8-.4 120.5V328z" mask="url(#path-6-inside-1)"/>
      </g>
    </g>
    <g id="hill-right" filter="url(#filter1_dd)">
      <g id="tree 5" stroke="#fff" stroke-opacity=".2" stroke-width="2" clip-path="url(#clip2)">
        <path id="Vector_3" fill="url(#paint6_linear)" d="M1777.7 72.8a22.7 22.7 0 00-17.2-36.5h-.6a21.7 21.7 0 00-38.1 1.7 31.6 31.6 0 00-17.3 51 27.6 27.6 0 0026.4 31.3c1.6 0 8.3 0 9.9-.2l.9-6.8a27.6 27.6 0 0036-40.5z"/>
        <path id="Union_4" fill="url(#paint7_linear)" d="M1742.7 109.8c1.2-.5 2.5.5 2.5 1.9l.5 36.7-11.8-.4 3-37.4H1737.3c1.9 0 3.8-.3 5.5-.8z"/>
      </g>
      <g id="tree 4" stroke="#fff" stroke-opacity=".2" stroke-width="2" clip-path="url(#clip3)">
        <path id="Vector_4" fill="url(#paint8_linear)" d="M1616.7 140.4c1.3-1.3 2.6-4.5 4-11 0 0 0 0 0 0 0-.5.8-8.5-2.1-16-.3-.6.6-1.3 1.2-.7l1 2.5c.4.5 1.2.1 1.2-.6l-.2-4.5c0-.5.3-.8.8-.8l4.1.2c.4 0 .7.3.7.7l.2 3.2c0 .7.8 1 1.3.5l2.6-3a.7.7 0 011.2.2l.5 1.6c0 .2 0 .6-.3.7-1.6 1.3-6.6 6.8-3.7 19 0 0 0 0 0 0 .2.5.9 4.2 4.2 7.1.4.4.3 1-.3 1.3l-2.5.8c-2.1.9-5.2-.8-6.2-1.5a.7.7 0 00-.7 0c-1.1.6-4.3 2.2-5.6 1.9l-1.1-.3a.7.7 0 01-.3-1.3z"/>
        <path id="Vector_5" fill="url(#paint9_linear)" d="M1644.3 90.6a13.6 13.6 0 10-22.7-15.1 9.5 9.5 0 00-15 6.9h-.6a9.5 9.5 0 00-8 13.9 13.6 13.6 0 1022.6 14.5 10.9 10.9 0 009.1-.5 13.6 13.6 0 1014.6-19.7z"/>
      </g>
      <g id="tree 3" stroke="#fff" stroke-opacity=".2" stroke-width="2" clip-path="url(#clip4)">
        <path id="Vector_6" fill="url(#paint10_linear)" d="M1498.6 138.9c-2-2-4.2-7-6.4-17 0 0 0 0 0 0-.1-.8-1.6-13 2.8-24.6.4-1.1-1-2-1.9-1.2l-1.4 3.9c-.7.7-2 .2-2-.8l.3-7.1c0-.7-.6-1.2-1.3-1.2l-6.4.5c-.6 0-1 .5-1 1l-.2 5c0 1-1.3 1.5-2 .8l-4-4.7c-.7-.7-1.8-.4-2 .5l-.6 2.4c-.2.5 0 1 .3 1.2 2.5 1.9 10.5 10.2 6.3 29.2v.1c-.3.7-1.3 6.4-6.3 11-.7.6-.4 1.6.4 1.9l4 1.2c3.3 1.3 8-1.4 9.5-2.4.3-.2.7-.3 1 0 1.8.8 6.8 3.2 8.7 2.7l1.8-.5c.8-.3 1-1.3.4-1.9z"/>
        <path id="Vector_7" fill="url(#paint11_linear)" d="M1454.7 62.6a21 21 0 0117.1-34 21 21 0 0117.5 10.1 14.6 14.6 0 0123.5 10.3c.3 0 .5-.1.8 0a14.7 14.7 0 0112.7 21.2 21 21 0 11-34.6 23 16.8 16.8 0 01-14-.5 21 21 0 11-23-30z"/>
      </g>
      <g id="hill">
        <mask id="path-13-inside-2" fill="#fff">
          <path d="M1920 328V154.1c-602-49.6-1095.8-16.6-1459.2 134V328H1920z"/>
        </mask>
        <path fill="url(#paint12_radial)" stroke="#fff" stroke-opacity=".2" stroke-width="6" d="M1920 328V154.1c-602-49.6-1095.8-16.6-1459.2 134V328H1920z" mask="url(#path-13-inside-2)"/>
      </g>
    </g>
  </g>
  <defs>
    <linearGradient id="paint0_linear" x1="271.9" x2="268.1" y1="96.1" y2="146.9" gradientUnits="userSpaceOnUse">
      <stop stop-color="#9C632A"/>
      <stop offset="1" stop-color="#BB8958"/>
    </linearGradient>
    <linearGradient id="paint1_linear" x1="278.3" x2="272.5" y1="34.2" y2="110.4" gradientUnits="userSpaceOnUse">
      <stop stop-color="#E4FF40"/>
      <stop offset="1" stop-color="#A1D154"/>
    </linearGradient>
    <linearGradient id="paint2_linear" x1="157.2" x2="157.2" y1="69.3" y2="132.2" gradientUnits="userSpaceOnUse">
      <stop stop-color="#9C632A"/>
      <stop offset="1" stop-color="#BB8958"/>
    </linearGradient>
    <linearGradient id="paint3_linear" x1="152.6" x2="152.6" y1="109.8" y2="134.8" gradientUnits="userSpaceOnUse">
      <stop stop-color="#DEFB42"/>
      <stop offset="1" stop-color="#81CA51"/>
    </linearGradient>
    <linearGradient id="paint4_linear" x1="158.2" x2="158.2" y1="28.1" y2="85.7" gradientUnits="userSpaceOnUse">
      <stop stop-color="#84E641"/>
      <stop offset="1" stop-color="#75C142"/>
    </linearGradient>
    <linearGradient id="paint6_linear" x1="1742.1" x2="1738.8" y1="25.8" y2="120.5" gradientUnits="userSpaceOnUse">
      <stop stop-color="#E4FF40"/>
      <stop offset="1" stop-color="#A1D154"/>
    </linearGradient>
    <linearGradient id="paint7_linear" x1="1739.8" x2="1739.8" y1="109.7" y2="148.4" gradientUnits="userSpaceOnUse">
      <stop stop-color="#9C632A"/>
      <stop offset="1" stop-color="#BB8958"/>
    </linearGradient>
    <linearGradient id="paint8_linear" x1="1624.1" x2="1625.5" y1="109.2" y2="142" gradientUnits="userSpaceOnUse">
      <stop stop-color="#9C632A"/>
      <stop offset="1" stop-color="#BB8958"/>
    </linearGradient>
    <linearGradient id="paint9_linear" x1="1623.3" x2="1625.5" y1="69.1" y2="118.3" gradientUnits="userSpaceOnUse">
      <stop stop-color="#84E641"/>
      <stop offset="1" stop-color="#75C142"/>
    </linearGradient>
    <linearGradient id="paint10_linear" x1="1486.4" x2="1485" y1="90.9" y2="141.5" gradientUnits="userSpaceOnUse">
      <stop stop-color="#9C632A"/>
      <stop offset="1" stop-color="#BB8958"/>
    </linearGradient>
    <linearGradient id="paint11_linear" x1="1486.5" x2="1484.4" y1="28.9" y2="105" gradientUnits="userSpaceOnUse">
      <stop stop-color="#E4FF40"/>
      <stop offset="1" stop-color="#A1D154"/>
    </linearGradient>
    <clipPath id="clip0">
      <path fill="#fff" d="M0 0h113.1v113.1H0z" transform="rotate(4.3 -285.7 2955.2)"/>
    </clipPath>
    <clipPath id="clip1">
      <path fill="#fff" d="M0 0h103.5v103.5H0z" transform="rotate(5 -213.8 1265)"/>
    </clipPath>
    <clipPath id="clip2">
      <path fill="#fff" d="M0 0h124.4v124.4H0z" transform="rotate(2 164 48100.9)"/>
    </clipPath>
    <clipPath id="clip3">
      <path fill="#fff" d="M0 0h72.9v72.9H0z" transform="rotate(-2.5 2402.9 -36070.6)"/>
    </clipPath>
    <clipPath id="clip4">
      <path fill="#fff" d="M0 0h112.6v112.6H0z" transform="scale(-1 1) rotate(-1.6 348.5 56706)"/>
    </clipPath>
    <radialGradient id="paint5_radial" cx="0" cy="0" r="1" gradientTransform="matrix(168.0251 -842.33708 1141.41297 227.68322 155.9 946.3)" gradientUnits="userSpaceOnUse">
      <stop offset=".4" stop-color="#19A430"/>
      <stop offset=".8" stop-color="#3EB351"/>
      <stop offset="1" stop-color="#31E14D"/>
    </radialGradient>
    <radialGradient id="paint12_radial" cx="0" cy="0" r="1" gradientTransform="rotate(-100.3 880 -140.8) scale(633.576 3284.25)" gradientUnits="userSpaceOnUse">
      <stop offset=".1" stop-color="#5BB812"/>
      <stop offset=".7" stop-color="#7FD13E"/>
      <stop offset="1" stop-color="#B0EB34"/>
    </radialGradient>
    <filter id="filter0_dd" width="821.8" height="374.5" x="-13.4" y=".6" color-interpolation-filters="sRGB" filterUnits="userSpaceOnUse">
      <feFlood flood-opacity="0" result="BackgroundImageFix"/>
      <feColorMatrix in="SourceAlpha" values="0 0 0 0 0 0 0 0 0 0 0 0 0 0 0 0 0 0 127 0"/>
      <feOffset dx="1" dy="2"/>
      <feGaussianBlur stdDeviation="2"/>
      <feColorMatrix values="0 0 0 0 0 0 0 0 0 0 0 0 0 0 0 0 0 0 0.25 0"/>
      <feBlend in2="BackgroundImageFix" result="effect1_dropShadow"/>
      <feColorMatrix in="SourceAlpha" values="0 0 0 0 0 0 0 0 0 0 0 0 0 0 0 0 0 0 127 0"/>
      <feOffset dx="22" dy="12"/>
      <feGaussianBlur stdDeviation="17.5"/>
      <feColorMatrix values="0 0 0 0 0 0 0 0 0 0 0 0 0 0 0 0 0 0 0.25 0"/>
      <feBlend in2="effect1_dropShadow" result="effect2_dropShadow"/>
      <feBlend in="SourceGraphic" in2="effect2_dropShadow" result="shape"/>
    </filter>
    <filter id="filter1_dd" width="1529.3" height="374.4" x="403.8" y=".6" color-interpolation-filters="sRGB" filterUnits="userSpaceOnUse">
      <feFlood flood-opacity="0" result="BackgroundImageFix"/>
      <feColorMatrix in="SourceAlpha" values="0 0 0 0 0 0 0 0 0 0 0 0 0 0 0 0 0 0 127 0"/>
      <feOffset dx="-1" dy="2"/>
      <feGaussianBlur stdDeviation="2"/>
      <feColorMatrix values="0 0 0 0 0 0 0 0 0 0 0 0 0 0 0 0 0 0 0.25 0"/>
      <feBlend in2="BackgroundImageFix" result="effect1_dropShadow"/>
      <feColorMatrix in="SourceAlpha" values="0 0 0 0 0 0 0 0 0 0 0 0 0 0 0 0 0 0 127 0"/>
      <feOffset dx="-22" dy="12"/>
      <feGaussianBlur stdDeviation="17.5"/>
      <feColorMatrix values="0 0 0 0 0 0 0 0 0 0 0 0 0 0 0 0 0 0 0.25 0"/>
      <feBlend in2="effect1_dropShadow" result="effect2_dropShadow"/>
      <feBlend in="SourceGraphic" in2="effect2_dropShadow" result="shape"/>
    </filter>
  </defs>
</svg>
