<svg xmlns="http://www.w3.org/2000/svg" fill="none" viewBox="0 0 407 187">
  <defs/>
  <g id="logo" filter="url(#filter0_b)">
    <g id="xavier" filter="url(#filter1_ddi)">
      <g id="Xavier">
        <mask id="path-1-outside-1" width="43" height="43" x="320.392" y="122.719" fill="#000" maskUnits="userSpaceOnUse">
          <path fill="#fff" d="M320.392 122.719h43v43h-43z"/>
          <path d="M336.521 144.638c-.27-.606-.539-1.01-.539-2.491 0-3.03 2.222-6.06 5.453-6.06 1.684 0 3.03.337 4.107 1.751l-9.021 6.8zm15.956 3.164c-2.154 1.818-4.511 3.366-8.146 3.366-1.212 0-2.828-.134-3.771-.606l18.044-13.6c-2.895-6.8-9.022-11.243-17.034-11.243-9.964 0-18.178 7.136-18.178 19.188 0 9.695 7.742 17.707 18.649 17.707 6.599 0 11.513-1.548 16.361-5.049l-5.925-9.763z"/>
        </mask>
        <path fill="#11AF98" d="M336.521 144.638c-.27-.606-.539-1.01-.539-2.491 0-3.03 2.222-6.06 5.453-6.06 1.684 0 3.03.337 4.107 1.751l-9.021 6.8zm15.956 3.164c-2.154 1.818-4.511 3.366-8.146 3.366-1.212 0-2.828-.134-3.771-.606l18.044-13.6c-2.895-6.8-9.022-11.243-17.034-11.243-9.964 0-18.178 7.136-18.178 19.188 0 9.695 7.742 17.707 18.649 17.707 6.599 0 11.513-1.548 16.361-5.049l-5.925-9.763z"/>
        <path stroke="#5E2458" stroke-width="6" d="M336.521 144.638c-.27-.606-.539-1.01-.539-2.491 0-3.03 2.222-6.06 5.453-6.06 1.684 0 3.03.337 4.107 1.751l-9.021 6.8zm15.956 3.164c-2.154 1.818-4.511 3.366-8.146 3.366-1.212 0-2.828-.134-3.771-.606l18.044-13.6c-2.895-6.8-9.022-11.243-17.034-11.243-9.964 0-18.178 7.136-18.178 19.188 0 9.695 7.742 17.707 18.649 17.707 6.599 0 11.513-1.548 16.361-5.049l-5.925-9.763z" mask="url(#path-1-outside-1)"/>
      </g>
      <g id="Xavier_2">
        <mask id="path-2-outside-2" width="26" height="61" x="299.586" y="104.695" fill="#000" maskUnits="userSpaceOnUse">
          <path fill="#fff" d="M299.586 104.695h26v61h-26z"/>
          <path d="M319.196 160.999v-34.741l-13.062 1.077v34.741l13.062-1.077zm-6.262-36.626l7.878-7.07-8.416-7.608-7.81 7.743 8.348 6.935z"/>
        </mask>
        <path fill="#BED62C" d="M319.196 160.999v-34.741l-13.062 1.077v34.741l13.062-1.077zm-6.262-36.626l7.878-7.07-8.416-7.608-7.81 7.743 8.348 6.935z"/>
        <path stroke="#5E2458" stroke-width="6" d="M319.196 160.999v-34.741l-13.062 1.077v34.741l13.062-1.077zm-6.262-36.626l7.878-7.07-8.416-7.608-7.81 7.743 8.348 6.935z" mask="url(#path-2-outside-2)"/>
      </g>
      <g id="Xavier_3">
        <mask id="path-3-outside-3" width="42" height="43" x="265.71" y="121.719" fill="#000" maskUnits="userSpaceOnUse">
          <path fill="#fff" d="M265.71 121.719h42v43h-42z"/>
          <path d="M277.588 161.537h17.37l8.281-34.741-13.061-1.077-3.973 23.834h-.134l-3.434-23.834-12.927 1.077 7.878 34.741z"/>
        </mask>
        <path fill="#FF2EA2" d="M277.588 161.537h17.37l8.281-34.741-13.061-1.077-3.973 23.834h-.134l-3.434-23.834-12.927 1.077 7.878 34.741z"/>
        <path stroke="#5E2458" stroke-width="6" d="M277.588 161.537h17.37l8.281-34.741-13.061-1.077-3.973 23.834h-.134l-3.434-23.834-12.927 1.077 7.878 34.741z" mask="url(#path-3-outside-3)"/>
      </g>
      <g id="Xavier_4">
        <mask id="path-4-outside-4" width="41" height="44" x="229.635" y="122.719" fill="#000" maskUnits="userSpaceOnUse">
          <path fill="#fff" d="M229.635 122.719h41v44h-41z"/>
          <path d="M266.972 161.537V138.78c0-9.56-7.406-13.061-15.35-13.061-4.242 0-8.618.404-12.389 1.481l-2.356 9.628c3.097-1.01 6.059-1.818 9.56-1.818 3.838 0 6.531.808 6.531 4.578v1.818c-1.75-1.414-4.241-2.693-7.877-2.693-7.002 0-12.456 4.915-12.456 11.446 0 7.608 5.521 12.455 11.917 12.455 3.905 0 7.406-1.077 9.561-4.107h.134v4.107l12.725-1.077zm-13.533-11.446c0 1.751-1.211 3.232-3.366 3.232-2.154 0-3.434-1.414-3.434-3.232 0-1.885 1.549-3.164 3.434-3.164 2.289 0 3.366 1.616 3.366 3.164z"/>
        </mask>
        <path fill="#278CE9" d="M266.972 161.537V138.78c0-9.56-7.406-13.061-15.35-13.061-4.242 0-8.618.404-12.389 1.481l-2.356 9.628c3.097-1.01 6.059-1.818 9.56-1.818 3.838 0 6.531.808 6.531 4.578v1.818c-1.75-1.414-4.241-2.693-7.877-2.693-7.002 0-12.456 4.915-12.456 11.446 0 7.608 5.521 12.455 11.917 12.455 3.905 0 7.406-1.077 9.561-4.107h.134v4.107l12.725-1.077zm-13.533-11.446c0 1.751-1.211 3.232-3.366 3.232-2.154 0-3.434-1.414-3.434-3.232 0-1.885 1.549-3.164 3.434-3.164 2.289 0 3.366 1.616 3.366 3.164z"/>
        <path stroke="#5E2458" stroke-width="6" d="M266.972 161.537V138.78c0-9.56-7.406-13.061-15.35-13.061-4.242 0-8.618.404-12.389 1.481l-2.356 9.628c3.097-1.01 6.059-1.818 9.56-1.818 3.838 0 6.531.808 6.531 4.578v1.818c-1.75-1.414-4.241-2.693-7.877-2.693-7.002 0-12.456 4.915-12.456 11.446 0 7.608 5.521 12.455 11.917 12.455 3.905 0 7.406-1.077 9.561-4.107h.134v4.107l12.725-1.077zm-13.533-11.446c0 1.751-1.211 3.232-3.366 3.232-2.154 0-3.434-1.414-3.434-3.232 0-1.885 1.549-3.164 3.434-3.164 2.289 0 3.366 1.616 3.366 3.164z" mask="url(#path-4-outside-4)"/>
      </g>
      <g id="Xavier_5">
        <mask id="path-5-outside-5" width="53" height="56" x="185.332" y="110.273" fill="#000" maskUnits="userSpaceOnUse">
          <path fill="#fff" d="M185.332 110.273h53v56h-53z"/>
          <path d="M190.332 161.537l15.553 1.077 5.386-14.744 5.723 14.744 15.956-1.077-12.051-23.834 10.839-22.352-15.148-1.078-4.983 13.331-5.117-13.331-15.417 1.078 11.041 22.15-11.782 24.036z"/>
        </mask>
        <path fill="#FFC41A" d="M190.332 161.537l15.553 1.077 5.386-14.744 5.723 14.744 15.956-1.077-12.051-23.834 10.839-22.352-15.148-1.078-4.983 13.331-5.117-13.331-15.417 1.078 11.041 22.15-11.782 24.036z"/>
        <path stroke="#5E2458" stroke-width="6" d="M190.332 161.537l15.553 1.077 5.386-14.744 5.723 14.744 15.956-1.077-12.051-23.834 10.839-22.352-15.148-1.078-4.983 13.331-5.117-13.331-15.417 1.078 11.041 22.15-11.782 24.036z" mask="url(#path-5-outside-5)"/>
      </g>
      <g id="Xavier_6">
        <mask id="path-6-outside-6" width="32" height="44" x="359.284" y="121.719" fill="#000" maskUnits="userSpaceOnUse">
          <path fill="#fff" d="M359.284 121.719h32v44h-32z"/>
          <path d="M362.284 162.075l13.062-1.077v-15.485c0-4.713 2.828-6.867 6.194-6.867 1.01 0 1.549 0 2.087.067l3.165-12.792c-1.01-.135-2.088-.202-3.098-.202-4.914 0-8.011 2.289-9.021 6.665h-.135v-6.665l-12.254 1.077v35.279z"/>
        </mask>
        <path fill="#FF5506" d="M362.284 162.075l13.062-1.077v-15.485c0-4.713 2.828-6.867 6.194-6.867 1.01 0 1.549 0 2.087.067l3.165-12.792c-1.01-.135-2.088-.202-3.098-.202-4.914 0-8.011 2.289-9.021 6.665h-.135v-6.665l-12.254 1.077v35.279z"/>
        <path stroke="#5E2458" stroke-width="6" d="M362.284 162.075l13.062-1.077v-15.485c0-4.713 2.828-6.867 6.194-6.867 1.01 0 1.549 0 2.087.067l3.165-12.792c-1.01-.135-2.088-.202-3.098-.202-4.914 0-8.011 2.289-9.021 6.665h-.135v-6.665l-12.254 1.077v35.279z" mask="url(#path-6-outside-6)"/>
      </g>
    </g>
    <g id="chico" filter="url(#filter2_ddi)">
      <g id="Chico">
        <mask id="path-7-outside-7" width="41" height="43" x="109.232" y="122.719" fill="#000" maskUnits="userSpaceOnUse">
          <path fill="#fff" d="M109.232 122.719h41v43h-41z"/>
          <path d="M137.143 147.735c-1.414 1.414-2.761 1.952-4.713 1.952-3.636 0-6.194-2.154-6.194-5.723 0-3.501 2.693-5.318 6.059-5.318 2.02 0 3.434.673 4.78 1.683l7.945-10.369c-2.895-1.952-7.069-4.241-12.792-4.241-11.446 0-19.996 7.136-19.996 18.919 0 10.031 8.213 17.976 19.053 17.976 4.713 0 9.965-1.01 14.004-4.578l-8.146-10.301z"/>
        </mask>
        <path fill="#BED62C" d="M137.143 147.735c-1.414 1.414-2.761 1.952-4.713 1.952-3.636 0-6.194-2.154-6.194-5.723 0-3.501 2.693-5.318 6.059-5.318 2.02 0 3.434.673 4.78 1.683l7.945-10.369c-2.895-1.952-7.069-4.241-12.792-4.241-11.446 0-19.996 7.136-19.996 18.919 0 10.031 8.213 17.976 19.053 17.976 4.713 0 9.965-1.01 14.004-4.578l-8.146-10.301z"/>
        <path stroke="#5E2458" stroke-width="6" d="M137.143 147.735c-1.414 1.414-2.761 1.952-4.713 1.952-3.636 0-6.194-2.154-6.194-5.723 0-3.501 2.693-5.318 6.059-5.318 2.02 0 3.434.673 4.78 1.683l7.945-10.369c-2.895-1.952-7.069-4.241-12.792-4.241-11.446 0-19.996 7.136-19.996 18.919 0 10.031 8.213 17.976 19.053 17.976 4.713 0 9.965-1.01 14.004-4.578l-8.146-10.301z" mask="url(#path-7-outside-7)"/>
      </g>
      <g id="Chico_2">
        <mask id="path-8-outside-8" width="26" height="61" x="88.4258" y="104.695" fill="#000" maskUnits="userSpaceOnUse">
          <path fill="#fff" d="M88.4258 104.695h26v61h-26z"/>
          <path d="M108.036 160.999v-34.741l-13.0617 1.077v34.741l13.0617-1.077zm-6.262-36.626l7.878-7.07-8.416-7.608-7.8102 7.743 8.3482 6.935z"/>
        </mask>
        <path fill="#FFC41A" d="M108.036 160.999v-34.741l-13.0617 1.077v34.741l13.0617-1.077zm-6.262-36.626l7.878-7.07-8.416-7.608-7.8102 7.743 8.3482 6.935z"/>
        <path stroke="#5E2458" stroke-width="6" d="M108.036 160.999v-34.741l-13.0617 1.077v34.741l13.0617-1.077zm-6.262-36.626l7.878-7.07-8.416-7.608-7.8102 7.743 8.3482 6.935z" mask="url(#path-8-outside-8)"/>
      </g>
      <g id="Chico_3">
        <mask id="path-9-outside-9" width="38" height="57" x="54.6303" y="108.522" fill="#000" maskUnits="userSpaceOnUse">
          <path fill="#fff" d="M54.6303 108.522h38v57h-38z"/>
          <path d="M57.6303 113.6v48.475l13.0615-1.077v-20.804c0-1.616 1.2792-2.558 2.7604-2.558 1.6159 0 2.6931 1.077 2.6931 2.491v21.948l13.0615-1.077v-23.295c0-6.8-3.7703-11.984-10.4357-11.984-3.2317 0-5.9922 1.077-7.9447 3.703h-.1346v-16.9L57.6303 113.6z"/>
        </mask>
        <path fill="#FF2EA2" d="M57.6303 113.6v48.475l13.0615-1.077v-20.804c0-1.616 1.2792-2.558 2.7604-2.558 1.6159 0 2.6931 1.077 2.6931 2.491v21.948l13.0615-1.077v-23.295c0-6.8-3.7703-11.984-10.4357-11.984-3.2317 0-5.9922 1.077-7.9447 3.703h-.1346v-16.9L57.6303 113.6z"/>
        <path stroke="#5E2458" stroke-width="6" d="M57.6303 113.6v48.475l13.0615-1.077v-20.804c0-1.616 1.2792-2.558 2.7604-2.558 1.6159 0 2.6931 1.077 2.6931 2.491v21.948l13.0615-1.077v-23.295c0-6.8-3.7703-11.984-10.4357-11.984-3.2317 0-5.9922 1.077-7.9447 3.703h-.1346v-16.9L57.6303 113.6z" mask="url(#path-9-outside-9)"/>
      </g>
      <g id="Chico_4">
        <mask id="path-10-outside-10" width="41" height="55" x="15.7376" y="111.273" fill="#000" maskUnits="userSpaceOnUse">
          <path fill="#fff" d="M15.7376 111.273h41v55h-41z"/>
          <path d="M52.9399 146.86c-2.5585 1.481-4.8476 2.154-8.2813 2.154-5.9921 0-11.311-4.039-11.311-10.57 0-6.8 4.8476-10.57 11.5803-10.57 3.0971 0 4.8476.605 7.5407 1.75l-2.4238-14.408c-1.9525-.539-3.905-.943-6.5307-.943-14.812 0-24.7765 10.302-24.7765 24.575 0 14.071 10.7051 23.766 23.6992 23.766 2.8951 0 5.9248-.336 8.5506-1.077l1.9525-14.677z"/>
        </mask>
        <path fill="#278CE9" d="M52.9399 146.86c-2.5585 1.481-4.8476 2.154-8.2813 2.154-5.9921 0-11.311-4.039-11.311-10.57 0-6.8 4.8476-10.57 11.5803-10.57 3.0971 0 4.8476.605 7.5407 1.75l-2.4238-14.408c-1.9525-.539-3.905-.943-6.5307-.943-14.812 0-24.7765 10.302-24.7765 24.575 0 14.071 10.7051 23.766 23.6992 23.766 2.8951 0 5.9248-.336 8.5506-1.077l1.9525-14.677z"/>
        <path stroke="#5E2458" stroke-width="6" d="M52.9399 146.86c-2.5585 1.481-4.8476 2.154-8.2813 2.154-5.9921 0-11.311-4.039-11.311-10.57 0-6.8 4.8476-10.57 11.5803-10.57 3.0971 0 4.8476.605 7.5407 1.75l-2.4238-14.408c-1.9525-.539-3.905-.943-6.5307-.943-14.812 0-24.7765 10.302-24.7765 24.575 0 14.071 10.7051 23.766 23.6992 23.766 2.8951 0 5.9248-.336 8.5506-1.077l1.9525-14.677z" mask="url(#path-10-outside-10)"/>
      </g>
      <g id="Chico_5">
        <mask id="path-11-outside-11" width="45" height="43" x="142.895" y="122.719" fill="#000" maskUnits="userSpaceOnUse">
          <path fill="#fff" d="M142.895 122.719h45v43h-45z"/>
          <path d="M165.084 125.719c-10.84 0-19.189 7.204-19.189 18.447 0 11.244 8.349 18.448 19.189 18.448 10.839 0 19.188-7.204 19.188-18.448 0-11.243-8.349-18.447-19.188-18.447zm0 12.859c3.164 0 5.184 2.222 5.184 5.588 0 3.367-2.02 5.589-5.184 5.589-3.165 0-5.185-2.222-5.185-5.589 0-3.366 2.02-5.588 5.185-5.588z"/>
        </mask>
        <path fill="#11AF98" d="M165.084 125.719c-10.84 0-19.189 7.204-19.189 18.447 0 11.244 8.349 18.448 19.189 18.448 10.839 0 19.188-7.204 19.188-18.448 0-11.243-8.349-18.447-19.188-18.447zm0 12.859c3.164 0 5.184 2.222 5.184 5.588 0 3.367-2.02 5.589-5.184 5.589-3.165 0-5.185-2.222-5.185-5.589 0-3.366 2.02-5.588 5.185-5.588z"/>
        <path stroke="#5E2458" stroke-width="6" d="M165.084 125.719c-10.84 0-19.189 7.204-19.189 18.447 0 11.244 8.349 18.448 19.189 18.448 10.839 0 19.188-7.204 19.188-18.448 0-11.243-8.349-18.447-19.188-18.447zm0 12.859c3.164 0 5.184 2.222 5.184 5.588 0 3.367-2.02 5.589-5.184 5.589-3.165 0-5.185-2.222-5.185-5.589 0-3.366 2.02-5.588 5.185-5.588z" mask="url(#path-11-outside-11)"/>
      </g>
    </g>
    <g id="creche" filter="url(#filter3_ddi)">
      <g id="Creche">
        <mask id="path-12-outside-12" width="63" height="96" x="258.3" y="8.294" fill="#000" maskUnits="userSpaceOnUse">
          <path fill="#fff" d="M258.3 8.294h63v96h-63z"/>
          <path d="M261.3 14.215v86.448l23.293-1.9209V61.6415c0-2.8817 2.281-4.5626 4.923-4.5626 2.881 0 4.802 1.9211 4.802 4.4425v39.1416l23.293-1.9209V57.199c0-12.1268-6.723-21.3719-18.61-21.3719-5.763 0-10.686 1.921-14.168 6.6036h-.24V12.2939L261.3 14.215z"/>
        </mask>
        <path fill="url(#paint0_linear)" d="M261.3 14.215v86.448l23.293-1.9209V61.6415c0-2.8817 2.281-4.5626 4.923-4.5626 2.881 0 4.802 1.9211 4.802 4.4425v39.1416l23.293-1.9209V57.199c0-12.1268-6.723-21.3719-18.61-21.3719-5.763 0-10.686 1.921-14.168 6.6036h-.24V12.2939L261.3 14.215z"/>
        <path stroke="#5E2458" stroke-width="6" d="M261.3 14.215v86.448l23.293-1.9209V61.6415c0-2.8817 2.281-4.5626 4.923-4.5626 2.881 0 4.802 1.9211 4.802 4.4425v39.1416l23.293-1.9209V57.199c0-12.1268-6.723-21.3719-18.61-21.3719-5.763 0-10.686 1.921-14.168 6.6036h-.24V12.2939L261.3 14.215z" mask="url(#path-12-outside-12)"/>
      </g>
      <g id="Creche_2">
        <mask id="path-13-outside-13" width="67" height="72" x="195.505" y="32.8271" fill="#000" maskUnits="userSpaceOnUse">
          <path fill="#fff" d="M195.505 32.8271h67v72h-67z"/>
          <path d="M242.93 75.089c-2.522 2.5214-4.923 3.482-8.405 3.482-6.484 0-11.046-3.8422-11.046-10.2057 0-6.2435 4.802-9.4853 10.806-9.4853 3.602 0 6.123 1.2007 8.525 3.0017l14.167-18.4903c-5.162-3.482-12.607-7.5643-22.812-7.5643-20.412 0-35.66 12.7271-35.66 33.7388 0 17.89 14.648 32.0581 33.979 32.0581 8.404 0 17.77-1.8012 24.974-8.1647L242.93 75.089z"/>
        </mask>
        <path fill="url(#paint1_linear)" d="M242.93 75.089c-2.522 2.5214-4.923 3.482-8.405 3.482-6.484 0-11.046-3.8422-11.046-10.2057 0-6.2435 4.802-9.4853 10.806-9.4853 3.602 0 6.123 1.2007 8.525 3.0017l14.167-18.4903c-5.162-3.482-12.607-7.5643-22.812-7.5643-20.412 0-35.66 12.7271-35.66 33.7388 0 17.89 14.648 32.0581 33.979 32.0581 8.404 0 17.77-1.8012 24.974-8.1647L242.93 75.089z"/>
        <path stroke="#5E2458" stroke-width="6" d="M242.93 75.089c-2.522 2.5214-4.923 3.482-8.405 3.482-6.484 0-11.046-3.8422-11.046-10.2057 0-6.2435 4.802-9.4853 10.806-9.4853 3.602 0 6.123 1.2007 8.525 3.0017l14.167-18.4903c-5.162-3.482-12.607-7.5643-22.812-7.5643-20.412 0-35.66 12.7271-35.66 33.7388 0 17.89 14.648 32.0581 33.979 32.0581 8.404 0 17.77-1.8012 24.974-8.1647L242.93 75.089z" mask="url(#path-13-outside-13)"/>
      </g>
      <g id="Creche_3">
        <mask id="path-14-outside-14" width="70" height="72" x="128.788" y="32.8271" fill="#000" maskUnits="userSpaceOnUse">
          <path fill="#fff" d="M128.788 32.8271h70v72h-70z"/>
          <path d="M155.201 69.5659c-.48-1.0806-.96-1.801-.96-4.4424 0-5.403 3.962-10.8061 9.725-10.8061 3.002 0 5.403.6004 7.324 3.1218l-16.089 12.1267zm28.456 5.6432c-3.842 3.2418-8.044 6.0033-14.528 6.0033-2.161 0-5.043-.2401-6.724-1.0806l32.178-24.2535c-5.163-12.1267-16.089-20.0512-30.377-20.0512-17.77 0-32.418 12.7271-32.418 34.2191 0 17.2896 13.808 31.5778 33.259 31.5778 11.766 0 20.531-2.7617 29.176-9.0052l-10.566-17.4097z"/>
        </mask>
        <path fill="url(#paint2_linear)" d="M155.201 69.5659c-.48-1.0806-.96-1.801-.96-4.4424 0-5.403 3.962-10.8061 9.725-10.8061 3.002 0 5.403.6004 7.324 3.1218l-16.089 12.1267zm28.456 5.6432c-3.842 3.2418-8.044 6.0033-14.528 6.0033-2.161 0-5.043-.2401-6.724-1.0806l32.178-24.2535c-5.163-12.1267-16.089-20.0512-30.377-20.0512-17.77 0-32.418 12.7271-32.418 34.2191 0 17.2896 13.808 31.5778 33.259 31.5778 11.766 0 20.531-2.7617 29.176-9.0052l-10.566-17.4097z"/>
        <path stroke="#5E2458" stroke-width="6" d="M155.201 69.5659c-.48-1.0806-.96-1.801-.96-4.4424 0-5.403 3.962-10.8061 9.725-10.8061 3.002 0 5.403.6004 7.324 3.1218l-16.089 12.1267zm28.456 5.6432c-3.842 3.2418-8.044 6.0033-14.528 6.0033-2.161 0-5.043-.2401-6.724-1.0806l32.178-24.2535c-5.163-12.1267-16.089-20.0512-30.377-20.0512-17.77 0-32.418 12.7271-32.418 34.2191 0 17.2896 13.808 31.5778 33.259 31.5778 11.766 0 20.531-2.7617 29.176-9.0052l-10.566-17.4097z" mask="url(#path-14-outside-14)"/>
      </g>
      <g id="Creche_4">
        <mask id="path-15-outside-15" width="51" height="73" x="84.7629" y="31.8271" fill="#000" maskUnits="userSpaceOnUse">
          <path fill="#fff" d="M84.7629 31.8271h51v73h-51z"/>
          <path d="M87.7629 100.663l23.2931-1.9208V71.1268c0-8.4047 5.043-12.2468 11.046-12.2468 1.801 0 2.762 0 3.722.1201l5.643-22.8128c-1.801-.2401-3.722-.3602-5.523-.3602-8.765 0-14.288 4.0823-16.089 11.8867h-.24V35.8271l-21.8521 1.9211v62.9148z"/>
        </mask>
        <path fill="url(#paint3_linear)" d="M87.7629 100.663l23.2931-1.9208V71.1268c0-8.4047 5.043-12.2468 11.046-12.2468 1.801 0 2.762 0 3.722.1201l5.643-22.8128c-1.801-.2401-3.722-.3602-5.523-.3602-8.765 0-14.288 4.0823-16.089 11.8867h-.24V35.8271l-21.8521 1.9211v62.9148z"/>
        <path stroke="#5E2458" stroke-width="6" d="M87.7629 100.663l23.2931-1.9208V71.1268c0-8.4047 5.043-12.2468 11.046-12.2468 1.801 0 2.762 0 3.722.1201l5.643-22.8128c-1.801-.2401-3.722-.3602-5.523-.3602-8.765 0-14.288 4.0823-16.089 11.8867h-.24V35.8271l-21.8521 1.9211v62.9148z" mask="url(#path-15-outside-15)"/>
      </g>
      <g id="Creche_5">
        <mask id="path-16-outside-16" width="68" height="93" x="15.5245" y="12.416" fill="#000" maskUnits="userSpaceOnUse">
          <path fill="#fff" d="M15.5245 12.416h68v93h-68z"/>
          <path d="M79.5185 73.5284c-4.5625 2.6415-8.6448 3.8421-14.7682 3.8421-10.686 0-20.1712-7.204-20.1712-18.8505 0-12.1267 8.6448-18.8505 20.6515-18.8505 5.523 0 8.6448 1.0806 13.4475 3.1218L74.3557 17.097c-3.482-.9606-6.9639-1.681-11.6465-1.681-26.4148 0-44.1847 18.3703-44.1847 43.8244 0 25.094 19.0907 42.3836 42.2636 42.3836 5.1629 0 10.5659-.6 15.2485-1.921l3.4819-26.1746z"/>
        </mask>
        <path fill="url(#paint4_linear)" d="M79.5185 73.5284c-4.5625 2.6415-8.6448 3.8421-14.7682 3.8421-10.686 0-20.1712-7.204-20.1712-18.8505 0-12.1267 8.6448-18.8505 20.6515-18.8505 5.523 0 8.6448 1.0806 13.4475 3.1218L74.3557 17.097c-3.482-.9606-6.9639-1.681-11.6465-1.681-26.4148 0-44.1847 18.3703-44.1847 43.8244 0 25.094 19.0907 42.3836 42.2636 42.3836 5.1629 0 10.5659-.6 15.2485-1.921l3.4819-26.1746z"/>
        <path stroke="#5E2458" stroke-width="6" d="M79.5185 73.5284c-4.5625 2.6415-8.6448 3.8421-14.7682 3.8421-10.686 0-20.1712-7.204-20.1712-18.8505 0-12.1267 8.6448-18.8505 20.6515-18.8505 5.523 0 8.6448 1.0806 13.4475 3.1218L74.3557 17.097c-3.482-.9606-6.9639-1.681-11.6465-1.681-26.4148 0-44.1847 18.3703-44.1847 43.8244 0 25.094 19.0907 42.3836 42.2636 42.3836 5.1629 0 10.5659-.6 15.2485-1.921l3.4819-26.1746z" mask="url(#path-16-outside-16)"/>
      </g>
      <g id="Creche_6">
        <mask id="path-17-outside-17" width="70" height="72" x="322.255" y="32.8271" fill="#000" maskUnits="userSpaceOnUse">
          <path fill="#fff" d="M322.255 32.8271h70v72h-70z"/>
          <path d="M348.668 69.5659c-.48-1.0806-.96-1.801-.96-4.4424 0-5.403 3.962-10.8061 9.725-10.8061 3.002 0 5.403.6004 7.324 3.1218l-16.089 12.1267zm28.456 5.6432c-3.842 3.2418-8.044 6.0033-14.528 6.0033-2.161 0-5.043-.2401-6.724-1.0806l32.178-24.2535c-5.163-12.1267-16.089-20.0512-30.377-20.0512-17.769 0-32.418 12.7271-32.418 34.2191 0 17.2896 13.808 31.5778 33.259 31.5778 11.766 0 20.531-2.7617 29.176-9.0052l-10.566-17.4097z"/>
        </mask>
        <path fill="url(#paint5_linear)" d="M348.668 69.5659c-.48-1.0806-.96-1.801-.96-4.4424 0-5.403 3.962-10.8061 9.725-10.8061 3.002 0 5.403.6004 7.324 3.1218l-16.089 12.1267zm28.456 5.6432c-3.842 3.2418-8.044 6.0033-14.528 6.0033-2.161 0-5.043-.2401-6.724-1.0806l32.178-24.2535c-5.163-12.1267-16.089-20.0512-30.377-20.0512-17.769 0-32.418 12.7271-32.418 34.2191 0 17.2896 13.808 31.5778 33.259 31.5778 11.766 0 20.531-2.7617 29.176-9.0052l-10.566-17.4097z"/>
        <path stroke="#5E2458" stroke-width="6" d="M348.668 69.5659c-.48-1.0806-.96-1.801-.96-4.4424 0-5.403 3.962-10.8061 9.725-10.8061 3.002 0 5.403.6004 7.324 3.1218l-16.089 12.1267zm28.456 5.6432c-3.842 3.2418-8.044 6.0033-14.528 6.0033-2.161 0-5.043-.2401-6.724-1.0806l32.178-24.2535c-5.163-12.1267-16.089-20.0512-30.377-20.0512-17.769 0-32.418 12.7271-32.418 34.2191 0 17.2896 13.808 31.5778 33.259 31.5778 11.766 0 20.531-2.7617 29.176-9.0052l-10.566-17.4097z" mask="url(#path-17-outside-17)"/>
      </g>
    </g>
  </g>
  <defs>
    <linearGradient id="paint0_linear" x1="289.456" x2="289.456" y1="12.2939" y2="100.663" gradientUnits="userSpaceOnUse">
      <stop offset=".4844" stop-color="#FFC41A"/>
      <stop offset="1" stop-color="#FF961A"/>
    </linearGradient>
    <linearGradient id="paint1_linear" x1="227.981" x2="227.981" y1="35.8271" y2="101.624" gradientUnits="userSpaceOnUse">
      <stop offset=".4844" stop-color="#FFC41A"/>
      <stop offset="1" stop-color="#FF961A"/>
    </linearGradient>
    <linearGradient id="paint2_linear" x1="163.186" x2="163.186" y1="35.8271" y2="101.624" gradientUnits="userSpaceOnUse">
      <stop offset=".4844" stop-color="#FFC41A"/>
      <stop offset="1" stop-color="#FF961A"/>
    </linearGradient>
    <linearGradient id="paint3_linear" x1="109.615" x2="109.615" y1="35.8271" y2="100.663" gradientUnits="userSpaceOnUse">
      <stop offset=".4844" stop-color="#FFC41A"/>
      <stop offset="1" stop-color="#FF961A"/>
    </linearGradient>
    <linearGradient id="paint4_linear" x1="49.0215" x2="49.0215" y1="15.416" y2="101.624" gradientUnits="userSpaceOnUse">
      <stop offset=".4844" stop-color="#FFC41A"/>
      <stop offset="1" stop-color="#FF961A"/>
    </linearGradient>
    <linearGradient id="paint5_linear" x1="356.653" x2="356.653" y1="35.8271" y2="101.624" gradientUnits="userSpaceOnUse">
      <stop offset=".4844" stop-color="#FFC41A"/>
      <stop offset="1" stop-color="#FF961A"/>
    </linearGradient>
    <filter id="filter0_b" width="576.205" height="356.843" x="-84.4755" y="-90.9639" color-interpolation-filters="sRGB" filterUnits="userSpaceOnUse">
      <feFlood flood-opacity="0" result="BackgroundImageFix"/>
      <feGaussianBlur in="BackgroundImage" stdDeviation="50"/>
      <feComposite in2="SourceAlpha" operator="in" result="effect1_backgroundBlur"/>
      <feBlend in="SourceGraphic" in2="effect1_backgroundBlur" result="shape"/>
    </filter>
    <filter id="filter1_ddi" width="234.833" height="90.3133" x="170.675" y="96.5654" color-interpolation-filters="sRGB" filterUnits="userSpaceOnUse">
      <feFlood flood-opacity="0" result="BackgroundImageFix"/>
      <feColorMatrix in="SourceAlpha" values="0 0 0 0 0 0 0 0 0 0 0 0 0 0 0 0 0 0 127 0"/>
      <feOffset dy="6"/>
      <feGaussianBlur stdDeviation="7.5"/>
      <feColorMatrix values="0 0 0 0 0.384138 0 0 0 0 0 0 0 0 0 1.37379e-07 0 0 0 0.3 0"/>
      <feBlend in2="BackgroundImageFix" result="effect1_dropShadow"/>
      <feColorMatrix in="SourceAlpha" values="0 0 0 0 0 0 0 0 0 0 0 0 0 0 0 0 0 0 127 0"/>
      <feOffset dy="1"/>
      <feGaussianBlur stdDeviation="1"/>
      <feColorMatrix values="0 0 0 0 0.368627 0 0 0 0 0.141176 0 0 0 0 0.345098 0 0 0 1 0"/>
      <feBlend in2="effect1_dropShadow" result="effect2_dropShadow"/>
      <feBlend in="SourceGraphic" in2="effect2_dropShadow" result="shape"/>
      <feColorMatrix in="SourceAlpha" result="hardAlpha" values="0 0 0 0 0 0 0 0 0 0 0 0 0 0 0 0 0 0 127 0"/>
      <feOffset dx=".5" dy=".5"/>
      <feComposite in2="hardAlpha" k2="-1" k3="1" operator="arithmetic"/>
      <feColorMatrix values="0 0 0 0 0.733616 0 0 0 0 0.471469 0 0 0 0 0.894287 0 0 0 1 0"/>
      <feBlend in2="shape" result="effect3_innerShadow"/>
    </filter>
    <filter id="filter2_ddi" width="201.534" height="90.049" x=".7376" y="96.5654" color-interpolation-filters="sRGB" filterUnits="userSpaceOnUse">
      <feFlood flood-opacity="0" result="BackgroundImageFix"/>
      <feColorMatrix in="SourceAlpha" values="0 0 0 0 0 0 0 0 0 0 0 0 0 0 0 0 0 0 127 0"/>
      <feOffset dy="6"/>
      <feGaussianBlur stdDeviation="7.5"/>
      <feColorMatrix values="0 0 0 0 0.384138 0 0 0 0 0 0 0 0 0 1.37379e-07 0 0 0 0.3 0"/>
      <feBlend in2="BackgroundImageFix" result="effect1_dropShadow"/>
      <feColorMatrix in="SourceAlpha" values="0 0 0 0 0 0 0 0 0 0 0 0 0 0 0 0 0 0 127 0"/>
      <feOffset dy="1"/>
      <feGaussianBlur stdDeviation="1"/>
      <feColorMatrix values="0 0 0 0 0.368627 0 0 0 0 0.141176 0 0 0 0 0.345098 0 0 0 1 0"/>
      <feBlend in2="effect1_dropShadow" result="effect2_dropShadow"/>
      <feBlend in="SourceGraphic" in2="effect2_dropShadow" result="shape"/>
      <feColorMatrix in="SourceAlpha" result="hardAlpha" values="0 0 0 0 0 0 0 0 0 0 0 0 0 0 0 0 0 0 127 0"/>
      <feOffset dx=".5" dy=".5"/>
      <feComposite in2="hardAlpha" k2="-1" k3="1" operator="arithmetic"/>
      <feColorMatrix values="0 0 0 0 0.733616 0 0 0 0 0.471469 0 0 0 0 0.894287 0 0 0 1 0"/>
      <feBlend in2="shape" result="effect3_innerShadow"/>
    </filter>
    <filter id="filter3_ddi" width="406.205" height="125.588" x=".5245" y=".0361" color-interpolation-filters="sRGB" filterUnits="userSpaceOnUse">
      <feFlood flood-opacity="0" result="BackgroundImageFix"/>
      <feColorMatrix in="SourceAlpha" values="0 0 0 0 0 0 0 0 0 0 0 0 0 0 0 0 0 0 127 0"/>
      <feOffset dy="6"/>
      <feGaussianBlur stdDeviation="7.5"/>
      <feColorMatrix values="0 0 0 0 0.384138 0 0 0 0 0 0 0 0 0 1.37379e-07 0 0 0 0.3 0"/>
      <feBlend in2="BackgroundImageFix" result="effect1_dropShadow"/>
      <feColorMatrix in="SourceAlpha" values="0 0 0 0 0 0 0 0 0 0 0 0 0 0 0 0 0 0 127 0"/>
      <feOffset dy="1"/>
      <feGaussianBlur stdDeviation="1"/>
      <feColorMatrix values="0 0 0 0 0.368627 0 0 0 0 0.141176 0 0 0 0 0.345098 0 0 0 1 0"/>
      <feBlend in2="effect1_dropShadow" result="effect2_dropShadow"/>
      <feBlend in="SourceGraphic" in2="effect2_dropShadow" result="shape"/>
      <feColorMatrix in="SourceAlpha" result="hardAlpha" values="0 0 0 0 0 0 0 0 0 0 0 0 0 0 0 0 0 0 127 0"/>
      <feOffset dx=".5" dy=".5"/>
      <feComposite in2="hardAlpha" k2="-1" k3="1" operator="arithmetic"/>
      <feColorMatrix values="0 0 0 0 0.733616 0 0 0 0 0.471469 0 0 0 0 0.894287 0 0 0 1 0"/>
      <feBlend in2="shape" result="effect3_innerShadow"/>
    </filter>
  </defs>
</svg>
