<svg xmlns="http://www.w3.org/2000/svg" fill="none" viewBox="0 0 104 115">
  <defs/>
  <g id="projetos">
    <g id="Group 13">
      <circle id="Ellipse 18" cx="45.1" cy="69.1" r="43.5" fill="#FF9737" stroke="#F1F8F3" stroke-width ="3"/>
    </g>
    <g id="foguete" clip-path="url(#clip0)">
      <path id="Vector" fill="#FF5249" d="M100.4 5.2s-.3 10.5-4.7 22.9L77.6 9.9c12.3-4.3 22.8-4.7 22.8-4.7z"/>
      <path id="Vector_2" fill="#fff" d="M77.6 10l18 18a64 64 0 01-14.5 24.1 76.3 76.3 0 01-23 15.7L37.8 47.5a77.5 77.5 0 0115.7-23 64 64 0 0124-14.6z"/>
      <path id="Vector_3" fill="#7BD8E8" d="M78.3 27.3a7.8 7.8 0 11-11 11 7.8 7.8 0 0111-11z"/>
      <g id="Group" fill="#FF5249">
        <path id="Vector_4" d="M75.6 57.7c10 15-8.8 24.8-19.4 24.8 5.6-5.5 4-12.6 4-12.6L58 67.8c5.6-2.5 11.6-6 17.2-10.5l.3.4z"/>
        <path id="Vector_5" d="M35.6 61.8l-.4-.3c-.9-1-1.4-2.3-1-3.6a68 68 0 013.6-10.4l20.3 20.3a68 68 0 01-10.4 3.7c-1.3.3-2.7-.2-3.6-1.1l-.3-.3-8.2-8.3z"/>
        <path id="Vector_6" d="M48 30l.3.3c-4.6 5.7-8 11.6-10.5 17.2l-2-2s-7.2-1.6-12.7 3.9C23.1 38.8 32.9 20 48 30z"/>
      </g>
      <path id="Vector_7" fill="#FFDD78" d="M35.6 61.8l8.2 8.3c-.6 2.3-2 4.8-4.1 6.9C35 81.6 23 82.5 23 82.5s1-12 5.5-16.5c2.1-2.2 4.6-3.6 7-4.2z"/>
      <path id="Vector_8" fill="#5E2458" d="M55 53.5a2 2 0 10-2.9-2.7 2 2 0 002.8 2.7z"/>
      <path id="Vector_9" fill="#5E2458" d="M79.8 39.7A9.8 9.8 0 1066 26a9.8 9.8 0 0013.8 13.8zm-11-11a5.9 5.9 0 118.2 8.2 5.9 5.9 0 01-8.3-8.2z"/>
      <path id="Vector_10" fill="#5E2458" d="M22.4 51.2a2 2 0 002.1-.4c4-4 8.8-3.7 10.4-3.5l.7.7a68.7 68.7 0 00-3.3 9.5c-.3 1-.2 2.3.3 3.4-2 .8-3.7 2-5.3 3.7-5 5-6 17.3-6.1 17.8a2 2 0 002.1 2c.5 0 12.8-1 17.8-6 1.6-1.6 2.9-3.4 3.7-5.3 1.2.5 2.4.5 3.4.2 3.1-.7 6.3-1.8 9.5-3.2l.7.7c.2 1.6.4 6.4-3.5 10.3a2 2 0 001.4 3.4c7.7 0 18.5-4.6 22.5-12 1.7-3.3 3-8.4-.8-14.8a65.4 65.4 0 0019.6-29c4.4-12.5 4.8-23 4.8-23.4a2 2 0 00-2-2c-.4 0-11 .4-23.4 4.8a65.4 65.4 0 00-29 19.6c-6.4-3.7-11.5-2.6-14.8-.8-7.4 4-12 14.8-12 22.5a2 2 0 001.2 1.8zm16 24.4c-2.7 2.7-9 4.1-13 4.7.6-4 2-10.3 4.7-13a14 14 0 015-3.3l6.5 6.6a14 14 0 01-3.3 5zm8.8-6c-.5.1-1.2-.1-1.7-.6l-8.8-8.9c-.5-.4-.7-1.1-.6-1.7.6-2.4 1.5-4.9 2.5-7.4L54.7 67c-2.5 1-5 1.8-7.5 2.5zm28.2 1c-2.6 4.8-9 8.3-14.9 9.5 1.9-3.5 2.3-8 1.6-10.7-.2-.6-.6-1-.6-1a79 79 0 0013.4-8.2c2 3.7 2.2 7.2.5 10.4zm19.5-46.2L81.2 10.8c7.5-2.3 14-3.2 17.2-3.5-.3 3.2-1.2 9.7-3.5 17.1zm-40 1.5a60.9 60.9 0 0122.2-13.7l16.4 16.4A60.9 60.9 0 0174 55.8a75 75 0 01-15.5 9.7L40.2 47A75 75 0 0155 26zm-19.8 4.4c3.2-1.7 6.7-1.5 10.4.5a79 79 0 00-8.2 13.4s-.4-.5-1-.6c-.3 0-5.5-1.2-10.7 1.6 1.2-5.9 4.7-12.3 9.5-14.9z"/>
      <path id="Vector_11" fill="#5E2458" d="M43.9 92.2l5.5-5.5a2 2 0 00-2.8-2.8l-5.5 5.5a2 2 0 002.8 2.8z"/>
      <path id="Vector_12" fill="#5E2458" d="M16.2 64.6l5.6-5.6a2 2 0 10-2.8-2.7l-5.5 5.5a2 2 0 102.7 2.8z"/>
      <path id="Vector_13" fill="#5E2458" d="M32.8 86.7L19.6 99.9a2 2 0 102.7 2.8l13.3-13.3a2 2 0 00-2.8-2.7z"/>
      <path id="Vector_14" fill="#5E2458" d="M17.2 86.7L4 99.9a2 2 0 102.7 2.8L20 89.4a2 2 0 10-2.8-2.7z"/>
      <path id="Vector_15" fill="#5E2458" d="M5.8 86L19 73a2 2 0 00-2.8-2.8L3 83.3a2 2 0 002.8 2.8z"/>
      <path id="Vector_16" fill="#5E2458" d="M60.4 48l2.8-2.8a2 2 0 00-2.8-2.7l-2.7 2.7a2 2 0 002.7 2.8z"/>
    </g>
  </g>
  <defs>
    <clipPath id="clip0">
      <path fill="#fff" d="M0 0h100v100H0z" transform="translate(2.4 3.2)"/>
    </clipPath>
  </defs>
</svg>