<svg xmlns="http://www.w3.org/2000/svg" fill="none" viewBox="0 0 346 480">
  <path fill="#FFC420" d="M42 480v-40.37c0-7.14 3.37-13.98 9.37-19.03 6-5.05 14.14-7.88 22.63-7.88h240c8.49 0 16.63 2.83 22.63 7.88s9.37 11.9 9.37 19.03V480H42Zm291.16-153.44-12.48-124a29.44 29.44 0 0 0-29.36-27.04 28.88 28.88 0 0 0-28.88 28.88v-4.88l-2.88-14.24a30.8 30.8 0 0 0-61.12 6.24l-3.2-19.04a34.65 34.65 0 0 0-62.96-13.6L127 32a32 32 0 0 0-64 0l-.4 164.32L15 233.76A32 32 0 0 0 3.48 262.4l2.48 20.8A160 160 0 0 0 39 362.4s21.27 36.18 29.9 36.18h251.78c14.19-6.92 14.07-55.53 12.48-72.02Z"/>
</svg>
