<svg xmlns="http://www.w3.org/2000/svg" fill="none" viewBox="0 0 1284 361">
  <defs/>
  <g id="Sky" filter="url(#filter0_dd)">
    <g id="cloud_right" stroke-width ="2">
      <path id="Line 11" stroke="#CFF4FB" stroke-opacity=".5" d="M1181 .1V273"/>
      <path id="Vector" fill="url(#paint0_linear)" stroke="#fff" stroke-opacity=".6" d="M1220.1 276.2l-81 .7a22.3 22.3 0 01-22.6-22 22.4 22.4 0 0118.5-22v-.3a29.6 29.6 0 0146-24.7c3.5 2.4 6.4 5.4 8.6 9a22.2 22.2 0 0133.6 15.1 22.3 22.3 0 0119.1 21.8 22.3 22.3 0 01-22.2 22.4z"/>
    </g>
    <g id="cloud_middle" stroke-width ="2">
      <path id="Line 10" stroke="#CFF4FB" stroke-opacity=".5" d="M348.1.1V285"/>
      <path id="Vector_2" fill="url(#paint1_linear)" stroke="#fff" stroke-opacity=".6" d="M323 275.6a18.2 18.2 0 0133.5-12.8 14.1 14.1 0 0118.8 12.8 14.3 14.3 0 018 15.6 14.2 14.2 0 01-13.9 11.5h-40.6c-7.9 0-14.3-6.3-14.3-14.2 0-5.6 3.4-10.6 8.5-13z"/>
    </g>
    <g id="sun">
      <path id="Line 13" stroke="#CFF4FB" stroke-opacity=".5" stroke-width ="2" d="M255.1.1V147"/>
      <g id="sun_2">
        <path id="Vector_3" fill="url(#paint2_linear)" stroke="#fff" stroke-opacity=".4" stroke-width ="2" d="M255 214.5a30 30 0 100-60.1 30 30 0 000 60z"/>
        <g id="Vector_4">
          <path fill="url(#paint3_radial)" d="M279 185.8a1.3 1.3 0 01-1.4-1.4 22.6 22.6 0 00-22.6-22.6 1.3 1.3 0 110-2.6 25.3 25.3 0 0125.2 25.7 1.3 1.3 0 01-1.3.9z"/>
          <path fill="url(#paint4_radial)" d="M255 148.2c2.2 0 4.3.2 6.5.6v-1.2c0-6-6.5-10.8-6.5-10.8s-6.6 4.8-6.6 10.8v1.2c2.2-.4 4.4-.6 6.6-.6z"/>
          <path fill="url(#paint5_radial)" d="M255 220.6c2.2 0 4.3-.2 6.5-.6v1.3c0 6-6.5 10.8-6.5 10.8s-6.6-4.9-6.6-10.8V220c2.2.4 4.4.6 6.6.6z"/>
          <path fill="url(#paint6_radial)" d="M280.6 158.8c1.5 1.6 3 3.3 4.1 5l1-.8c4.2-4.2 3-12.3 3-12.3s-8-1.2-12.3 3l-.9 1c1.8 1.2 3.5 2.6 5 4.1z"/>
          <path fill="url(#paint7_radial)" d="M229.4 210c1.6 1.5 3.2 3 5 4.2l-.8 1c-4.3 4.1-12.3 3-12.3 3s-1.2-8.1 3-12.4l1-.8c1.2 1.8 2.6 3.4 4.1 5z"/>
          <path fill="url(#paint8_radial)" d="M291.2 184.4c0 2.2-.2 4.4-.6 6.5h1.2c6 0 10.8-6.5 10.8-6.5s-4.8-6.5-10.8-6.5h-1.2c.4 2.2.6 4.3.6 6.5z"/>
          <path fill="url(#paint9_radial)" d="M218.8 184.4c0 2.2.2 4.4.6 6.5h-1.3c-6 0-10.8-6.5-10.8-6.5s4.9-6.5 10.8-6.5h1.3c-.4 2.2-.6 4.3-.6 6.5z"/>
          <path fill="url(#paint10_radial)" d="M280.6 210c-1.6 1.5-3.3 3-5 4.2l.8 1c4.2 4.1 12.3 3 12.3 3s1.2-8.1-3-12.4a16 16 0 00-1-.8 36.1 36.1 0 01-4.1 5z"/>
          <path fill="url(#paint11_radial)" d="M229.4 158.8c-1.5 1.6-3 3.3-4.2 5l-.9-.8c-4.2-4.2-3-12.3-3-12.3s8-1.2 12.3 3l.8 1a36.3 36.3 0 00-5 4.1z"/>
          <path stroke="#fff" stroke-opacity=".4" stroke-width ="2" d="M279 185.8a1.3 1.3 0 01-1.4-1.4 22.6 22.6 0 00-22.6-22.6 1.3 1.3 0 110-2.6 25.3 25.3 0 0125.2 25.7 1.3 1.3 0 01-1.3.9zM255 148.2c2.2 0 4.3.2 6.5.6v-1.2c0-6-6.5-10.8-6.5-10.8s-6.6 4.8-6.6 10.8v1.2c2.2-.4 4.4-.6 6.6-.6zM255 220.6c2.2 0 4.3-.2 6.5-.6v1.3c0 6-6.5 10.8-6.5 10.8s-6.6-4.9-6.6-10.8V220c2.2.4 4.4.6 6.6.6zM280.6 158.8c1.5 1.6 3 3.3 4.1 5l1-.8c4.2-4.2 3-12.3 3-12.3s-8-1.2-12.3 3l-.9 1c1.8 1.2 3.5 2.6 5 4.1zM229.4 210c1.6 1.5 3.2 3 5 4.2l-.8 1c-4.3 4.1-12.3 3-12.3 3s-1.2-8.1 3-12.4l1-.8c1.2 1.8 2.6 3.4 4.1 5zM291.2 184.4c0 2.2-.2 4.4-.6 6.5h1.2c6 0 10.8-6.5 10.8-6.5s-4.8-6.5-10.8-6.5h-1.2c.4 2.2.6 4.3.6 6.5zM218.8 184.4c0 2.2.2 4.4.6 6.5h-1.3c-6 0-10.8-6.5-10.8-6.5s4.9-6.5 10.8-6.5h1.3c-.4 2.2-.6 4.3-.6 6.5zM280.6 210c-1.6 1.5-3.3 3-5 4.2l.8 1c4.2 4.1 12.3 3 12.3 3s1.2-8.1-3-12.4a16 16 0 00-1-.8 36.1 36.1 0 01-4.1 5zM229.4 158.8c-1.5 1.6-3 3.3-4.2 5l-.9-.8c-4.2-4.2-3-12.3-3-12.3s8-1.2 12.3 3l.8 1a36.3 36.3 0 00-5 4.1z"/>
        </g>
      </g>
    </g>
    <g id="cloud_left" stroke-width ="2">
      <path id="Line 12" stroke="#CFF4FB" stroke-opacity=".5" d="M86.1.1V268"/>
      <path id="Vector_5" fill="url(#paint12_linear)" stroke="#fff" stroke-opacity=".6" d="M50.3 277.3l67 .6a18.5 18.5 0 0018.7-18.2 18.5 18.5 0 00-15.3-18.2v-.2a24.4 24.4 0 00-45.2-13 18.3 18.3 0 00-27.8 12.5 18.5 18.5 0 00-15.8 18 18.5 18.5 0 0018.3 18.5z"/>
    </g>
  </g>
  <defs>
    <radialGradient id="paint3_radial" cx="0" cy="0" r="1" gradientTransform="rotate(90 35.3 219.7) scale(47.6602)" gradientUnits="userSpaceOnUse">
      <stop offset=".8" stop-color="#FFA800"/>
      <stop offset="1" stop-color="#FFB36E"/>
    </radialGradient>
    <radialGradient id="paint4_radial" cx="0" cy="0" r="1" gradientTransform="rotate(90 35.3 219.7) scale(47.6602)" gradientUnits="userSpaceOnUse">
      <stop offset=".8" stop-color="#FFA800"/>
      <stop offset="1" stop-color="#FFB36E"/>
    </radialGradient>
    <radialGradient id="paint5_radial" cx="0" cy="0" r="1" gradientTransform="rotate(90 35.3 219.7) scale(47.6602)" gradientUnits="userSpaceOnUse">
      <stop offset=".8" stop-color="#FFA800"/>
      <stop offset="1" stop-color="#FFB36E"/>
    </radialGradient>
    <radialGradient id="paint6_radial" cx="0" cy="0" r="1" gradientTransform="rotate(90 35.3 219.7) scale(47.6602)" gradientUnits="userSpaceOnUse">
      <stop offset=".8" stop-color="#FFA800"/>
      <stop offset="1" stop-color="#FFB36E"/>
    </radialGradient>
    <radialGradient id="paint7_radial" cx="0" cy="0" r="1" gradientTransform="rotate(90 35.3 219.7) scale(47.6602)" gradientUnits="userSpaceOnUse">
      <stop offset=".8" stop-color="#FFA800"/>
      <stop offset="1" stop-color="#FFB36E"/>
    </radialGradient>
    <radialGradient id="paint8_radial" cx="0" cy="0" r="1" gradientTransform="rotate(90 35.3 219.7) scale(47.6602)" gradientUnits="userSpaceOnUse">
      <stop offset=".8" stop-color="#FFA800"/>
      <stop offset="1" stop-color="#FFB36E"/>
    </radialGradient>
    <radialGradient id="paint9_radial" cx="0" cy="0" r="1" gradientTransform="rotate(90 35.3 219.7) scale(47.6602)" gradientUnits="userSpaceOnUse">
      <stop offset=".8" stop-color="#FFA800"/>
      <stop offset="1" stop-color="#FFB36E"/>
    </radialGradient>
    <radialGradient id="paint10_radial" cx="0" cy="0" r="1" gradientTransform="rotate(90 35.3 219.7) scale(47.6602)" gradientUnits="userSpaceOnUse">
      <stop offset=".8" stop-color="#FFA800"/>
      <stop offset="1" stop-color="#FFB36E"/>
    </radialGradient>
    <radialGradient id="paint11_radial" cx="0" cy="0" r="1" gradientTransform="rotate(90 35.3 219.7) scale(47.6602)" gradientUnits="userSpaceOnUse">
      <stop offset=".8" stop-color="#FFA800"/>
      <stop offset="1" stop-color="#FFB36E"/>
    </radialGradient>
    <linearGradient id="paint0_linear" x1="1166" x2="1166" y1="277.1" y2="202.1" gradientUnits="userSpaceOnUse">
      <stop stop-color="#E7FFF3"/>
      <stop offset="1" stop-color="#C1EDFF"/>
    </linearGradient>
    <linearGradient id="paint1_linear" x1="341.2" x2="351.1" y1="302.8" y2="248.5" gradientUnits="userSpaceOnUse">
      <stop stop-color="#E7FFF3"/>
      <stop offset="1" stop-color="#C1EDFF"/>
    </linearGradient>
    <linearGradient id="paint2_linear" x1="255" x2="255" y1="154.4" y2="214.5" gradientUnits="userSpaceOnUse">
      <stop stop-color="#FFDB2F"/>
      <stop offset="1" stop-color="#FF8B8B"/>
    </linearGradient>
    <linearGradient id="paint12_linear" x1="84.1" x2="88.4" y1="278.1" y2="216.1" gradientUnits="userSpaceOnUse">
      <stop stop-color="#E7FFF3"/>
      <stop offset="1" stop-color="#C1EDFF"/>
    </linearGradient>
    <filter id="filter0_dd" width="1282.7" height="373.7" x=".8" y="-12.9" color-interpolation-filters="sRGB" filterUnits="userSpaceOnUse">
      <feFlood flood-opacity="0" result="BackgroundImageFix"/>
      <feColorMatrix in="SourceAlpha" values="0 0 0 0 0 0 0 0 0 0 0 0 0 0 0 0 0 0 127 0"/>
      <feOffset dx="5" dy="22"/>
      <feGaussianBlur stdDeviation="17.5"/>
      <feColorMatrix values="0 0 0 0 0 0 0 0 0 0 0 0 0 0 0 0 0 0 0.2 0"/>
      <feBlend in2="BackgroundImageFix" result="effect1_dropShadow"/>
      <feColorMatrix in="SourceAlpha" values="0 0 0 0 0 0 0 0 0 0 0 0 0 0 0 0 0 0 127 0"/>
      <feOffset dy="4"/>
      <feGaussianBlur stdDeviation="2"/>
      <feColorMatrix values="0 0 0 0 0 0 0 0 0 0 0 0 0 0 0 0 0 0 0.25 0"/>
      <feBlend in2="effect1_dropShadow" result="effect2_dropShadow"/>
      <feBlend in="SourceGraphic" in2="effect2_dropShadow" result="shape"/>
    </filter>
  </defs>
</svg>
