<svg xmlns="http://www.w3.org/2000/svg" fill="none" viewBox="0 0 104 115">
  <defs/>
  <g id="transparencia">
    <circle id="Ellipse 18" cx="45" cy="69.1" r="43.5" fill="#03CE6A" stroke="#F1F8F3" stroke-width="3"/>
    <g id="documento" clip-path="url(#clip0)">
      <path id="Vector" fill="#F4F8F8" d="M14.4 5c-3.6.1-6.5 3.1-6.4 6.7l1.5 84c.1 3.6 3 6.5 6.7 6.4l61.3-1.1c3.6 0 6.5-3 6.4-6.6l-1.3-70.5a5 5 0 00-1.5-3.4l-15.5-15a5 5 0 00-3.5-1.3L14.4 5z"/>
      <path id="Vector_2" fill="#E7ECF1" d="M71 22.1h-.4L72 94.6c.1 3.6-2.8 6.5-6.4 6.6l12-.2c3.6 0 6.5-3 6.4-6.6l-1.3-70.5a5 5 0 00-.5-2l-11 .2z"/>
      <path id="Vector_3" fill="#FC8086" d="M81.1 20.5l-15.5-15a5 5 0 00-1.4-.9l.2 11.1c0 3.6 3 6.5 6.6 6.4l11.1-.2a5 5 0 00-1-1.4z"/>
      <g id="Group">
        <g id="Group_2">
          <path id="Vector_4" fill="#C2D0DA" d="M62.8 81.3l-4.6-3.5c-2 2.7-4.1 3.8-6.4 3.9-.2 0-.3.1-.3.3l-.9 9.6c0 .5.4.8.9.6l9-3.3c.2 0 .3-.2.2-.4-.5-2.2 0-4.5 2.1-7.2z"/>
          <g id="Group_3" fill="#7C8B96">
            <path id="Vector_5" d="M89.1 46.8l-4.4-3.3-2.6.2-12 14.1a70.8 70.8 0 00-7.5 10.4l-5 8.7c-.5.7-.3 1.6.4 2.1l3.7 2.9c.7.5 1.6.4 2.2-.2l7-7.2c3-3 5.7-6.3 8-9.8l10.5-15.4-.3-2.5z"/>
            <path id="Vector_6" d="M94.2 35.5a4 4 0 00-5.5.5l-3 3.5v2l4.7 3.7 2-.5 2.7-3.8a4 4 0 00-1-5.4z"/>
          </g>
        </g>
        <path id="Vector_7" fill="#C2D0DA" d="M82 43.7l7.4 5.6 3-4.6-6.7-5.2-3.6 4.2z"/>
      </g>
      <path id="Vector_8" fill="#BED8FB" d="M33.3 21l-15.4.2a1 1 0 01-1-1l-.1-5.6c0-.5.4-1 1-1l15.3-.3c.6 0 1 .4 1 1l.2 5.6c0 .6-.5 1-1 1z"/>
      <g id="Group 138" fill="#5E2458">
        <path id="Vector_9" d="M95.5 48.3l-2.4-1.9.6-.9 2.6-3.8a5.5 5.5 0 00-8.7-6.6l-3 3.5-3.6 4.2-12.1 14a72.5 72.5 0 00-7.5 10.6 1.5 1.5 0 002.5 1.5c2-3.6 4.5-7 7.2-10.1l11.2-13 5 3.8-9.5 14.2c-2.4 3.5-5 6.7-8 9.7l-7 7.2h-.2l-3.8-2.9v-.2l1.6-2.7a1.5 1.5 0 00-2.6-1.5l-1.5 2.7a3 3 0 00-.4 2.1 6.2 6.2 0 01-4.2 2c-.9 0-1.6.8-1.7 1.7l-.8 9.6a2 2 0 002.8 2.1l9-3.3c.9-.3 1.4-1.2 1.2-2.1-.4-1.5-.1-3 .8-4.6a3 3 0 002-.9l7-7.2c3-3 5.8-6.4 8.2-10L90.6 50l.8-1.2 2.4 1.8c.3.2.4.8.1 1.2l-6.7 8.7a1.5 1.5 0 102.4 1.8l6.7-8.8c1.2-1.6.9-4-.8-5.3zM54.8 89.5l2.4-3.2a1.5 1.5 0 00-2.4-1.7l-2.4 3 .5-4.5a9 9 0 004.8-2.5l2.5 2a9 9 0 00-1 5.2l-4.4 1.7zm35-52.5a2.6 2.6 0 014 3l-1.7 2.6-4.3-3.3 2-2.3zM86 41.5l4.6 3.5-1.5 2.2-4.8-3.7 1.7-2z"/>
        <path id="Vector_10" d="M16 92c.4.7 1.2 1 2 .7l3-1.3c1 .7 2.2 1.1 3.5 1.2 3.7.2 5.4-.6 6.6-1.1 1-.4 1-.5 2.3.4 1.6 1 3.8 1.4 5.7 1.3 1 0 1.8 0 2.4-.2A1.5 1.5 0 0041 90c-1.3.3-4.3.4-5.9-.6-2.4-1.7-3.5-1.4-5-.7-1 .4-2.3 1-5.3.8h-.4c3.2-2 4.8-3.8 4.9-5.7 0-1-.4-2.7-2.7-4-3.2-1.6-5.2-.5-6.1.3-2 1.6-2.7 4.9-1.7 7.8l.5 1-2.3 1c-.7.3-1.1 1.2-.8 2zm6.2-9.6c.3-.2.7-.4 1-.4.6 0 1.2.2 1.9.6.3.1 1.2.7 1.1 1.1 0 .7-1.2 2.1-4.4 4l-.3-.6c-.6-1.8-.3-3.9.7-4.7z"/>
        <path id="Vector_11" d="M56.7 32.3l-39.6.7a1.5 1.5 0 100 3l39.7-.8a1.5 1.5 0 100-3z"/>
        <path id="Vector_12" d="M56.9 40.9l-39.6.7a1.5 1.5 0 100 3l39.6-.8a1.5 1.5 0 100-3z"/>
        <path id="Vector_13" d="M58.5 50.9c0-.8-.7-1.5-1.5-1.4l-39.6.7a1.5 1.5 0 10.1 3l39.6-.8c.8 0 1.4-.7 1.4-1.5z"/>
        <path id="Vector_14" d="M17.7 61.7l16.8-.3a1.5 1.5 0 000-3l-16.9.4a1.5 1.5 0 100 2.9z"/>
        <path id="Vector_15" d="M83.4 65c-.8.1-1.5.8-1.5 1.6l.5 27.8a5 5 0 01-5 5.1l-61.2 1.2a5 5 0 01-5.2-5l-1.5-84a5 5 0 015-5.2l47.7-.8h.5l.2 10a8 8 0 008.2 7.9l10-.2v.6l.3 11.2a1.5 1.5 0 102.9 0L84 23.9c0-1.7-.8-3.3-2-4.5L66.7 4.5A6.4 6.4 0 0062 2.7l-47.7 1a8 8 0 00-7.9 8l1.6 84a8 8 0 008.1 7.9l61.3-1.1a8 8 0 007.9-8.2l-.5-27.8c0-.8-.7-1.4-1.5-1.4zM79 20.6l-8 .1a5 5 0 01-5.1-5l-.2-8L79 20.6z"/>
        <path id="Vector_16" d="M18 22.7l15.3-.3c1.4 0 2.5-1.2 2.4-2.5v-5.6c-.1-1.4-1.2-2.5-2.6-2.5l-15.3.3a2.5 2.5 0 00-2.5 2.6l.1 5.5c0 1.4 1.2 2.5 2.6 2.5zm.3-7.7l14.4-.2.1 4.7-14.5.2V15z"/>
      </g>
    </g>
  </g>
  <defs>
    <clipPath id="clip0">
      <path fill="#fff" d="M0 0h100v100H0z" transform="rotate(-1.1 209 -77.8)"/>
    </clipPath>
  </defs>
</svg>