<?xml version="1.0" encoding="utf-8"?>
<svg xmlns="http://www.w3.org/2000/svg" viewBox="0 0 32 32" width="512" height="512">
  <path d="M16 6C12.234375 6 8.90625 6.390625 6.875 6.6875C5.195313 6.933594 3.839844 8.199219 3.53125 9.875C3.269531 11.300781 3 13.386719 3 16C3 18.613281 3.269531 20.699219 3.53125 22.125C3.839844 23.800781 5.195313 25.070313 6.875 25.3125C8.914063 25.609375 12.253906 26 16 26C19.746094 26 23.085938 25.609375 25.125 25.3125C26.804688 25.070313 28.160156 23.800781 28.46875 22.125C28.730469 20.695313 29 18.605469 29 16C29 13.394531 28.734375 11.304688 28.46875 9.875C28.160156 8.199219 26.804688 6.933594 25.125 6.6875C23.09375 6.390625 19.765625 6 16 6 Z M 16 8C19.632813 8 22.878906 8.371094 24.84375 8.65625C25.6875 8.78125 26.347656 9.417969 26.5 10.25C26.742188 11.570313 27 13.527344 27 16C27 18.46875 26.742188 20.429688 26.5 21.75C26.347656 22.582031 25.691406 23.222656 24.84375 23.34375C22.871094 23.628906 19.609375 24 16 24C12.390625 24 9.125 23.628906 7.15625 23.34375C6.3125 23.222656 5.652344 22.582031 5.5 21.75C5.257813 20.429688 5 18.476563 5 16C5 13.519531 5.257813 11.570313 5.5 10.25C5.652344 9.417969 6.308594 8.78125 7.15625 8.65625C9.117188 8.371094 12.367188 8 16 8 Z M 13 10.28125L13 21.71875L14.5 20.875L21.5 16.875L23 16L21.5 15.125L14.5 11.125 Z M 15 13.71875L18.96875 16L15 18.28125Z" fill="#FFFFFF" />
</svg>