<svg xmlns="http://www.w3.org/2000/svg" fill="none" viewBox="0 0 243 243">
  <g clip-path="url(#a)">
    <circle cx="121.7" cy="141.7" r="98.3" fill="#03CE6A" stroke="#F1F8F3" stroke-width="6"/>
    <path fill="#C5E4FA" d="M41.8 39.8h189.8v129H41.8v-129Z"/>
    <path fill="#E3F2FF" d="M231.6 95 157.8 169H227l4.6-4.6V95Zm0-46L111.7 168.9h27.7l92.2-92.3V49Zm-32.3-9.2-129 129h23l129-129h-23Z"/>
    <path fill="#ACB7D0" d="M231.6 17H41.8a7.6 7.6 0 0 0-7.6 7.6v7.6c0 4.2 3.4 7.6 7.6 7.6h189.8c4.2 0 7.6-3.4 7.6-7.6v-7.6c0-4.2-3.4-7.6-7.6-7.6Z"/>
    <path fill="#FAEFDE" d="M41.8 32.2a19 19 0 1 0 0 38 19 19 0 0 0 0-38Z"/>
    <path fill="#72CAAF" d="M68.3 153.7v-43.2l9.4 6.3a38 38 0 0 0 21.2 6.5h17a9.5 9.5 0 0 0 9.4-9.5 9.5 9.5 0 0 0-9.5-9.5h-11.4c-4 0-7.9-1.4-11.1-3.8L77.5 89.1a38 38 0 0 0-11.9-5.7l-5.2-1.5c-9.7-2.8-20-2.8-29.8 0a38 38 0 0 0-19.2 12.9c-5 6.2-7.6 13.8-7.6 21.7v35.3a9.5 9.5 0 0 0 9.5 9.5 9.5 9.5 0 0 0 9.5-9.5v1.9l-3.3 71.6a11.4 11.4 0 0 0 22.8 1l3.3-65 3.2 65a11.4 11.4 0 0 0 11.4 10.9 11.4 11.4 0 0 0 11.4-12l-3.3-71.5Z"/>
    <path fill="#5E2458" d="M83.5 142.5a3.8 3.8 0 0 0-3.8 3.8v7.6a3.8 3.8 0 1 0 7.6 0v-7.6a3.8 3.8 0 0 0-3.8-3.8Zm19 0a3.8 3.8 0 0 0-3.8 3.8v7.6a3.8 3.8 0 1 0 7.6 0v-7.6a3.8 3.8 0 0 0-3.8-3.8Zm19 0a3.8 3.8 0 0 0-3.8 3.8v7.6a3.8 3.8 0 1 0 7.6 0v-7.6a3.8 3.8 0 0 0-3.8-3.8Zm19 0a3.8 3.8 0 0 0-3.8 3.8v7.6a3.8 3.8 0 1 0 7.6 0v-7.6a3.8 3.8 0 0 0-3.8-3.8Zm19 0a3.8 3.8 0 0 0-3.8 3.8v7.6a3.8 3.8 0 1 0 7.6 0v-7.6a3.8 3.8 0 0 0-3.8-3.8Zm19 0a3.8 3.8 0 0 0-3.8 3.8v7.6a3.8 3.8 0 1 0 7.6 0v-7.6a3.8 3.8 0 0 0-3.8-3.8Zm19 0a3.8 3.8 0 0 0-3.9 3.8v7.6a3.8 3.8 0 1 0 7.6 0v-7.6a3.8 3.8 0 0 0-3.8-3.8Zm19 15.2a3.8 3.8 0 0 0 3.7-3.8v-7.6a3.8 3.8 0 1 0-7.6 0v7.6a3.8 3.8 0 0 0 3.8 3.8Zm-19-121.5h-15.3a3.8 3.8 0 1 0 0 7.6h15.2a3.8 3.8 0 0 0 0-7.6ZM53.1 102.4h-7.6a3.8 3.8 0 0 0 0 7.6h7.6a3.8 3.8 0 1 0 0-7.6Z"/>
    <path fill="#5E2458" d="M231.6 13.4h-81l-3.9-7.6a11.4 11.4 0 0 0-10-6 11.4 11.4 0 0 0-10.1 6.4l-3.5 7.2H41.8a11.4 11.4 0 0 0-11.4 11.4v6.7A22.8 22.8 0 0 0 38 73.6v3c-2.9.4-5.7 1-8.4 1.8a41.5 41.5 0 0 0-21.2 14A38.7 38.7 0 0 0 0 116.6v35.3A13.3 13.3 0 0 0 18.5 164l-2.7 61.1a15.2 15.2 0 0 0 29.8 4.8 15.2 15.2 0 0 0 29.8-4.8L73 173h53.2L103 212.5a3.8 3.8 0 0 0 6.6 3.8l25.4-43.5h1.7v18.8a3.8 3.8 0 1 0 7.6 0V173h1.7l25.4 43.4a3.8 3.8 0 0 0 6.6-3.8L154.8 173H224a11.4 11.4 0 0 0 11.4-11.4V43a11.4 11.4 0 0 0 7.6-10.7v-7.6a11.4 11.4 0 0 0-11.4-11.4Zm-98.4-4a3.8 3.8 0 0 1 3.5-2 3.8 3.8 0 0 1 3.4 2l1.9 3.8h-10.6l1.8-3.8ZM25.8 51.2a16 16 0 1 1 32 0 16 16 0 0 1-32 0Zm38.7 102.5 3.3 71.6a7.6 7.6 0 0 1-8.3 8.1 7.9 7.9 0 0 1-7-7.6l-3.1-64.5a3.8 3.8 0 0 0-7.6 0l-3.3 64.5a8 8 0 0 1-6.9 7.6 7.6 7.6 0 0 1-8.3-7.9l3.3-71.8v-43a3.8 3.8 0 1 0-7.6 0v41a5.7 5.7 0 1 1-11.4 0v-34.1a32.5 32.5 0 0 1 24-32c9.1-2.6 18.8-2.6 27.8 0a65 65 0 0 1 20.3 9.9l11.4 8.2c4 2.9 8.6 4.4 13.4 4.4h11.4a5.7 5.7 0 0 1 0 11.4h-17c-6.7 0-13.3-2-19-5.8l-9.4-6.4a3.8 3.8 0 0 0-6 3.2v43.2Zm171-121.5a3.8 3.8 0 0 1-3.9 3.8h-19a3.8 3.8 0 1 0 0 7.6h15.2v117.7a3.8 3.8 0 0 1-3.8 3.8H72.7l-.6-11.4v-36l3.5 2.3c6.9 4.6 15 7 23.3 7h16.5a13.5 13.5 0 0 0 13.4-10.4 13.3 13.3 0 0 0-13-16h-11.4c-3.2 0-6.3-1-9-3l-12.9-9.3a61.5 61.5 0 0 0-19-9.4l-2-.6a58 58 0 0 0-16-2.2v-2.5a22.8 22.8 0 0 0 17.8-29.8H167a3.8 3.8 0 0 0 0-7.6H58.9a22.4 22.4 0 0 0-21-7.6v-3.8a3.8 3.8 0 0 1 3.9-3.8h189.8a3.8 3.8 0 0 1 3.8 3.8v7.4Z"/>
    <path fill="#fff" d="m134.8 58.8 4.7 8.5 8.6 4.7-8.6 4.7-4.7 8.6-4.7-8.6-8.6-4.7 8.6-4.7 4.7-8.5Zm64.2 19 3.3 5.9 6 3.2-6 3.3-3.3 6-3.2-6-6-3.3 6-3.2 3.2-6Zm-38 37.9 2 3.5 3.5 1.9-3.5 1.9-2 3.5-1.8-3.5-3.5-2 3.5-1.8 1.9-3.5Z"/>
  </g>
  <defs>
    <clipPath id="a">
      <path fill="#fff" d="M0 0h243v243H0z"/>
    </clipPath>
  </defs>
</svg>