<svg xmlns="http://www.w3.org/2000/svg" fill="none" viewBox="0 0 244 243">
  <circle cx="131.7" cy="123" r="98.3" fill="#DB3541" stroke="#F1F8F3" stroke-width="6"/>
  <path fill="#FAEFDE" d="M214.3 43.3a58.9 58.9 0 0 0-83.5 0l-10.3 9.9-10.2-10a58.9 58.9 0 0 0-83.6 0 58.9 58.9 0 0 0 0 83.6l18.7 18.7a13.4 13.4 0 0 0 18 18.2l1 .8c-2.8 5.1-2 11.6 2.2 15.9 4.3 4.2 10.7 5 15.7 2.3l1 .9a13.4 13.4 0 0 0 18 18l1 1a13.4 13.4 0 0 0 21.2 15.7L143 199c.7-.6 1.2-1.3 1.7-2l2.8-2.8a13.4 13.4 0 0 0 18.9-18.9l.1-.1a13.4 13.4 0 0 0 18.9-18.9 13.4 13.4 0 0 0 19-19l10-10a59.4 59.4 0 0 0 0-84Z"/>
  <path fill="#EFD8BE" d="M45.1 146c3.7-5.7 8.1-11 13.2-15.6l-16.7-16.6a40.5 40.5 0 0 1-11.8-28.4 15.2 15.2 0 0 0-18.6-14.8c-4.9 19.5.2 41 15.5 56.2l18.7 18.7-.3.6Z"/>
  <path fill="#5E2458" d="M44.9 126.2a3.8 3.8 0 0 1-2.7-6.5l5.4-5.4a3.8 3.8 0 1 1 5.3 5.4l-5.3 5.4c-.8.7-1.7 1-2.7 1Zm-13-15.2a3.8 3.8 0 0 1-1.9-7l6.6-3.8a3.8 3.8 0 1 1 3.8 6.5l-6.6 3.8c-.6.4-1.3.5-1.9.5ZM26 91.3a3.8 3.8 0 0 1-.2-7.6l7.6-.4c2 0 3.9 1.5 4 3.6a3.8 3.8 0 0 1-3.6 4l-7.6.4H26Z"/>
  <path fill="#EFD8BE" d="m229.9 70.8-2-.2c-8.3 0-15.1 6.8-15.1 15.2a38 38 0 0 1-12 28l-9 9.1c2.2 2.3 4.1 4.8 6.2 7.3 1.3 1.6 2.7 3.2 4.2 4.6l1.4 1.3 1.2.6 9.5-9.5a60 60 0 0 0 15.6-56.4Z"/>
  <path fill="#5E2458" d="M217.3 41a62.6 62.6 0 0 0-88.8 0l-6.8 6.8-6.9-6.8a62.6 62.6 0 0 0-107 44.8c0 16.7 6 32.7 17.8 44.4l17 17c1.1-2.4 2.9-4.4 5-6L31 124.5a55.5 55.5 0 0 1-16.3-39c0-14.9 6-28.5 16.7-38.8a54.3 54.3 0 0 1 77.8 0l6.9 6.8-.3.3c.5.2 1 .7 1.4 1.2l.8 5.7 10.6-9 5.3-5.4a55.2 55.2 0 1 1 77.8 78.2l-10 10.2.3.3c2 1.9 3.3 4.2 4 6.7l11.4-11.5a63.5 63.5 0 0 0 0-89.2Z"/>
  <path fill="#5E2458" d="M171 106.3c-1 0-2-.4-2.7-1.1l-7.6-7.6a30 30 0 0 0-37-4.4l-11.2 6.8a29.7 29.7 0 0 1-34-2 8.2 8.2 0 0 1-3-7c0-2.5 1.3-4.8 3.4-6.3l25-21A413.5 413.5 0 0 0 126.6 43a3.8 3.8 0 1 1 5.3 5.3c0 .2-11.6 11.7-23.2 21.4l-25 21-.4.3c-.2.1-.3.4-.3.5 0 .2 0 .4.3.6a22 22 0 0 0 25.2 1.6l11.1-6.9c15-9.2 34-7 46.5 5.5l7.6 7.6a3.8 3.8 0 0 1-2.7 6.5ZM114 226a17.2 17.2 0 0 1-12.1-29.3l19.4-19.4a17.1 17.1 0 0 1 24.3 0 17.1 17.1 0 0 1 0 24.3L126.2 221c-3.3 3.4-7.7 5-12.1 5Zm19.4-46.2c-2.5 0-5 1-6.8 2.8L107.3 202a9.6 9.6 0 0 0 13.6 13.6l19.3-19.3a9.6 9.6 0 0 0 0-13.7 9.6 9.6 0 0 0-6.8-2.8Z"/>
  <path fill="#5E2458" d="M95 207A17.2 17.2 0 0 1 83 177.8l19.4-19.4a17.1 17.1 0 0 1 24.3 0 17.1 17.1 0 0 1 0 24.3L107.3 202c-3.4 3.4-7.8 5-12.2 5Zm19.5-46.2c-2.6 0-5 1-6.9 2.9L88.3 183a9.6 9.6 0 0 0 13.6 13.7l19.4-19.4a9.6 9.6 0 0 0 0-13.6 9.6 9.6 0 0 0-6.8-2.9Z"/>
  <path fill="#5E2458" d="M76 188a17.2 17.2 0 0 1-12-29.3l19.3-19.4a17.1 17.1 0 0 1 24.3 0 17.1 17.1 0 0 1 0 24.4L88.3 183c-3.4 3.4-7.8 5-12.2 5ZM95.6 142c-2.6 0-5 1-6.8 2.8L69.3 164a9.6 9.6 0 0 0 13.6 13.6l19.4-19.4a9.6 9.6 0 0 0 0-13.6 9.6 9.6 0 0 0-6.8-2.8Z"/>
  <path fill="#5E2458" d="M57.1 169a17.2 17.2 0 0 1-12.2-29.3l19.4-19.4a17.1 17.1 0 0 1 24.4 0 17.1 17.1 0 0 1 0 24.4L69.3 164c-3.4 3.3-7.8 5-12.2 5ZM76.5 123c-2.6 0-5 1-6.8 2.8L50.3 145a9.6 9.6 0 0 0 13.6 13.6l19.4-19.4a9.6 9.6 0 0 0 0-13.6 9.6 9.6 0 0 0-6.8-2.8ZM156.2 201.2c-4.6 0-9-1.8-12.2-5a3.8 3.8 0 1 1 5.4-5.4 9.9 9.9 0 0 0 13.6 0 9.6 9.6 0 0 0 0-13.6l-28.8-28.9a3.8 3.8 0 1 1 5.3-5.3l28.9 28.8a17.1 17.1 0 0 1 0 24.4c-3.3 3.2-7.6 5-12.2 5Z"/>
  <path fill="#5E2458" d="M175.2 182.3c-4.6 0-9-1.8-12.2-5.1l-28.8-28.9a3.8 3.8 0 1 1 5.3-5.3l28.9 28.8a9.9 9.9 0 0 0 13.6 0 9.6 9.6 0 0 0 0-13.6l-28.9-28.9a3.8 3.8 0 1 1 5.4-5.3l28.9 28.9a17.1 17.1 0 0 1 0 24.3c-3.3 3.3-7.6 5-12.2 5Z"/>
  <path fill="#5E2458" d="M194.2 163.3c-4.6 0-9-1.8-12.2-5l-28.9-29a3.8 3.8 0 1 1 5.4-5.3l28.9 28.9a9.9 9.9 0 0 0 13.6 0c1.8-1.8 2.9-4.5 3-7.5.2-3-.6-5.2-1.5-6l-41.8-41.8a3.8 3.8 0 1 1 5.4-5.4l41.8 41.8c2.6 2.6 4 7 3.7 11.8-.3 4.8-2.2 9.4-5.2 12.4-3.3 3.3-7.6 5-12.2 5Z"/>
</svg>