<svg xmlns="http://www.w3.org/2000/svg" fill="none" viewBox="0 0 242 243">
  <path fill="#FF9737" stroke="#F1F8F3" stroke-width="6" d="M210 141.73C210 196 166 240 111.73 240c-54.27 0-98.27-44-98.27-98.27 0-54.27 44-98.27 98.27-98.27 54.27 0 98.27 44 98.27 98.27Z"/>
  <path fill="#85CBF8" d="M71.84 166.87h-30.7c-12.28 0-22.23 10-22.23 22.32v30.84h75.8v-22.79L115.1 106a13.19 13.19 0 0 0-13.03-15.06 13.17 13.17 0 0 0-13 11.25l-17.24 64.7Z"/>
  <path fill="#5E2458" d="M94.7 223.83H18.9a3.79 3.79 0 0 1-3.77-3.8v-30.84a26.1 26.1 0 0 1 26-26.11h27.81l16.43-61.68a16.85 16.85 0 0 1 16.7-14.26 16.9 16.9 0 0 1 12.8 5.85 17.03 17.03 0 0 1 3.97 13.53L98.5 197.67v22.36c0 2.1-1.7 3.8-3.78 3.8Zm-72.01-7.6h68.23v-18.98c0-.28.03-.56.1-.83l20.4-91.26a9.35 9.35 0 0 0-2.27-7.19 9.34 9.34 0 0 0-16.34 4.77l-.09.42-17.23 64.69a3.78 3.78 0 0 1-3.65 2.81h-30.7a18.52 18.52 0 0 0-18.45 18.53v27.04Z"/>
  <path fill="#5E2458" d="M37.81 208.64a3.79 3.79 0 0 1-3.78-3.8v-7.6a3.79 3.79 0 1 1 7.56 0v7.6c0 2.1-1.69 3.8-3.78 3.8Zm18.9 0a3.79 3.79 0 0 1-3.77-3.8v-7.6a3.79 3.79 0 1 1 7.56 0v7.6c0 2.1-1.7 3.8-3.78 3.8Zm18.91 0a3.79 3.79 0 0 1-3.78-3.8v-7.6a3.79 3.79 0 1 1 7.57 0v7.6c0 2.1-1.7 3.8-3.78 3.8Z"/>
  <path fill="#72CAAF" d="M170.16 166.87h37.8a22.8 22.8 0 0 1 22.7 22.78v30.38h-75.63v-22.78L126.3 168.9a7.6 7.6 0 0 1-1.5-4.56v-27.23a11.35 11.35 0 1 1 22.69 0v11.43a7.6 7.6 0 0 0 2.2 5.37l20.48 12.96Z"/>
  <path fill="#5E2458" d="M230.66 223.83h-75.63a3.79 3.79 0 0 1-3.78-3.8v-21.2l-27.6-27.23a3.3 3.3 0 0 1-.38-.42 11.5 11.5 0 0 1-2.27-6.84v-27.23c0-6.55 4.16-12.33 10.34-14.4 4.67-1.56 9.64-.8 13.63 2.09a15 15 0 0 1 6.28 12.31v11.43c0 .88.31 1.75.87 2.43l19.13 12.1h36.72a26.56 26.56 0 0 1 26.47 26.58v30.38c0 2.1-1.7 3.8-3.78 3.8Zm-71.85-7.6h68.06v-26.58a18.97 18.97 0 0 0-18.9-18.98h-37.81c-.72 0-1.42-.2-2.02-.58l-20.47-12.97a3.7 3.7 0 0 1-.66-.53 11.34 11.34 0 0 1-3.32-8.05v-11.43a7.52 7.52 0 0 0-3.14-6.16 7.58 7.58 0 0 0-11.99 6.16v27.23c0 .74.22 1.47.62 2.09l28.5 28.11a3.8 3.8 0 0 1 1.13 2.7v19Z"/>
  <path fill="#5E2458" d="M211.75 208.64a3.79 3.79 0 0 1-3.78-3.8v-7.6a3.79 3.79 0 1 1 7.56 0v7.6c0 2.1-1.7 3.8-3.78 3.8Zm-18.9 0a3.79 3.79 0 0 1-3.79-3.8v-7.6a3.79 3.79 0 1 1 7.56 0v7.6c0 2.1-1.69 3.8-3.78 3.8Zm-18.91 0a3.79 3.79 0 0 1-3.78-3.8v-7.6a3.79 3.79 0 1 1 7.56 0v7.6c0 2.1-1.7 3.8-3.78 3.8Zm-41.44-84.57 15.11-53.16 7.28 2.08-15.12 53.16-7.27-2.08ZM98.31 60.56h7.56v30.38h-7.56V60.56Z"/>
  <path fill="#ED7899" d="m130.83 11.73 65.83 17.36-15.46 59.13-65.83-17.36 15.46-59.13Z"/>
  <path fill="#5E2458" d="M181.19 92.02a3.8 3.8 0 0 1-.96-.12L114.4 74.53a3.77 3.77 0 0 1-2.7-4.64l15.47-59.12a3.78 3.78 0 0 1 4.62-2.7l65.83 17.36a3.83 3.83 0 0 1 2.7 4.64l-15.48 59.12a3.79 3.79 0 0 1-3.65 2.83Zm-61.22-23.87 58.52 15.43 13.55-51.78-58.52-15.43-13.55 51.78Z"/>
  <path fill="#F283A5" d="M64.28 7.4h75.63v53.16H64.28V7.4Z"/>
  <path fill="#5E2458" d="M139.9 64.36H64.29a3.79 3.79 0 0 1-3.78-3.8V7.4c0-2.1 1.7-3.8 3.78-3.8h75.63a3.8 3.8 0 0 1 3.78 3.8v53.16c0 2.1-1.7 3.8-3.78 3.8Zm-71.84-7.6h68.06V11.2H68.06v45.56Z"/>
  <path fill="#FAEFDE" d="M189.06 106.12c-6.02 0-11.78 2.4-16.04 6.68a22.83 22.83 0 0 0 0 32.21 22.64 22.64 0 0 0 32.08 0 22.83 22.83 0 0 0 0-32.21 22.64 22.64 0 0 0-16.04-6.68Z"/>
  <path fill="#5E2458" d="M189.06 155.48a26.55 26.55 0 0 1-26.47-26.58 26.55 26.55 0 0 1 26.47-26.57 26.56 26.56 0 0 1 26.47 26.57 26.56 26.56 0 0 1-26.47 26.58Zm0-45.56a18.97 18.97 0 0 0-18.9 18.98 18.97 18.97 0 0 0 18.9 18.99c10.43 0 18.9-8.52 18.9-18.99a18.97 18.97 0 0 0-18.9-18.98Z"/>
  <path fill="#FAEFDE" d="M49.16 106.12c-6.02 0-11.8 2.4-16.05 6.68a22.83 22.83 0 0 0 0 32.21 22.64 22.64 0 0 0 32.09 0 22.83 22.83 0 0 0 0-32.21 22.64 22.64 0 0 0-16.04-6.68Z"/>
  <path fill="#5E2458" d="M49.16 155.48a26.56 26.56 0 0 1-26.47-26.58 26.56 26.56 0 0 1 26.47-26.57 26.56 26.56 0 0 1 26.47 26.57 26.56 26.56 0 0 1-26.47 26.58Zm0-45.56a18.97 18.97 0 0 0-18.91 18.98 18.97 18.97 0 0 0 18.9 18.99 18.97 18.97 0 0 0 18.91-18.99 18.97 18.97 0 0 0-18.9-18.98Z"/>
</svg>