<svg xmlns="http://www.w3.org/2000/svg" fill="none" viewBox="0 0 244 243">
  <circle cx="122.06" cy="130.64" r="98.27" fill="#593E8A" stroke="#F1F8F3" stroke-width="6"/>
  <path fill="#CDA1A7" d="M211.32 205.11 30.5 202.9a7.25 7.25 0 0 1-7.15-7.32l.62-50.64 195.3 2.4-.63 50.63a7.25 7.25 0 0 1-7.32 7.14Z"/>
  <path fill="#DEB4BA" d="M219.18 154.57c-.03 2.17-1.5 3.6-3.67 3.57l-188.05-2.3c-2.17-.03-3.6-1.5-3.58-3.66.03-2.17 1.5-3.6 3.66-3.57l188.06 2.3c2.17.02 3.6 1.49 3.58 3.66Z"/>
  <path fill="#ACB7D0" d="m219.26 147.34-195.29-2.4L46.3 94.59l151.9 1.86 21.07 50.9Z"/>
  <path fill="#FAEFDE" d="m60.14 145.39 21.7.26 21.52 14.73 28.93.36 21.88-14.2 28.93.35 1.55-126.58-86.8-1.06-.3 25.32a7.25 7.25 0 0 1-7.33 7.14l-28.93-.35-1.15 94.03Z"/>
  <path fill="#FFF7F0" d="m183.56 108.92.93-75.59-95.12 117.48 13.99 9.57 28.93.36 19.32-12.42 31.95-39.4ZM60.14 145.39l13.74.17L175.61 20.2l-16.28-.2-99.15 122.13-.04 3.26Zm.29-23.87L143.06 19.8l-5.43-.07-77.12 94.9-.08 6.88Z"/>
  <path fill="#BBDEF9" d="m97.45 51.8-36.16-.44 36.6-35.72-.44 36.16Z"/>
  <path fill="#fff" d="m112.97 113.48 4.24 8.37 8.27 4.44-8.37 4.24-4.44 8.27-4.24-8.38-8.27-4.44 8.37-4.23 4.44-8.27Zm11.56-86.67 3.18 5.83 5.39 2.96-5.47 3.19-3.32 5.38-2.82-5.46-5.75-3.32 5.82-2.83 2.97-5.75Zm36.04 69.17 2.12 4 3.96 1.86-4 2.12-2.22 3.95-1.76-4-3.95-2.22 4-1.76 1.85-3.95Z"/>
  <path fill="#5E2458" d="m221.22 135.42-17.64-36.38a10.9 10.9 0 0 0-9.7-6.27l-6.5-.08.84-68.72A10.66 10.66 0 0 0 177.5 13l-77.03-.94c-4.7-.06-9.42 1.7-12.72 5.27L63.22 41.25a18.42 18.42 0 0 0-5.58 12.6l-.46 37.25-6.5-.08a10.66 10.66 0 0 0-9.85 6.02L22.31 133a21.16 21.16 0 0 0-1.9 7.93l-.67 54.61a10.66 10.66 0 0 0 10.71 10.98l180.83 2.22c6.15.07 10.9-4.57 10.98-10.72l.67-54.6a21.3 21.3 0 0 0-1.71-7.99ZM92.39 22.44a7.73 7.73 0 0 1 1.82-1.42l-.29 23.5c-.02 2.17-1.49 3.6-3.66 3.58l-23.5-.3c.37-.71.73-1.07 1.47-1.78l24.16-23.58ZM28.78 136.32l18.52-35.94c.74-1.08 1.84-2.15 3.29-2.13l6.5.08-.4 32.55c-.02 2.17 1.41 3.63 3.58 3.66 2.17.03 3.63-1.4 3.66-3.57l.93-75.95 25.32.3c6.14.08 10.9-4.56 10.98-10.7l.3-25.32 75.95.93c2.17.02 3.6 1.49 3.58 3.66l-1.33 108.5c-.03 2.16 1.4 3.63 3.57 3.65 2.17.03 3.64-1.4 3.66-3.57l.4-32.55 6.51.08c1.45.02 2.52.76 3.23 2.21l17.64 36.39c.7 1.45 1.04 3.27 1.03 4.71v.36l-62.21-.76c-2.9-.03-5.8 1.02-7.64 3.16l-10.25 10a3.28 3.28 0 0 1-2.54 1.06l-30.02-.37a3.28 3.28 0 0 1-2.52-1.11l-10-10.25c-2.5-2.2-5.02-3.32-7.92-3.35l-54.97-.68v-.36c.02-1.44.4-3.25 1.15-4.69Zm182.59 65.17-180.83-2.2c-2.17-.03-3.6-1.5-3.57-3.67l.57-47.01 54.98.67c1.08.01 1.8.38 2.51 1.12l10 10.25a10.41 10.41 0 0 0 7.56 3.34l30.02.37c2.9.03 5.8-1.01 7.63-3.16l10.25-10a3.28 3.28 0 0 1 2.55-1.06l62.56.77-.57 47.01c-.03 2.17-1.5 3.6-3.66 3.57Z"/>
  <path fill="#5E2458" d="M38.13 170.44c-2.17-.03-3.64 1.4-3.66 3.57l-.1 7.23c-.02 2.17 1.41 3.64 3.58 3.66 2.17.03 3.64-1.4 3.66-3.57l.09-7.23c.03-2.17-1.4-3.64-3.57-3.66Zm18.08.22c-2.17-.03-3.63 1.4-3.66 3.57l-.09 7.23c-.02 2.17 1.4 3.64 3.57 3.66 2.17.03 3.64-1.4 3.66-3.57l.1-7.23c.02-2.17-1.4-3.63-3.58-3.66Zm18.08.22c-2.17-.03-3.63 1.4-3.66 3.57l-.09 7.24c-.02 2.17 1.4 3.63 3.58 3.66 2.17.02 3.63-1.4 3.66-3.58l.09-7.23c.02-2.17-1.4-3.63-3.58-3.66Zm18.09.22c-2.17-.03-3.64 1.4-3.66 3.57l-.1 7.24c-.02 2.17 1.4 3.63 3.58 3.66 2.17.02 3.63-1.4 3.66-3.57l.09-7.24c.02-2.17-1.4-3.63-3.57-3.66Zm18.08.22c-2.17-.02-3.63 1.4-3.66 3.58l-.09 7.23c-.03 2.17 1.4 3.63 3.57 3.66 2.17.03 3.64-1.4 3.66-3.57l.1-7.24c.02-2.17-1.41-3.63-3.58-3.66Zm21.7.27c-2.17-.03-3.64 1.4-3.66 3.57l-.1 7.23c-.02 2.17 1.41 3.64 3.58 3.66 2.17.03 3.64-1.4 3.66-3.57l.09-7.23c.03-2.17-1.4-3.63-3.57-3.66Zm18.08.22c-2.17-.03-3.63 1.4-3.66 3.57l-.09 7.24c-.03 2.16 1.4 3.63 3.57 3.66 2.17.02 3.64-1.4 3.66-3.58l.1-7.23c.02-2.17-1.4-3.63-3.58-3.66Zm18.08.22c-2.17-.03-3.63 1.4-3.66 3.57l-.09 7.24c-.02 2.17 1.4 3.63 3.58 3.66 2.17.02 3.63-1.4 3.66-3.57l.09-7.24c.02-2.17-1.4-3.63-3.58-3.66Zm18.09.22c-2.17-.03-3.64 1.4-3.66 3.57l-.1 7.24c-.02 2.17 1.4 3.63 3.58 3.66 2.17.03 3.63-1.4 3.66-3.57l.09-7.24c.03-2.17-1.4-3.63-3.57-3.66Zm18.08.22c-2.17-.02-3.64 1.4-3.66 3.57l-.1 7.24c-.02 2.17 1.41 3.63 3.58 3.66 2.17.03 3.64-1.4 3.66-3.57l.1-7.24c.02-2.17-1.41-3.63-3.58-3.66Zm-63.95-94.82 21.7.26c2.17.03 3.63-1.4 3.66-3.57.03-2.17-1.4-3.63-3.57-3.66l-21.7-.27c-2.17-.02-3.63 1.4-3.66 3.58-.03 2.17 1.4 3.63 3.57 3.66Zm-57.86-.71 43.4.53c2.17.03 3.63-1.4 3.66-3.57.02-2.17-1.4-3.64-3.58-3.66l-43.4-.53c-2.16-.03-3.63 1.4-3.66 3.57-.02 2.17 1.4 3.63 3.58 3.66ZM82.5 91.4l61.48.75c2.17.02 3.64-1.4 3.66-3.58.03-2.16-1.4-3.63-3.57-3.66l-61.48-.75c-2.17-.02-3.64 1.4-3.66 3.57-.03 2.17 1.4 3.64 3.57 3.67Zm-.18 14.46 47.02.58c2.17.02 3.63-1.4 3.66-3.58.03-2.17-1.4-3.63-3.57-3.66l-47.02-.57c-2.17-.03-3.63 1.4-3.66 3.57-.03 2.17 1.4 3.64 3.57 3.66Z"/>
</svg>