<svg xmlns="http://www.w3.org/2000/svg" fill="none" viewBox="0 0 244 243">
    <circle cx="122" cy="126.47" r="98.27" fill="#FF9737" stroke="#F1F8F3" stroke-width="6" />
    <path fill="#EFD8BE"
        d="m167.83 39.64 9.68 140.8-108.8 7.48.66 9.6a9.62 9.62 0 0 0 10.26 8.94l115.2-7.92a9.62 9.62 0 0 0 8.94-10.26l-9.68-140.8a9.62 9.62 0 0 0-10.26-8.94l-16 1.1Z" />
    <path fill="#FAEFDE"
        d="m71.27 26.8 85.63-5.89a9.63 9.63 0 0 1 10.26 8.94l9.68 140.8a9.62 9.62 0 0 1-8.94 10.26l-115.2 7.92a9.62 9.62 0 0 1-10.26-8.94L34.8 68.66a9.62 9.62 0 0 1 2.35-6.98l27.53-31.6a9.62 9.62 0 0 1 6.59-3.28Z" />
    <path fill="#FFF7F0"
        d="m172.23 103.64-5.07-73.79c0-.52-.03-1.05-.1-1.57L41.88 171.92l.56 8.13a9.62 9.62 0 0 0 10.26 8.94l48.2-3.31 71.32-82.04ZM39.15 139 141.09 22l18.46-.46L40.92 157.68 39.15 139Zm-1.32-19.2 83.89-96.27 9.6-.66L38.48 129.4l-.66-9.6Z" />
    <path fill="#fff"
        d="m144.27 47.7 4.47 6.95 7.5 3.47-6.96 4.47-3.47 7.5-4.46-6.96-7.5-3.47 6.95-4.46 3.47-7.5Zm-48.7-3.09 3.07 4.8 5.22 2.41-4.84 3.07-2.38 5.2-3.1-4.83-5.17-2.37 4.8-3.1 2.4-5.18ZM58.35 146.84l2.08 3.26 3.56 1.66-3.3 2.09-1.62 3.55-2.12-3.3-3.52-1.62 3.26-2.12 1.66-3.52Z" />
    <path fill="#BBDEF9" d="m70.52 27.04 2.64 38.4-38.4 2.64 35.76-41.04Z" />
    <path fill="#5E2458"
        d="m125.9 84.32 12.8-.88a3.2 3.2 0 1 0-.45-6.4l-12.8.88a3.2 3.2 0 0 0 .44 6.4Zm-57.6 3.96 44.8-3.08a3.2 3.2 0 1 0-.45-6.4l-44.8 3.08a3.2 3.2 0 1 0 .45 6.4Zm.87 12.8 57.6-3.96a3.2 3.2 0 1 0-.44-6.4l-57.6 3.96a3.2 3.2 0 0 0 .44 6.4Zm2.2 32 32-2.2a3.2 3.2 0 1 0-.44-6.4l-32 2.2a3.2 3.2 0 1 0 .44 6.4Zm-.88-12.8 64-4.4a3.2 3.2 0 1 0-.44-6.4l-64 4.4a3.2 3.2 0 1 0 .44 6.4Zm-10.16 39.28a3.21 3.21 0 0 0-2.98 3.42l.44 6.4a3.2 3.2 0 1 0 6.4-.44l-.44-6.4a3.2 3.2 0 0 0-3.42-2.98Zm16-1.1a3.21 3.21 0 0 0-2.98 3.42l.44 6.4a3.2 3.2 0 1 0 6.4-.44l-.44-6.4a3.2 3.2 0 0 0-3.42-2.98Zm16-1.1a3.2 3.2 0 0 0-2.98 3.42l.44 6.4a3.2 3.2 0 1 0 6.4-.44l-.44-6.4a3.2 3.2 0 0 0-3.42-2.98Zm16-1.1a3.2 3.2 0 0 0-2.98 3.42l.44 6.4a3.21 3.21 0 0 0 6.4-.44l-.44-6.4a3.2 3.2 0 0 0-3.42-2.98Zm16-1.1a3.2 3.2 0 0 0-2.98 3.42l.44 6.4a3.2 3.2 0 1 0 6.4-.44l-.44-6.4a3.2 3.2 0 0 0-3.42-2.98Zm16-1.1a3.2 3.2 0 0 0-2.98 3.42l.44 6.4a3.2 3.2 0 1 0 6.4-.44l-.44-6.4a3.21 3.21 0 0 0-3.42-2.98Zm16.88 11.7a3.21 3.21 0 0 0 2.98-3.42l-.44-6.4a3.2 3.2 0 0 0-6.4.44l.44 6.4a3.2 3.2 0 0 0 3.42 2.98Z" />
    <path fill="#5E2458"
        d="m186.81 35.12-16 1.1-.66-9.6a9.62 9.62 0 0 0-10.26-8.94L72.41 23.7a16.04 16.04 0 0 0-11 5.45L35.58 58.77A16.04 16.04 0 0 0 31.7 70.4l7.78 113.1a9.62 9.62 0 0 0 10.26 8.93l16-1.1.65 9.6a9.62 9.62 0 0 0 10.26 8.94l121.6-8.36a9.62 9.62 0 0 0 8.94-10.26l-10.12-147.2a9.62 9.62 0 0 0-10.26-8.94ZM66.26 33.38c.41-.48.88-.93 1.39-1.32l1.87 27.2a3.2 3.2 0 0 1-2.98 3.42l-27.2 1.87c.31-.55.69-1.07 1.11-1.55l25.8-29.62ZM45.88 183.06l-.66-9.6a3.2 3.2 0 0 0 2.98-3.42l-.44-6.4a3.2 3.2 0 0 0-3.42-2.98l-6.16-89.6 28.8-1.98a9.62 9.62 0 0 0 8.94-10.26l-1.98-28.8 86.4-5.94a3.2 3.2 0 0 1 3.41 2.98l8.58 124.8a3.2 3.2 0 0 0-2.98 3.42l.44 6.4a3.21 3.21 0 0 0 3.42 2.98l.66 9.6a3.2 3.2 0 0 1-2.98 3.42l-121.6 8.36a3.2 3.2 0 0 1-3.41-2.98Zm154.91 8.64a3.21 3.21 0 0 1-2.98 3.42l-121.6 8.36a3.2 3.2 0 0 1-3.42-2.98l-.66-9.6 99.2-6.82a9.62 9.62 0 0 0 8.94-10.26l-9.02-131.2 16-1.1a3.2 3.2 0 0 1 3.42 2.98l10.12 147.2Z" />
</svg>