<svg xmlns="http://www.w3.org/2000/svg" fill="none" viewBox="0 0 242 243">
    <path fill="#65BBFE" stroke="#F1F8F3" stroke-width="6"
        d="M223.08 132c0 54.28-44 98.28-98.27 98.28-54.27 0-98.27-44-98.27-98.27 0-54.27 44-98.27 98.27-98.27 54.28 0 98.27 44 98.27 98.27Z" />
    <path fill="#FAEFDE"
        d="m29.67 195.17 157.2 17.53a13.46 13.46 0 0 0 14.87-11.88l17.53-157.2a10.1 10.1 0 0 0-8.91-11.16L69.88 16.8a10.1 10.1 0 0 0-11.16 8.91l-17.9 160.55-11.15 8.91Z" />
    <path fill="#FFF7F0"
        d="M213.7 32.83 66.53 16.43a6.73 6.73 0 0 0-1.49 13.37l147.17 16.41a6.73 6.73 0 0 0 1.5-13.38Z" />
    <path fill="#EB9697" d="m108.35 127.28-12.63-8.18-20.81 4.45 3.35-30.1 33.45 3.73-3.36 30.1Z" />
    <path fill="#F9E3AE"
        d="m78.33 67.58-3.3-5.88 6.62-1.4a3.67 3.67 0 0 0 2.88-3.06l.75-6.7 6.2 2.76a3.7 3.7 0 0 0 4.19-.85l4.67-5.17 3.38 5.87a3.7 3.7 0 0 0 3.9 1.75l6.65-1.32-.75 6.69a3.67 3.67 0 0 0 2.14 3.62l6.15 2.82-4.52 5.05a3.67 3.67 0 0 0-.48 4.28l3.35 6.1-6.63 1.4a3.67 3.67 0 0 0-2.88 3.06l-.74 6.69-6.2-2.76a3.7 3.7 0 0 0-4.19.85l-4.67 5.14-3.38-5.86a3.7 3.7 0 0 0-3.9-1.76l-6.65 1.32.75-6.69a3.67 3.67 0 0 0-2.14-3.62l-6.2-3 4.53-5.04a3.67 3.67 0 0 0 .47-4.29Z" />
    <path fill="#F6D397"
        d="m116.4 74-37.6-4.2c-.09.77-.42 1.5-.94 2.07l-4.53 5.05 6.16 2.81a3.67 3.67 0 0 1 2.13 3.63l-.74 6.69 6.65-1.33a3.7 3.7 0 0 1 3.9 1.76l3.42 6.04 4.59-4.98a3.7 3.7 0 0 1 4.19-.85l6.2 2.76.74-6.7a3.66 3.66 0 0 1 2.88-3.06l6.7-1.55-3.3-5.93a3.66 3.66 0 0 1-.46-2.21Z" />
    <path fill="#EFD8BE" d="m25.22 174.36 157.2 17.53-2.24 20.07-157.2-17.53 2.24-20.07Z" />
    <path fill="#5E2458"
        d="M189.12 162.16a3.37 3.37 0 0 0-3.72 2.97l-.74 6.69a3.37 3.37 0 0 0 6.69.75l.74-6.7a3.37 3.37 0 0 0-2.97-3.71Z" />
    <path fill="#EB9697"
        d="M185.05 151.92a3.36 3.36 0 0 0-4.67.9 29.84 29.84 0 0 1-9.35 7.56l-.4-.05a18.8 18.8 0 0 0 2.51-6.73 10.1 10.1 0 0 0-3.7-9.92 6.5 6.5 0 0 0-6.98.06c-1.53.98-5.06 4.11-4.12 12.04a12.63 12.63 0 0 0 2.91 6.35 19.41 19.41 0 0 1-6.16 5.17 2.3 2.3 0 0 1-1.01.26 2.6 2.6 0 0 1-.89-.53c-.73-.61-1.39-1.3-1.97-2.05a55.7 55.7 0 0 0 5.26-16.82c1.17-7.42.2-13.32-2.5-17.01-3.7-4.85-7.27-4.4-9.04-3.72-6.16 2.4-7.4 13.47-6.45 22.99a39.91 39.91 0 0 0 4.92 14.74 29.52 29.52 0 0 1-7.22 8.23 3.37 3.37 0 1 0 4.04 5.4 34.43 34.43 0 0 0 7.26-7.73c.42.42.86.82 1.33 1.2a8.71 8.71 0 0 0 3.8 1.95c1.68.29 3.4.07 4.95-.64a26.93 26.93 0 0 0 8.97-7.16 9.12 9.12 0 0 0 6.45.72 34.39 34.39 0 0 0 12.96-10.27 3.36 3.36 0 0 0-.9-4.94Zm-35.12-4.8a47.85 47.85 0 0 1-2.78 10.36c-1-2.46-1.68-5.04-2-7.67-.92-9.9 1.06-14.96 2.09-15.96.53.38 1 .84 1.37 1.37 1.79 3.7 2.25 7.9 1.32 11.9Zm15.42 9a3.96 3.96 0 0 1-.32-1.12 7.6 7.6 0 0 1 .83-5.6c.2.03.86 1.08.6 3.46a10.1 10.1 0 0 1-1.11 3.26Z" />
    <path fill="#5E2458"
        d="M214.07 29.49 66.91 13.08a10.1 10.1 0 0 0-11.16 8.91L38.97 172.51 25.59 171a6.73 6.73 0 0 0-7.44 5.95l-.74 6.69a13.46 13.46 0 0 0 11.89 14.87l160.54 17.9a13.46 13.46 0 0 0 14.88-11.89l18.27-163.89a10.1 10.1 0 0 0-8.92-11.15ZM30.04 191.83a6.73 6.73 0 0 1-5.94-7.44l.74-6.69 153.86 17.16-.74 6.69c-.24 2.36.15 4.74 1.12 6.9L30.04 191.83Zm167.99 11.96a6.73 6.73 0 1 1-13.38-1.5l.74-6.68a6.73 6.73 0 0 0-5.94-7.44l-133.8-14.92 16.8-150.51a3.37 3.37 0 0 1 3.71-2.97l147.17 16.4a3.37 3.37 0 0 1 2.97 3.73l-18.28 163.89Z" />
    <path fill="#5E2458"
        d="M62.02 147.99a3.37 3.37 0 0 0-3.72 2.97l-.74 6.69a3.37 3.37 0 1 0 6.69.74l.74-6.69a3.36 3.36 0 0 0-2.97-3.71Zm16.73 1.86a3.37 3.37 0 0 0-3.72 2.97l-.75 6.7a3.37 3.37 0 0 0 6.7.74l.74-6.7a3.37 3.37 0 0 0-2.97-3.7Zm16.72 1.87a3.36 3.36 0 0 0-3.72 2.97l-.74 6.69a3.36 3.36 0 1 0 6.68.74l.75-6.69a3.37 3.37 0 0 0-2.97-3.71Zm16.72 1.86a3.36 3.36 0 0 0-3.72 2.97l-.74 6.7a3.37 3.37 0 0 0 6.69.74l.74-6.7a3.36 3.36 0 0 0-2.97-3.7Zm16.73 1.86a3.37 3.37 0 0 0-3.72 2.98l-.75 6.69a3.36 3.36 0 1 0 6.7.74l.74-6.69a3.36 3.36 0 0 0-2.97-3.72Zm43.89-89.92 20.06 2.24a3.37 3.37 0 1 0 .75-6.69l-20.07-2.24a3.37 3.37 0 0 0-.74 6.7Zm-26.76-2.98 13.38 1.49a3.36 3.36 0 1 0 .74-6.69l-13.38-1.5a3.37 3.37 0 0 0-.74 6.7Zm-1.5 13.38L178 79.65a3.36 3.36 0 1 0 .75-6.7l-33.45-3.72a3.36 3.36 0 1 0-.74 6.69Zm29.72 37.17a3.37 3.37 0 0 0-.74 6.7l6.69.74a3.37 3.37 0 0 0 .74-6.69l-6.69-.75Zm-10.4 2.23a3.37 3.37 0 0 0-2.97-3.72l-20.07-2.23a3.36 3.36 0 1 0-.75 6.68l20.07 2.24a3.36 3.36 0 0 0 3.72-2.97Zm-22.3-12.64 46.83 5.22a3.37 3.37 0 0 0 .75-6.7L142.32 96a3.36 3.36 0 1 0-.75 6.69Zm-12.83-36.79a3.36 3.36 0 0 0-1.9-2.38l-7.6-3.52.94-8.4a3.35 3.35 0 0 0-4.01-3.83l-8.18 1.66-4.17-7.24a3.36 3.36 0 0 0-5.42-.6l-5.66 6.14-7.6-3.42a3.36 3.36 0 0 0-4.76 2.86l-.94 8.4-8.16 1.76a3.37 3.37 0 0 0-2.24 4.96l4.1 7.23-5.6 6.15a3.37 3.37 0 0 0 1.1 5.34l7.47 3.47-4.55 40.88a3.37 3.37 0 0 0 4.23 3.62l15.94-4.5 14.8 7.92a3.36 3.36 0 0 0 4.93-2.6l4.53-40.6 8.05-1.74a3.36 3.36 0 0 0 2.24-4.97l-4.1-7.23 5.6-6.15a3.37 3.37 0 0 0 .96-3.2Zm-35.02 52c-.76-.4-1.64-.5-2.47-.27l-12.69 3.5 2.76-24.72 5.96-1.2 4.17 7.24a3.37 3.37 0 0 0 5.45.6l5.66-6.14 5.55 2.48-2.76 24.72-11.63-6.2Zm21.37-41.63 3.08 5.52-6.08 1.32a3.37 3.37 0 0 0-2.66 2.92l-.7 6.22-5.6-2.52a3.37 3.37 0 0 0-3.89.82l-4.23 4.54-3.06-5.39a3.37 3.37 0 0 0-2.55-1.67c-.34-.1-.69-.13-1.04-.12l-6.08 1.4.7-6.23a3.37 3.37 0 0 0-1.96-3.43L75.35 77l4.18-4.69a3.37 3.37 0 0 0 .44-3.88l-3.05-5.48L83 61.64a3.37 3.37 0 0 0 2.67-2.92l.69-6.22 5.61 2.52a3.37 3.37 0 0 0 3.89-.82l4.23-4.54 3.05 5.38a3.36 3.36 0 0 0 3.61 1.66l6.07-1.25-.7 6.22a3.37 3.37 0 0 0 1.96 3.43l5.63 2.63-4.18 4.68a3.36 3.36 0 0 0-.4 3.88l-.03-.03Z" />
</svg>