<svg xmlns="http://www.w3.org/2000/svg" fill="none" viewBox="0 0 104 115">
  <circle cx="45" cy="69.09" r="43.5" fill="#03CE6A" stroke="#F1F8F3" stroke-width="3"/>
  <g clip-path="url(#a)">
    <path fill="#F4F8F8" d="M14.4 5.07A6.52 6.52 0 0 0 8 11.72l1.55 84a6.52 6.52 0 0 0 6.64 6.4L77.51 101a6.52 6.52 0 0 0 6.4-6.64l-1.3-70.42a4.94 4.94 0 0 0-1.51-3.47L65.65 5.57a4.94 4.94 0 0 0-3.52-1.38l-47.73.88Z"/>
    <path fill="#E7ECF1" d="m71.03 22.1-.42-.01 1.34 72.48a6.52 6.52 0 0 1-6.4 6.65l11.96-.23a6.52 6.52 0 0 0 6.4-6.64l-1.3-70.42a4.94 4.94 0 0 0-.48-2.04l-11.1.2Z"/>
    <path fill="#FC8086" d="M81.1 20.46 65.65 5.57a4.94 4.94 0 0 0-1.47-.97l.2 11.1a6.52 6.52 0 0 0 6.65 6.4l11.1-.2a4.95 4.95 0 0 0-1.03-1.44Z"/>
    <path fill="#C2D0DA" d="m62.8 81.29-4.58-3.5c-2.05 2.7-4.15 3.8-6.4 3.9a.36.36 0 0 0-.34.32l-.85 9.6c-.04.45.41.8.84.63l9.03-3.33a.36.36 0 0 0 .22-.42c-.49-2.2.02-4.52 2.08-7.2Z"/>
    <path fill="#7C8B96" d="m89.12 46.85-4.43-3.4-2.6.29L70 57.82a70.84 70.84 0 0 0-7.39 10.36l-5.09 8.7c-.41.71-.23 1.62.42 2.12l3.76 2.87c.65.5 1.57.43 2.15-.16l7.05-7.2a70.83 70.83 0 0 0 8.06-9.85l10.4-15.36-.25-2.45Zm5.06-11.39a4.01 4.01 0 0 0-5.49.58l-3 3.5-.05 2.01 4.76 3.64 2.07-.46 2.6-3.83a4.01 4.01 0 0 0-.9-5.44Z"/>
    <path fill="#C2D0DA" d="m82.09 43.74 7.28 5.56 3.1-4.57-6.78-5.19-3.6 4.2Z"/>
    <path fill="#BED8FB" d="m33.26 20.94-15.32.28a1.03 1.03 0 0 1-1.05-1l-.1-5.59a1.03 1.03 0 0 1 1-1.05l15.33-.28c.57 0 1.03.44 1.05 1.01l.1 5.58c0 .57-.44 1.04-1.01 1.05Z"/>
    <g fill="#5E2458">
      <path d="m95.55 48.34-2.48-1.9.62-.9 2.59-3.82a5.48 5.48 0 0 0-8.7-6.64l-3 3.5-3.6 4.2L68.9 56.87a72.48 72.48 0 0 0-7.54 10.58 1.46 1.46 0 0 0 2.53 1.48c2.1-3.59 4.53-7 7.23-10.15L82.3 45.74l5.08 3.89-9.63 14.2a69.54 69.54 0 0 1-7.88 9.65l-7.06 7.2a.17.17 0 0 1-.21.02l-3.76-2.87a.16.16 0 0 1-.04-.21l1.57-2.7a1.47 1.47 0 0 0-2.53-1.47l-1.57 2.69c-.38.65-.5 1.4-.37 2.1a6.16 6.16 0 0 1-4.15 1.98c-.91.05-1.65.76-1.73 1.66l-.85 9.6a2.09 2.09 0 0 0 2.8 2.14l9.04-3.34a1.83 1.83 0 0 0 1.15-2.1 6.16 6.16 0 0 1 .82-4.53c.71-.07 1.4-.38 1.93-.92l7.05-7.2a72.48 72.48 0 0 0 8.22-10.05l10.4-15.36.85-1.24 2.34 1.79c.37.28.44.81.16 1.18l-6.7 8.77a1.46 1.46 0 1 0 2.33 1.78l6.7-8.77a3.78 3.78 0 0 0-.71-5.3ZM54.78 89.46l2.37-3.11a1.46 1.46 0 0 0-2.33-1.78l-2.37 3.11.4-4.63a9.07 9.07 0 0 0 4.8-2.44l2.58 1.97a9.07 9.07 0 0 0-1.1 5.27l-4.35 1.6ZM89.8 36.99a2.55 2.55 0 0 1 4.04 3.09l-1.72 2.54-4.32-3.3 2-2.33Zm-3.91 4.56 4.58 3.5-1.45 2.15-4.82-3.68 1.69-1.97Zm-69.8 50.37c.3.75 1.15 1.12 1.9.83.07-.03 1.4-.56 3.09-1.4a6.23 6.23 0 0 0 3.44 1.22c3.67.19 5.41-.57 6.56-1.07.97-.42 1.07-.47 2.32.38 1.6 1.08 3.83 1.4 5.7 1.37.95-.02 1.8-.13 2.43-.28a1.47 1.47 0 0 0-.68-2.85c-1.24.3-4.22.4-5.8-.66-2.4-1.64-3.6-1.32-5.14-.65-1 .44-2.26.99-5.24.83-.14 0-.27-.02-.4-.04 3.19-1.97 4.8-3.84 4.9-5.7.07-1.09-.35-2.65-2.72-3.93-3.12-1.68-5.16-.6-6.1.19-1.92 1.63-2.61 4.93-1.62 7.85.12.36.26.7.42 1.02-1.28.61-2.22.99-2.24 1a1.47 1.47 0 0 0-.82 1.9Zm6.16-9.53a1.6 1.6 0 0 1 1.03-.37c.5-.01 1.1.17 1.78.53.37.2 1.22.7 1.19 1.18-.04.67-1.23 2.1-4.45 3.93l-.04.03c-.11-.22-.2-.43-.26-.61-.59-1.74-.25-3.84.75-4.69Zm34.47-50.12-39.6.73a1.46 1.46 0 1 0 .06 2.93l39.6-.73a1.46 1.46 0 1 0-.06-2.93Zm.16 8.59-39.6.73a1.46 1.46 0 1 0 .06 2.93l39.59-.73a1.46 1.46 0 1 0-.05-2.93Zm1.65 10.03a1.46 1.46 0 0 0-1.5-1.44l-39.59.73a1.46 1.46 0 1 0 .06 2.93l39.59-.73c.8-.01 1.45-.68 1.44-1.49ZM17.66 61.7l16.82-.3a1.46 1.46 0 0 0-.05-2.94l-16.83.32a1.46 1.46 0 1 0 .06 2.92Z"/>
      <path d="M83.37 65.09c-.8.01-1.45.68-1.44 1.49l.52 27.8a5.06 5.06 0 0 1-4.97 5.15l-61.32 1.13a5.06 5.06 0 0 1-5.15-4.96L9.46 11.69a5.06 5.06 0 0 1 4.97-5.15l47.73-.88c.2 0 .39 0 .58.04l.18 10.02a8 8 0 0 0 8.14 7.84l10.02-.18c.04.19.06.38.07.58l.2 11.28a1.46 1.46 0 1 0 2.93-.06l-.2-11.28a6.36 6.36 0 0 0-1.96-4.5L66.66 4.53a6.36 6.36 0 0 0-4.56-1.8l-47.73.89a8 8 0 0 0-7.84 8.13l1.55 84.01a8 8 0 0 0 8.14 7.84l61.32-1.13a8 8 0 0 0 7.84-8.14l-.52-27.8a1.46 1.46 0 0 0-1.49-1.43Zm-4.36-44.6-8 .14a5.06 5.06 0 0 1-5.16-4.96l-.15-8 13.31 12.81Z"/>
      <path d="m17.96 22.69 15.33-.29a2.5 2.5 0 0 0 2.44-2.54l-.1-5.58a2.5 2.5 0 0 0-2.54-2.44l-15.32.28a2.5 2.5 0 0 0-2.45 2.54l.1 5.58a2.5 2.5 0 0 0 2.54 2.45Zm.3-7.65 14.45-.27.09 4.71-14.45.27-.1-4.7Z"/>
    </g>
  </g>
  <defs>
    <clipPath id="a">
      <path fill="#fff" d="M0 0h100v100H0z" transform="rotate(-1.06 208.97 -77.8)"/>
    </clipPath>
  </defs>
</svg>