<svg xmlns="http://www.w3.org/2000/svg" fill="none" viewBox="0 0 512 512">
    <g clip-path="url(#a)">
        <path fill="#CDA1A7"
            d="m286.4 403.08-25.68 6.29-109.02-60.9 3.17 1.39 62.3 29.39a39.7 39.7 0 0 0 19.85 3.7l14.5-1.06a26.47 26.47 0 0 1 24.16 12.25c.25.38.47.78.67 1.2a14.3 14.3 0 0 0 10.06 7.74Z" />
        <path fill="#FAEFDE"
            d="m167.25 419.56 33.1 13.24a66.19 66.19 0 0 0 51.7-1.06l19.53-8.8a13.25 13.25 0 0 0 8.2-11.92v-2.71a26.47 26.47 0 0 0-28.4-26.48l-14.49 1.06c-6.83.5-13.67-.78-19.86-3.7l-62.29-29.4a79.43 79.43 0 0 0-43.1-7.02l-78.3 9.2a13.24 13.24 0 0 0-11.72 13.24v83.74a13.24 13.24 0 0 0 16.42 12.84l43.16-10.85a52.96 52.96 0 0 1 37.53 4.5l83.6 43.89a52.95 52.95 0 0 0 49.06 0l140.93-73.15a24.35 24.35 0 0 0 13.24-21.65 24.36 24.36 0 0 0-30.45-23.56l-95.32 24.89" />
        <path fill="#EFD8BE"
            d="m269.8 463.51-18.41 9.54a52.95 52.95 0 0 1-49.05 0L119 428.96a52.96 52.96 0 0 0-37.8-4.5l-59.58 14.96v9.53a13.24 13.24 0 0 0 16.42 12.84l43.16-10.85a52.96 52.96 0 0 1 37.53 4.5l83.6 43.89a52.95 52.95 0 0 0 49.06 0l47-24.36-2.25-3.98a19.86 19.86 0 0 0-26.35-7.48Z" />
        <path fill="#FFF7F0"
            d="m154.8 376.33 62.3 29.4a39.73 39.73 0 0 0 19.86 3.7l14.5-1.06a26.48 26.48 0 0 1 24.16 12.32l.66 1.19a13.24 13.24 0 0 0 15.49 7.41l113.2-29.59a24.3 24.3 0 0 0-29.93-18.73l-95.25 24.89a26.48 26.48 0 0 0-28.14-23.97l-14.5 1.06c-6.82.5-13.66-.78-19.85-3.7l-62.3-29.4a79.42 79.42 0 0 0-43.35-7.08l-78.31 9.2a13.24 13.24 0 0 0-11.72 13.24v14.63l90.03-10.59a79.44 79.44 0 0 1 43.16 7.08Z" />
        <path fill="#FFF7F0" d="m286.4 403.08 77.85-19.13-72.81 18.8c-1.65.4-3.35.5-5.03.33Z" />
        <path fill="#5E2458"
            d="M400.13 380.17a30.78 30.78 0 0 0-26.48-5.5l-88.96 23.05a33.1 33.1 0 0 0-33.76-22.45l-14.5 1.06a33.1 33.1 0 0 1-16.22-3.1l-62.3-29.4a86.06 86.06 0 0 0-46.8-7.61l-78.57 9.2A19.86 19.86 0 0 0 15 365.28v83.67a19.86 19.86 0 0 0 24.7 19.26l43.42-10.85a46.34 46.34 0 0 1 33.1 3.97l83.34 43.89a59.57 59.57 0 0 0 55.2 0l141-72.82a31.05 31.05 0 0 0 4.7-52.03l-.33-.2Zm-10.79 40.32-141 72.81a46.34 46.34 0 0 1-42.9 0l-83.33-43.69a59.58 59.58 0 0 0-42.17-5.1l-43.5 10.86a6.61 6.61 0 0 1-8.2-6.62v-83.6a6.62 6.62 0 0 1 5.82-6.62l78.31-9.2a72.81 72.81 0 0 1 39.72 6.62l62.3 29.39a46.33 46.33 0 0 0 23.1 4.3l14.5-1.06a19.85 19.85 0 0 1 21.31 19.86v2.71a6.62 6.62 0 0 1-3.9 6.03l-19.86 8.8a59.56 59.56 0 0 1-46.34 1l-33.1-13.24a6.62 6.62 0 1 0-4.9 12.3l33.1 13.25a73.15 73.15 0 0 0 56.93-1.2l19.86-8.8a19.86 19.86 0 0 0 11.32-18.27l90.35-23.43a17.74 17.74 0 0 1 12.65 33.1l-.07-.2Z" />
        <path fill="#CDA1A7"
            d="m223.6 111.14 25.68-6.29 109.02 60.9-3.17-1.39-62.3-29.39a39.73 39.73 0 0 0-19.85-3.7l-14.5 1.05a26.49 26.49 0 0 1-24.16-12.24 9.34 9.34 0 0 1-.66-1.2 14.3 14.3 0 0 0-10.07-7.74Z" />
        <path fill="#FAEFDE"
            d="m342.75 94.66-33.1-13.24a66.2 66.2 0 0 0-51.7 1.06l-19.53 8.8a13.24 13.24 0 0 0-8.2 11.92v2.71a26.49 26.49 0 0 0 28.4 26.48l14.49-1.06c6.83-.5 13.67.78 19.86 3.7l62.29 29.4a79.43 79.43 0 0 0 43.1 7.02l78.3-9.2A13.24 13.24 0 0 0 488.38 149V65.27a13.24 13.24 0 0 0-16.42-12.85L428.8 63.28a52.96 52.96 0 0 1-37.53-4.5l-83.6-43.89a52.96 52.96 0 0 0-49.06 0L117.68 88.04a24.36 24.36 0 0 0-13.24 21.64 24.35 24.35 0 0 0 30.45 23.57l95.32-24.89" />
        <path fill="#EFD8BE"
            d="m240.2 50.7 18.41-9.53a52.96 52.96 0 0 1 49.05 0L391 85.26a52.96 52.96 0 0 0 37.8 4.5l59.58-14.96v-9.53a13.24 13.24 0 0 0-16.42-12.84L428.8 63.27a52.96 52.96 0 0 1-37.53-4.5l-83.6-43.89a52.96 52.96 0 0 0-49.06 0l-47 24.36 2.25 3.97a19.86 19.86 0 0 0 26.35 7.48Z" />
        <path fill="#FFF7F0"
            d="m355.2 137.88-62.3-29.39a39.71 39.71 0 0 0-19.86-3.7l-14.5 1.06a26.48 26.48 0 0 1-24.16-12.32l-.66-1.19a13.24 13.24 0 0 0-15.49-7.41l-113.2 29.59a24.3 24.3 0 0 0 29.93 18.73l95.25-24.89a26.48 26.48 0 0 0 28.14 23.96l14.5-1.05a39.7 39.7 0 0 1 19.85 3.7l62.3 29.4a79.44 79.44 0 0 0 43.35 7.08l78.31-9.2A13.24 13.24 0 0 0 488.38 149v-14.63l-90.03 10.59a79.42 79.42 0 0 1-43.16-7.09Z" />
        <path fill="#FFF7F0" d="m223.6 111.14-77.85 19.13 72.81-18.8c1.65-.4 3.35-.5 5.03-.33Z" />
        <path fill="#5E2458"
            d="M109.87 134.04a30.78 30.78 0 0 0 26.47 5.5l88.97-23.04a33.1 33.1 0 0 0 33.76 22.44l14.5-1.06c5.58-.34 11.16.72 16.22 3.12l62.3 29.39a86.06 86.06 0 0 0 46.8 7.61l78.57-9.2A19.86 19.86 0 0 0 495 148.94V65.27A19.87 19.87 0 0 0 470.3 46l-43.42 10.86a46.34 46.34 0 0 1-33.1-3.97l-83.34-43.9a59.58 59.58 0 0 0-55.2 0l-141 72.83a31.05 31.05 0 0 0-4.7 52.03l.33.2Zm10.79-40.3 141-72.83a46.34 46.34 0 0 1 42.9 0l83.33 43.7a59.58 59.58 0 0 0 42.17 5.1l43.5-10.86a6.62 6.62 0 0 1 8.2 6.62v83.6a6.62 6.62 0 0 1-5.82 6.62l-78.32 9.2a72.82 72.82 0 0 1-39.71-6.62l-62.3-29.39a46.33 46.33 0 0 0-23.1-4.3l-14.5 1.06a19.85 19.85 0 0 1-21.31-19.86v-2.72a6.61 6.61 0 0 1 3.9-6.02l19.86-8.8a59.58 59.58 0 0 1 46.34-1l33.1 13.24a6.62 6.62 0 1 0 4.9-12.3l-33.1-13.25a73.15 73.15 0 0 0-56.93 1.2l-19.86 8.8a19.86 19.86 0 0 0-11.32 18.27l-90.36 23.43a17.74 17.74 0 0 1-12.64-33.1l.07.2Z" />
        <path fill="#ED7899"
            d="M333.31 183a59.99 59.99 0 0 0-84.76 0l-9.61 9.5-9.62-9.5a59.99 59.99 0 0 0-84.76 0 59.98 59.98 0 0 0 0 84.88l89.07 89.06a7.73 7.73 0 0 0 10.9 0l88.78-89.18a60 60 0 0 0 0-84.76Z" />
        <path fill="#F283A5"
            d="m205.73 225.76-19.47-19.17a21.11 21.11 0 0 1 21.77-35.4 76.68 76.68 0 0 1 30.9 21.3l-33.2 33.27Z" />
        <path fill="#E0678F"
            d="m312.67 288.52-68.25 68.3a7.73 7.73 0 0 1-10.91 0l-5.9-6.54a35.39 35.39 0 0 1 1.3-48.67l48.42-48.42a25.01 25.01 0 0 1 35.4 0 25 25 0 0 1-.06 35.33Z" />
        <path fill="#5E2458"
            d="M337.62 178.69a65.95 65.95 0 0 0-93.2 0l-5.3 5.3-5.5-5.48a65.9 65.9 0 1 0-93.19 93.2l89.07 89.07a13.5 13.5 0 0 0 9.61 4 13.48 13.48 0 0 0 9.62-4l89-89.07a65.95 65.95 0 0 0-.11-93.02Zm-8.38 84.88-89 89.07a1.6 1.6 0 0 1-2.03.49 1.6 1.6 0 0 1-.57-.5l-89.07-89.06a54.22 54.22 0 0 1 76.68-76.68l5.49 5.49-1.3 1.3a5.9 5.9 0 1 0 8.32 8.31l1.18-1.3 13.8-13.8a54.22 54.22 0 0 1 76.68 76.68h-.18Z" />
        <path fill="#5E2458"
            d="m215.34 207.65-9.79 9.8a5.9 5.9 0 1 0 8.32 8.31l9.79-9.8a5.9 5.9 0 0 0-8.32-8.3Z" />
    </g>
    <defs>
        <clipPath id="a">
            <path fill="#fff" d="M0 0h512v512H0z" />
        </clipPath>
    </defs>
</svg>