<svg xmlns="http://www.w3.org/2000/svg" fill="none" viewBox="0 0 512 512">
  <path fill="hsl(44deg 100% 56%)" fill-rule="evenodd" d="m265.34 493.3 141-72.81.07.2a17.74 17.74 0 0 0-12.65-33.1l-90.35 23.43a19.86 19.86 0 0 1-11.32 18.27l-19.86 8.8a73.12 73.12 0 0 1-56.93 1.2l-33.1-13.24a6.64 6.64 0 0 1 2.36-12.78 6.5 6.5 0 0 1 2.54.47l10.5 4.2 22.6 9.04a59.59 59.59 0 0 0 46.34-1l19.85-8.8a6.62 6.62 0 0 0 3.91-6.03v-2.71a19.89 19.89 0 0 0-21.32-19.86l-14.5 1.06c-7.94.57-15.9-.9-23.1-4.3l-62.29-29.4a72.81 72.81 0 0 0-39.71-6.61l-78.32 9.2a6.62 6.62 0 0 0-5.82 6.62v83.6a6.62 6.62 0 0 0 8.2 6.62l43.5-10.85a59.57 59.57 0 0 1 42.17 5.1l83.34 43.69a46.34 46.34 0 0 0 42.9 0Zm13.32-472.38-141 72.81-.07-.2a17.74 17.74 0 0 0 12.64 33.1l90.36-23.43a19.85 19.85 0 0 1 11.32-18.27l19.86-8.8a73.14 73.14 0 0 1 56.93-1.2l33.1 13.24a6.62 6.62 0 1 1-4.9 12.31l-10.5-4.2-22.6-9.04a59.57 59.57 0 0 0-46.34 1l-19.85 8.8a6.62 6.62 0 0 0-3.91 6.02v2.72a19.98 19.98 0 0 0 1.64 7.95 19.85 19.85 0 0 0 19.67 11.9l14.5-1.05c7.94-.58 15.9.9 23.1 4.3l62.3 29.4a72.81 72.81 0 0 0 39.71 6.61l78.31-9.2a6.62 6.62 0 0 0 5.83-6.62v-83.6a6.62 6.62 0 0 0-8.2-6.62l-43.5 10.85a59.58 59.58 0 0 1-42.17-5.1l-83.34-43.68a46.34 46.34 0 0 0-42.9 0Zm67.58 242.65-89 89.07a1.59 1.59 0 0 1-2.6 0l-89.07-89.07a54.22 54.22 0 1 1 76.68-76.68l5.49 5.49-1.3 1.3a5.91 5.91 0 0 0 1.68 9.97 5.88 5.88 0 0 0 6.64-1.66l1.18-1.3 13.8-13.8a54.22 54.22 0 1 1 76.68 76.68h-.18Zm-123.69-46.13 9.8-9.79a5.9 5.9 0 0 1 8.3 8.32l-9.78 9.8a5.9 5.9 0 1 1-8.32-8.33Z" clip-rule="evenodd"/>
</svg>